G04 #@! TF.GenerationSoftware,KiCad,Pcbnew,5.0.2-bee76a0~70~ubuntu18.04.1*
G04 #@! TF.CreationDate,2019-03-11T12:10:11+07:00*
G04 #@! TF.ProjectId,TestNodeMcu,54657374-4e6f-4646-954d-63752e6b6963,rev?*
G04 #@! TF.SameCoordinates,Original*
G04 #@! TF.FileFunction,Legend,Top*
G04 #@! TF.FilePolarity,Positive*
%FSLAX45Y45*%
G04 Gerber Fmt 4.5, Leading zero omitted, Abs format (unit mm)*
G04 Created by KiCad (PCBNEW 5.0.2-bee76a0~70~ubuntu18.04.1) date Thứ hai, 11 Tháng 3 Năm 2019 12:10:11 +07*
%MOMM*%
%LPD*%
G01*
G04 APERTURE LIST*
%ADD10C,0.300000*%
%ADD11C,0.150000*%
%ADD12C,0.120000*%
%ADD13C,0.100000*%
G04 APERTURE END LIST*
D10*
X14055000Y-7102891D02*
X14026428Y-7102891D01*
X14012143Y-7110034D01*
X14005000Y-7117177D01*
X13990714Y-7138605D01*
X13983571Y-7167177D01*
X13983571Y-7224319D01*
X13990714Y-7238605D01*
X13997857Y-7245748D01*
X14012143Y-7252891D01*
X14040714Y-7252891D01*
X14055000Y-7245748D01*
X14062143Y-7238605D01*
X14069286Y-7224319D01*
X14069286Y-7188605D01*
X14062143Y-7174319D01*
X14055000Y-7167177D01*
X14040714Y-7160034D01*
X14012143Y-7160034D01*
X13997857Y-7167177D01*
X13990714Y-7174319D01*
X13983571Y-7188605D01*
X14197857Y-7102891D02*
X14169286Y-7102891D01*
X14155000Y-7110034D01*
X14147857Y-7117177D01*
X14133571Y-7138605D01*
X14126428Y-7167177D01*
X14126428Y-7224319D01*
X14133571Y-7238605D01*
X14140714Y-7245748D01*
X14155000Y-7252891D01*
X14183571Y-7252891D01*
X14197857Y-7245748D01*
X14205000Y-7238605D01*
X14212143Y-7224319D01*
X14212143Y-7188605D01*
X14205000Y-7174319D01*
X14197857Y-7167177D01*
X14183571Y-7160034D01*
X14155000Y-7160034D01*
X14140714Y-7167177D01*
X14133571Y-7174319D01*
X14126428Y-7188605D01*
X14283571Y-7245748D02*
X14283571Y-7252891D01*
X14276428Y-7267177D01*
X14269286Y-7274319D01*
X14376428Y-7102891D02*
X14390714Y-7102891D01*
X14405000Y-7110034D01*
X14412143Y-7117177D01*
X14419286Y-7131462D01*
X14426428Y-7160034D01*
X14426428Y-7195748D01*
X14419286Y-7224319D01*
X14412143Y-7238605D01*
X14405000Y-7245748D01*
X14390714Y-7252891D01*
X14376428Y-7252891D01*
X14362143Y-7245748D01*
X14355000Y-7238605D01*
X14347857Y-7224319D01*
X14340714Y-7195748D01*
X14340714Y-7160034D01*
X14347857Y-7131462D01*
X14355000Y-7117177D01*
X14362143Y-7110034D01*
X14376428Y-7102891D01*
X14555000Y-7152891D02*
X14555000Y-7252891D01*
X14519286Y-7095748D02*
X14483571Y-7202891D01*
X14576428Y-7202891D01*
X14662143Y-7102891D02*
X14676428Y-7102891D01*
X14690714Y-7110034D01*
X14697857Y-7117177D01*
X14705000Y-7131462D01*
X14712143Y-7160034D01*
X14712143Y-7195748D01*
X14705000Y-7224319D01*
X14697857Y-7238605D01*
X14690714Y-7245748D01*
X14676428Y-7252891D01*
X14662143Y-7252891D01*
X14647857Y-7245748D01*
X14640714Y-7238605D01*
X14633571Y-7224319D01*
X14626428Y-7195748D01*
X14626428Y-7160034D01*
X14633571Y-7131462D01*
X14640714Y-7117177D01*
X14647857Y-7110034D01*
X14662143Y-7102891D01*
X14890714Y-7252891D02*
X14890714Y-7152891D01*
X14890714Y-7167177D02*
X14897857Y-7160034D01*
X14912143Y-7152891D01*
X14933571Y-7152891D01*
X14947857Y-7160034D01*
X14955000Y-7174319D01*
X14955000Y-7252891D01*
X14955000Y-7174319D02*
X14962143Y-7160034D01*
X14976428Y-7152891D01*
X14997857Y-7152891D01*
X15012143Y-7160034D01*
X15019286Y-7174319D01*
X15019286Y-7252891D01*
X15090714Y-7252891D02*
X15090714Y-7152891D01*
X15090714Y-7167177D02*
X15097857Y-7160034D01*
X15112143Y-7152891D01*
X15133571Y-7152891D01*
X15147857Y-7160034D01*
X15155000Y-7174319D01*
X15155000Y-7252891D01*
X15155000Y-7174319D02*
X15162143Y-7160034D01*
X15176428Y-7152891D01*
X15197857Y-7152891D01*
X15212143Y-7160034D01*
X15219286Y-7174319D01*
X15219286Y-7252891D01*
X11303000Y-6975034D02*
X17907000Y-6975034D01*
X11303000Y-6975034D02*
X11303000Y-7033676D01*
X17907000Y-6975034D02*
X17907000Y-7033676D01*
X17907000Y-6975034D02*
X17794350Y-7033676D01*
X17907000Y-6975034D02*
X17794350Y-6916392D01*
X11303000Y-6975034D02*
X11415650Y-7033676D01*
X11303000Y-6975034D02*
X11415650Y-6916392D01*
X10556181Y-9617143D02*
X10556181Y-9545714D01*
X10484753Y-9538571D01*
X10491896Y-9545714D01*
X10499038Y-9560000D01*
X10499038Y-9595714D01*
X10491896Y-9610000D01*
X10484753Y-9617143D01*
X10470467Y-9624286D01*
X10434753Y-9624286D01*
X10420467Y-9617143D01*
X10413324Y-9610000D01*
X10406181Y-9595714D01*
X10406181Y-9560000D01*
X10413324Y-9545714D01*
X10420467Y-9538571D01*
X10556181Y-9717143D02*
X10556181Y-9731429D01*
X10549038Y-9745714D01*
X10541896Y-9752857D01*
X10527610Y-9760000D01*
X10499038Y-9767143D01*
X10463324Y-9767143D01*
X10434753Y-9760000D01*
X10420467Y-9752857D01*
X10413324Y-9745714D01*
X10406181Y-9731429D01*
X10406181Y-9717143D01*
X10413324Y-9702857D01*
X10420467Y-9695714D01*
X10434753Y-9688571D01*
X10463324Y-9681429D01*
X10499038Y-9681429D01*
X10527610Y-9688571D01*
X10541896Y-9695714D01*
X10549038Y-9702857D01*
X10556181Y-9717143D01*
X10413324Y-9838571D02*
X10406181Y-9838571D01*
X10391896Y-9831429D01*
X10384753Y-9824286D01*
X10491896Y-9924286D02*
X10499038Y-9910000D01*
X10506181Y-9902857D01*
X10520467Y-9895714D01*
X10527610Y-9895714D01*
X10541896Y-9902857D01*
X10549038Y-9910000D01*
X10556181Y-9924286D01*
X10556181Y-9952857D01*
X10549038Y-9967143D01*
X10541896Y-9974286D01*
X10527610Y-9981429D01*
X10520467Y-9981429D01*
X10506181Y-9974286D01*
X10499038Y-9967143D01*
X10491896Y-9952857D01*
X10491896Y-9924286D01*
X10484753Y-9910000D01*
X10477610Y-9902857D01*
X10463324Y-9895714D01*
X10434753Y-9895714D01*
X10420467Y-9902857D01*
X10413324Y-9910000D01*
X10406181Y-9924286D01*
X10406181Y-9952857D01*
X10413324Y-9967143D01*
X10420467Y-9974286D01*
X10434753Y-9981429D01*
X10463324Y-9981429D01*
X10477610Y-9974286D01*
X10484753Y-9967143D01*
X10491896Y-9952857D01*
X10556181Y-10074286D02*
X10556181Y-10088571D01*
X10549038Y-10102857D01*
X10541896Y-10110000D01*
X10527610Y-10117143D01*
X10499038Y-10124286D01*
X10463324Y-10124286D01*
X10434753Y-10117143D01*
X10420467Y-10110000D01*
X10413324Y-10102857D01*
X10406181Y-10088571D01*
X10406181Y-10074286D01*
X10413324Y-10060000D01*
X10420467Y-10052857D01*
X10434753Y-10045714D01*
X10463324Y-10038571D01*
X10499038Y-10038571D01*
X10527610Y-10045714D01*
X10541896Y-10052857D01*
X10549038Y-10060000D01*
X10556181Y-10074286D01*
X10556181Y-10217143D02*
X10556181Y-10231429D01*
X10549038Y-10245714D01*
X10541896Y-10252857D01*
X10527610Y-10260000D01*
X10499038Y-10267143D01*
X10463324Y-10267143D01*
X10434753Y-10260000D01*
X10420467Y-10252857D01*
X10413324Y-10245714D01*
X10406181Y-10231429D01*
X10406181Y-10217143D01*
X10413324Y-10202857D01*
X10420467Y-10195714D01*
X10434753Y-10188571D01*
X10463324Y-10181429D01*
X10499038Y-10181429D01*
X10527610Y-10188571D01*
X10541896Y-10195714D01*
X10549038Y-10202857D01*
X10556181Y-10217143D01*
X10406181Y-10445714D02*
X10506181Y-10445714D01*
X10491896Y-10445714D02*
X10499038Y-10452857D01*
X10506181Y-10467143D01*
X10506181Y-10488571D01*
X10499038Y-10502857D01*
X10484753Y-10510000D01*
X10406181Y-10510000D01*
X10484753Y-10510000D02*
X10499038Y-10517143D01*
X10506181Y-10531429D01*
X10506181Y-10552857D01*
X10499038Y-10567143D01*
X10484753Y-10574286D01*
X10406181Y-10574286D01*
X10406181Y-10645714D02*
X10506181Y-10645714D01*
X10491896Y-10645714D02*
X10499038Y-10652857D01*
X10506181Y-10667143D01*
X10506181Y-10688571D01*
X10499038Y-10702857D01*
X10484753Y-10710000D01*
X10406181Y-10710000D01*
X10484753Y-10710000D02*
X10499038Y-10717143D01*
X10506181Y-10731429D01*
X10506181Y-10752857D01*
X10499038Y-10767143D01*
X10484753Y-10774286D01*
X10406181Y-10774286D01*
X10684038Y-7620000D02*
X10684038Y-12700000D01*
X10684038Y-7620000D02*
X10625396Y-7620000D01*
X10684038Y-12700000D02*
X10625396Y-12700000D01*
X10684038Y-12700000D02*
X10625396Y-12587350D01*
X10684038Y-12700000D02*
X10742681Y-12587350D01*
X10684038Y-7620000D02*
X10625396Y-7732650D01*
X10684038Y-7620000D02*
X10742681Y-7732650D01*
X12718143Y-12329702D02*
X12718143Y-12202702D01*
X12748381Y-12202702D01*
X12766524Y-12208750D01*
X12778619Y-12220845D01*
X12784667Y-12232940D01*
X12790714Y-12257131D01*
X12790714Y-12275274D01*
X12784667Y-12299464D01*
X12778619Y-12311559D01*
X12766524Y-12323655D01*
X12748381Y-12329702D01*
X12718143Y-12329702D01*
X12845143Y-12329702D02*
X12845143Y-12202702D01*
X12899571Y-12293417D02*
X12960048Y-12293417D01*
X12887476Y-12329702D02*
X12929809Y-12202702D01*
X12972143Y-12329702D01*
X13014476Y-12329702D02*
X13014476Y-12202702D01*
X13056809Y-12293417D01*
X13099143Y-12202702D01*
X13099143Y-12329702D01*
X13183809Y-12202702D02*
X13208000Y-12202702D01*
X13220095Y-12208750D01*
X13232190Y-12220845D01*
X13238238Y-12245036D01*
X13238238Y-12287369D01*
X13232190Y-12311559D01*
X13220095Y-12323655D01*
X13208000Y-12329702D01*
X13183809Y-12329702D01*
X13171714Y-12323655D01*
X13159619Y-12311559D01*
X13153571Y-12287369D01*
X13153571Y-12245036D01*
X13159619Y-12220845D01*
X13171714Y-12208750D01*
X13183809Y-12202702D01*
X13292667Y-12329702D02*
X13292667Y-12202702D01*
X13365238Y-12329702D01*
X13365238Y-12202702D01*
X13425714Y-12329702D02*
X13425714Y-12202702D01*
X13455952Y-12202702D01*
X13474095Y-12208750D01*
X13486190Y-12220845D01*
X13492238Y-12232940D01*
X13498286Y-12257131D01*
X13498286Y-12275274D01*
X13492238Y-12299464D01*
X13486190Y-12311559D01*
X13474095Y-12323655D01*
X13455952Y-12329702D01*
X13425714Y-12329702D01*
X13649476Y-12263178D02*
X13691809Y-12263178D01*
X13709952Y-12329702D02*
X13649476Y-12329702D01*
X13649476Y-12202702D01*
X13709952Y-12202702D01*
X13824857Y-12329702D02*
X13764381Y-12329702D01*
X13764381Y-12202702D01*
X13867190Y-12263178D02*
X13909524Y-12263178D01*
X13927667Y-12329702D02*
X13867190Y-12329702D01*
X13867190Y-12202702D01*
X13927667Y-12202702D01*
X14054667Y-12317607D02*
X14048619Y-12323655D01*
X14030476Y-12329702D01*
X14018381Y-12329702D01*
X14000238Y-12323655D01*
X13988143Y-12311559D01*
X13982095Y-12299464D01*
X13976048Y-12275274D01*
X13976048Y-12257131D01*
X13982095Y-12232940D01*
X13988143Y-12220845D01*
X14000238Y-12208750D01*
X14018381Y-12202702D01*
X14030476Y-12202702D01*
X14048619Y-12208750D01*
X14054667Y-12214798D01*
X14090952Y-12202702D02*
X14163524Y-12202702D01*
X14127238Y-12329702D02*
X14127238Y-12202702D01*
X14278428Y-12329702D02*
X14236095Y-12269226D01*
X14205857Y-12329702D02*
X14205857Y-12202702D01*
X14254238Y-12202702D01*
X14266333Y-12208750D01*
X14272381Y-12214798D01*
X14278428Y-12226893D01*
X14278428Y-12245036D01*
X14272381Y-12257131D01*
X14266333Y-12263178D01*
X14254238Y-12269226D01*
X14205857Y-12269226D01*
X14332857Y-12329702D02*
X14332857Y-12202702D01*
X14465905Y-12317607D02*
X14459857Y-12323655D01*
X14441714Y-12329702D01*
X14429619Y-12329702D01*
X14411476Y-12323655D01*
X14399381Y-12311559D01*
X14393333Y-12299464D01*
X14387286Y-12275274D01*
X14387286Y-12257131D01*
X14393333Y-12232940D01*
X14399381Y-12220845D01*
X14411476Y-12208750D01*
X14429619Y-12202702D01*
X14441714Y-12202702D01*
X14459857Y-12208750D01*
X14465905Y-12214798D01*
X13217071Y-12423202D02*
X13259405Y-12550202D01*
X13301738Y-12423202D01*
X13344071Y-12550202D02*
X13344071Y-12423202D01*
X13404548Y-12483678D02*
X13446881Y-12483678D01*
X13465024Y-12550202D02*
X13404548Y-12550202D01*
X13404548Y-12423202D01*
X13465024Y-12423202D01*
X13501309Y-12423202D02*
X13573881Y-12423202D01*
X13537595Y-12550202D02*
X13537595Y-12423202D01*
X13616214Y-12550202D02*
X13616214Y-12423202D01*
X13688786Y-12550202D01*
X13688786Y-12423202D01*
X13743214Y-12513917D02*
X13803690Y-12513917D01*
X13731119Y-12550202D02*
X13773452Y-12423202D01*
X13815786Y-12550202D01*
X13858119Y-12550202D02*
X13858119Y-12423202D01*
X13900452Y-12513917D01*
X13942786Y-12423202D01*
X13942786Y-12550202D01*
D11*
G04 #@! TO.C,BT1*
X14859000Y-7747000D02*
X14859000Y-9779000D01*
X11303000Y-9779000D02*
X14859000Y-9779000D01*
X14859000Y-9779000D02*
X14859000Y-7747000D01*
X14859000Y-7747000D02*
X11303000Y-7747000D01*
X11303000Y-7747000D02*
X11303000Y-9779000D01*
D12*
G04 #@! TO.C,D1*
X12872000Y-10236246D02*
G75*
G03X12317000Y-10081717I-299000J46D01*
G01*
X12872000Y-10236154D02*
G75*
G02X12317000Y-10390683I-299000J-46D01*
G01*
X12823000Y-10236200D02*
G75*
G03X12823000Y-10236200I-250000J0D01*
G01*
X12317000Y-10081700D02*
X12317000Y-10390700D01*
G04 #@! TO.C,D2*
X14349000Y-10081700D02*
X14349000Y-10390700D01*
X14855000Y-10236200D02*
G75*
G03X14855000Y-10236200I-250000J0D01*
G01*
X14904000Y-10236154D02*
G75*
G02X14349000Y-10390683I-299000J-46D01*
G01*
X14904000Y-10236246D02*
G75*
G03X14349000Y-10081717I-299000J46D01*
G01*
G04 #@! TO.C,R1*
X13916000Y-10162400D02*
X13916000Y-10195400D01*
X13916000Y-10195400D02*
X13262000Y-10195400D01*
X13262000Y-10195400D02*
X13262000Y-10162400D01*
X13916000Y-9954400D02*
X13916000Y-9921400D01*
X13916000Y-9921400D02*
X13262000Y-9921400D01*
X13262000Y-9921400D02*
X13262000Y-9954400D01*
G04 #@! TO.C,R2*
X13916000Y-10563700D02*
X13916000Y-10530700D01*
X13262000Y-10563700D02*
X13916000Y-10563700D01*
X13262000Y-10530700D02*
X13262000Y-10563700D01*
X13916000Y-10289700D02*
X13916000Y-10322700D01*
X13262000Y-10289700D02*
X13916000Y-10289700D01*
X13262000Y-10322700D02*
X13262000Y-10289700D01*
D13*
G04 #@! TO.C,SW1*
X11957500Y-12577500D02*
X11957500Y-12527500D01*
X11957500Y-12577500D02*
X11907500Y-12577500D01*
X11957500Y-11387500D02*
X11907500Y-11387500D01*
X11957500Y-11387500D02*
X11957500Y-11437500D01*
X11537500Y-11387500D02*
X11587500Y-11387500D01*
X11537500Y-11387500D02*
X11537500Y-11437500D01*
X11537500Y-12577500D02*
X11587500Y-12577500D01*
X11537500Y-12577500D02*
X11537500Y-12527500D01*
D11*
G04 #@! TO.C,U1*
X16891000Y-12065000D02*
X16129000Y-12065000D01*
X16891000Y-12573000D02*
X16891000Y-12065000D01*
X16129000Y-12573000D02*
X16129000Y-12065000D01*
X15240000Y-12573000D02*
X15240000Y-7747000D01*
X17780000Y-12573000D02*
X15240000Y-12573000D01*
X17780000Y-7747000D02*
X17780000Y-12573000D01*
X15240000Y-7747000D02*
X17780000Y-7747000D01*
D12*
G04 #@! TO.C,C1*
X12007500Y-10236200D02*
G75*
G03X12007500Y-10236200I-262000J0D01*
G01*
X11745500Y-9978200D02*
X11745500Y-10494200D01*
X11749500Y-9978200D02*
X11749500Y-10494200D01*
X11753500Y-9978300D02*
X11753500Y-10494100D01*
X11757500Y-9978400D02*
X11757500Y-10494000D01*
X11761500Y-9978600D02*
X11761500Y-10493800D01*
X11765500Y-9978900D02*
X11765500Y-10493500D01*
X11769500Y-9979300D02*
X11769500Y-10132200D01*
X11769500Y-10340200D02*
X11769500Y-10493100D01*
X11773500Y-9979700D02*
X11773500Y-10132200D01*
X11773500Y-10340200D02*
X11773500Y-10492700D01*
X11777500Y-9980100D02*
X11777500Y-10132200D01*
X11777500Y-10340200D02*
X11777500Y-10492300D01*
X11781500Y-9980600D02*
X11781500Y-10132200D01*
X11781500Y-10340200D02*
X11781500Y-10491800D01*
X11785500Y-9981200D02*
X11785500Y-10132200D01*
X11785500Y-10340200D02*
X11785500Y-10491200D01*
X11789500Y-9981900D02*
X11789500Y-10132200D01*
X11789500Y-10340200D02*
X11789500Y-10490500D01*
X11793500Y-9982600D02*
X11793500Y-10132200D01*
X11793500Y-10340200D02*
X11793500Y-10489800D01*
X11797500Y-9983400D02*
X11797500Y-10132200D01*
X11797500Y-10340200D02*
X11797500Y-10489000D01*
X11801500Y-9984200D02*
X11801500Y-10132200D01*
X11801500Y-10340200D02*
X11801500Y-10488200D01*
X11805500Y-9985100D02*
X11805500Y-10132200D01*
X11805500Y-10340200D02*
X11805500Y-10487300D01*
X11809500Y-9986100D02*
X11809500Y-10132200D01*
X11809500Y-10340200D02*
X11809500Y-10486300D01*
X11813500Y-9987100D02*
X11813500Y-10132200D01*
X11813500Y-10340200D02*
X11813500Y-10485300D01*
X11817600Y-9988200D02*
X11817600Y-10132200D01*
X11817600Y-10340200D02*
X11817600Y-10484200D01*
X11821600Y-9989400D02*
X11821600Y-10132200D01*
X11821600Y-10340200D02*
X11821600Y-10483000D01*
X11825600Y-9990700D02*
X11825600Y-10132200D01*
X11825600Y-10340200D02*
X11825600Y-10481700D01*
X11829600Y-9992000D02*
X11829600Y-10132200D01*
X11829600Y-10340200D02*
X11829600Y-10480400D01*
X11833600Y-9993400D02*
X11833600Y-10132200D01*
X11833600Y-10340200D02*
X11833600Y-10479000D01*
X11837600Y-9994800D02*
X11837600Y-10132200D01*
X11837600Y-10340200D02*
X11837600Y-10477600D01*
X11841600Y-9996400D02*
X11841600Y-10132200D01*
X11841600Y-10340200D02*
X11841600Y-10476000D01*
X11845600Y-9998000D02*
X11845600Y-10132200D01*
X11845600Y-10340200D02*
X11845600Y-10474400D01*
X11849600Y-9999700D02*
X11849600Y-10132200D01*
X11849600Y-10340200D02*
X11849600Y-10472700D01*
X11853600Y-10001400D02*
X11853600Y-10132200D01*
X11853600Y-10340200D02*
X11853600Y-10471000D01*
X11857600Y-10003300D02*
X11857600Y-10132200D01*
X11857600Y-10340200D02*
X11857600Y-10469100D01*
X11861600Y-10005200D02*
X11861600Y-10132200D01*
X11861600Y-10340200D02*
X11861600Y-10467200D01*
X11865600Y-10007200D02*
X11865600Y-10132200D01*
X11865600Y-10340200D02*
X11865600Y-10465200D01*
X11869600Y-10009400D02*
X11869600Y-10132200D01*
X11869600Y-10340200D02*
X11869600Y-10463000D01*
X11873600Y-10011500D02*
X11873600Y-10132200D01*
X11873600Y-10340200D02*
X11873600Y-10460900D01*
X11877600Y-10013800D02*
X11877600Y-10132200D01*
X11877600Y-10340200D02*
X11877600Y-10458600D01*
X11881600Y-10016200D02*
X11881600Y-10132200D01*
X11881600Y-10340200D02*
X11881600Y-10456200D01*
X11885600Y-10018700D02*
X11885600Y-10132200D01*
X11885600Y-10340200D02*
X11885600Y-10453700D01*
X11889600Y-10021300D02*
X11889600Y-10132200D01*
X11889600Y-10340200D02*
X11889600Y-10451100D01*
X11893600Y-10024000D02*
X11893600Y-10132200D01*
X11893600Y-10340200D02*
X11893600Y-10448400D01*
X11897600Y-10026700D02*
X11897600Y-10132200D01*
X11897600Y-10340200D02*
X11897600Y-10445700D01*
X11901600Y-10029700D02*
X11901600Y-10132200D01*
X11901600Y-10340200D02*
X11901600Y-10442700D01*
X11905600Y-10032700D02*
X11905600Y-10132200D01*
X11905600Y-10340200D02*
X11905600Y-10439700D01*
X11909600Y-10035800D02*
X11909600Y-10132200D01*
X11909600Y-10340200D02*
X11909600Y-10436600D01*
X11913600Y-10039100D02*
X11913600Y-10132200D01*
X11913600Y-10340200D02*
X11913600Y-10433300D01*
X11917600Y-10042500D02*
X11917600Y-10132200D01*
X11917600Y-10340200D02*
X11917600Y-10429900D01*
X11921600Y-10046100D02*
X11921600Y-10132200D01*
X11921600Y-10340200D02*
X11921600Y-10426300D01*
X11925600Y-10049800D02*
X11925600Y-10132200D01*
X11925600Y-10340200D02*
X11925600Y-10422600D01*
X11929600Y-10053600D02*
X11929600Y-10132200D01*
X11929600Y-10340200D02*
X11929600Y-10418800D01*
X11933600Y-10057700D02*
X11933600Y-10132200D01*
X11933600Y-10340200D02*
X11933600Y-10414700D01*
X11937600Y-10061900D02*
X11937600Y-10132200D01*
X11937600Y-10340200D02*
X11937600Y-10410500D01*
X11941600Y-10066300D02*
X11941600Y-10132200D01*
X11941600Y-10340200D02*
X11941600Y-10406100D01*
X11945600Y-10070900D02*
X11945600Y-10132200D01*
X11945600Y-10340200D02*
X11945600Y-10401500D01*
X11949600Y-10075700D02*
X11949600Y-10132200D01*
X11949600Y-10340200D02*
X11949600Y-10396700D01*
X11953600Y-10080800D02*
X11953600Y-10132200D01*
X11953600Y-10340200D02*
X11953600Y-10391600D01*
X11957600Y-10086200D02*
X11957600Y-10132200D01*
X11957600Y-10340200D02*
X11957600Y-10386200D01*
X11961600Y-10091900D02*
X11961600Y-10132200D01*
X11961600Y-10340200D02*
X11961600Y-10380500D01*
X11965600Y-10097900D02*
X11965600Y-10132200D01*
X11965600Y-10340200D02*
X11965600Y-10374500D01*
X11969600Y-10104300D02*
X11969600Y-10132200D01*
X11969600Y-10340200D02*
X11969600Y-10368100D01*
X11973600Y-10111100D02*
X11973600Y-10132200D01*
X11973600Y-10340200D02*
X11973600Y-10361300D01*
X11977600Y-10118400D02*
X11977600Y-10354000D01*
X11981600Y-10126400D02*
X11981600Y-10346000D01*
X11985600Y-10135100D02*
X11985600Y-10337300D01*
X11989600Y-10144700D02*
X11989600Y-10327700D01*
X11993600Y-10155700D02*
X11993600Y-10316700D01*
X11997600Y-10168500D02*
X11997600Y-10303900D01*
X12001600Y-10184400D02*
X12001600Y-10288000D01*
X12005600Y-10207800D02*
X12005600Y-10264600D01*
X11465022Y-10088700D02*
X11515022Y-10088700D01*
X11490022Y-10063700D02*
X11490022Y-10113700D01*
G04 #@! TO.C,C2*
X11490022Y-10749500D02*
X11490022Y-10799500D01*
X11465022Y-10774500D02*
X11515022Y-10774500D01*
X12005600Y-10893600D02*
X12005600Y-10950400D01*
X12001600Y-10870200D02*
X12001600Y-10973800D01*
X11997600Y-10854300D02*
X11997600Y-10989700D01*
X11993600Y-10841500D02*
X11993600Y-11002500D01*
X11989600Y-10830500D02*
X11989600Y-11013500D01*
X11985600Y-10820900D02*
X11985600Y-11023100D01*
X11981600Y-10812200D02*
X11981600Y-11031800D01*
X11977600Y-10804200D02*
X11977600Y-11039800D01*
X11973600Y-11026000D02*
X11973600Y-11047100D01*
X11973600Y-10796900D02*
X11973600Y-10818000D01*
X11969600Y-11026000D02*
X11969600Y-11053900D01*
X11969600Y-10790100D02*
X11969600Y-10818000D01*
X11965600Y-11026000D02*
X11965600Y-11060300D01*
X11965600Y-10783700D02*
X11965600Y-10818000D01*
X11961600Y-11026000D02*
X11961600Y-11066300D01*
X11961600Y-10777700D02*
X11961600Y-10818000D01*
X11957600Y-11026000D02*
X11957600Y-11072000D01*
X11957600Y-10772000D02*
X11957600Y-10818000D01*
X11953600Y-11026000D02*
X11953600Y-11077400D01*
X11953600Y-10766600D02*
X11953600Y-10818000D01*
X11949600Y-11026000D02*
X11949600Y-11082500D01*
X11949600Y-10761500D02*
X11949600Y-10818000D01*
X11945600Y-11026000D02*
X11945600Y-11087300D01*
X11945600Y-10756700D02*
X11945600Y-10818000D01*
X11941600Y-11026000D02*
X11941600Y-11091900D01*
X11941600Y-10752100D02*
X11941600Y-10818000D01*
X11937600Y-11026000D02*
X11937600Y-11096300D01*
X11937600Y-10747700D02*
X11937600Y-10818000D01*
X11933600Y-11026000D02*
X11933600Y-11100500D01*
X11933600Y-10743500D02*
X11933600Y-10818000D01*
X11929600Y-11026000D02*
X11929600Y-11104600D01*
X11929600Y-10739400D02*
X11929600Y-10818000D01*
X11925600Y-11026000D02*
X11925600Y-11108400D01*
X11925600Y-10735600D02*
X11925600Y-10818000D01*
X11921600Y-11026000D02*
X11921600Y-11112100D01*
X11921600Y-10731900D02*
X11921600Y-10818000D01*
X11917600Y-11026000D02*
X11917600Y-11115700D01*
X11917600Y-10728300D02*
X11917600Y-10818000D01*
X11913600Y-11026000D02*
X11913600Y-11119100D01*
X11913600Y-10724900D02*
X11913600Y-10818000D01*
X11909600Y-11026000D02*
X11909600Y-11122400D01*
X11909600Y-10721600D02*
X11909600Y-10818000D01*
X11905600Y-11026000D02*
X11905600Y-11125500D01*
X11905600Y-10718500D02*
X11905600Y-10818000D01*
X11901600Y-11026000D02*
X11901600Y-11128500D01*
X11901600Y-10715500D02*
X11901600Y-10818000D01*
X11897600Y-11026000D02*
X11897600Y-11131500D01*
X11897600Y-10712500D02*
X11897600Y-10818000D01*
X11893600Y-11026000D02*
X11893600Y-11134200D01*
X11893600Y-10709800D02*
X11893600Y-10818000D01*
X11889600Y-11026000D02*
X11889600Y-11136900D01*
X11889600Y-10707100D02*
X11889600Y-10818000D01*
X11885600Y-11026000D02*
X11885600Y-11139500D01*
X11885600Y-10704500D02*
X11885600Y-10818000D01*
X11881600Y-11026000D02*
X11881600Y-11142000D01*
X11881600Y-10702000D02*
X11881600Y-10818000D01*
X11877600Y-11026000D02*
X11877600Y-11144400D01*
X11877600Y-10699600D02*
X11877600Y-10818000D01*
X11873600Y-11026000D02*
X11873600Y-11146700D01*
X11873600Y-10697300D02*
X11873600Y-10818000D01*
X11869600Y-11026000D02*
X11869600Y-11148800D01*
X11869600Y-10695200D02*
X11869600Y-10818000D01*
X11865600Y-11026000D02*
X11865600Y-11151000D01*
X11865600Y-10693000D02*
X11865600Y-10818000D01*
X11861600Y-11026000D02*
X11861600Y-11153000D01*
X11861600Y-10691000D02*
X11861600Y-10818000D01*
X11857600Y-11026000D02*
X11857600Y-11154900D01*
X11857600Y-10689100D02*
X11857600Y-10818000D01*
X11853600Y-11026000D02*
X11853600Y-11156800D01*
X11853600Y-10687200D02*
X11853600Y-10818000D01*
X11849600Y-11026000D02*
X11849600Y-11158500D01*
X11849600Y-10685500D02*
X11849600Y-10818000D01*
X11845600Y-11026000D02*
X11845600Y-11160200D01*
X11845600Y-10683800D02*
X11845600Y-10818000D01*
X11841600Y-11026000D02*
X11841600Y-11161800D01*
X11841600Y-10682200D02*
X11841600Y-10818000D01*
X11837600Y-11026000D02*
X11837600Y-11163400D01*
X11837600Y-10680600D02*
X11837600Y-10818000D01*
X11833600Y-11026000D02*
X11833600Y-11164800D01*
X11833600Y-10679200D02*
X11833600Y-10818000D01*
X11829600Y-11026000D02*
X11829600Y-11166200D01*
X11829600Y-10677800D02*
X11829600Y-10818000D01*
X11825600Y-11026000D02*
X11825600Y-11167500D01*
X11825600Y-10676500D02*
X11825600Y-10818000D01*
X11821600Y-11026000D02*
X11821600Y-11168800D01*
X11821600Y-10675200D02*
X11821600Y-10818000D01*
X11817600Y-11026000D02*
X11817600Y-11170000D01*
X11817600Y-10674000D02*
X11817600Y-10818000D01*
X11813500Y-11026000D02*
X11813500Y-11171100D01*
X11813500Y-10672900D02*
X11813500Y-10818000D01*
X11809500Y-11026000D02*
X11809500Y-11172100D01*
X11809500Y-10671900D02*
X11809500Y-10818000D01*
X11805500Y-11026000D02*
X11805500Y-11173100D01*
X11805500Y-10670900D02*
X11805500Y-10818000D01*
X11801500Y-11026000D02*
X11801500Y-11174000D01*
X11801500Y-10670000D02*
X11801500Y-10818000D01*
X11797500Y-11026000D02*
X11797500Y-11174800D01*
X11797500Y-10669200D02*
X11797500Y-10818000D01*
X11793500Y-11026000D02*
X11793500Y-11175600D01*
X11793500Y-10668400D02*
X11793500Y-10818000D01*
X11789500Y-11026000D02*
X11789500Y-11176300D01*
X11789500Y-10667700D02*
X11789500Y-10818000D01*
X11785500Y-11026000D02*
X11785500Y-11177000D01*
X11785500Y-10667000D02*
X11785500Y-10818000D01*
X11781500Y-11026000D02*
X11781500Y-11177600D01*
X11781500Y-10666400D02*
X11781500Y-10818000D01*
X11777500Y-11026000D02*
X11777500Y-11178100D01*
X11777500Y-10665900D02*
X11777500Y-10818000D01*
X11773500Y-11026000D02*
X11773500Y-11178500D01*
X11773500Y-10665500D02*
X11773500Y-10818000D01*
X11769500Y-11026000D02*
X11769500Y-11178900D01*
X11769500Y-10665100D02*
X11769500Y-10818000D01*
X11765500Y-10664700D02*
X11765500Y-11179300D01*
X11761500Y-10664400D02*
X11761500Y-11179600D01*
X11757500Y-10664200D02*
X11757500Y-11179800D01*
X11753500Y-10664100D02*
X11753500Y-11179900D01*
X11749500Y-10664000D02*
X11749500Y-11180000D01*
X11745500Y-10664000D02*
X11745500Y-11180000D01*
X12007500Y-10922000D02*
G75*
G03X12007500Y-10922000I-262000J0D01*
G01*
D11*
G04 #@! TO.C,U2*
X14986000Y-12065000D02*
X14986000Y-10668000D01*
X12192000Y-12065000D02*
X14986000Y-12065000D01*
X12192000Y-10668000D02*
X12192000Y-12065000D01*
X14986000Y-10668000D02*
X12192000Y-10668000D01*
X14922500Y-10731500D02*
X14668500Y-10731500D01*
X14922500Y-12001500D02*
X14922500Y-10731500D01*
X14668500Y-12001500D02*
X14922500Y-12001500D01*
X14668500Y-10731500D02*
X14668500Y-12001500D01*
X12255500Y-12001500D02*
X12255500Y-10731500D01*
X12509500Y-12001500D02*
X12255500Y-12001500D01*
X12509500Y-10731500D02*
X12509500Y-12001500D01*
X12255500Y-10731500D02*
X12509500Y-10731500D01*
G04 #@! TO.C,BT1*
X12946857Y-8841571D02*
X12951619Y-8827286D01*
X12956381Y-8822524D01*
X12965905Y-8817762D01*
X12980190Y-8817762D01*
X12989714Y-8822524D01*
X12994476Y-8827286D01*
X12999238Y-8836810D01*
X12999238Y-8874905D01*
X12899238Y-8874905D01*
X12899238Y-8841571D01*
X12904000Y-8832048D01*
X12908762Y-8827286D01*
X12918286Y-8822524D01*
X12927809Y-8822524D01*
X12937333Y-8827286D01*
X12942095Y-8832048D01*
X12946857Y-8841571D01*
X12946857Y-8874905D01*
X12899238Y-8789190D02*
X12899238Y-8732048D01*
X12999238Y-8760619D02*
X12899238Y-8760619D01*
X12999238Y-8646333D02*
X12999238Y-8703476D01*
X12999238Y-8674905D02*
X12899238Y-8674905D01*
X12913524Y-8684429D01*
X12923048Y-8693952D01*
X12927809Y-8703476D01*
G04 #@! TO.C,D1*
X12499190Y-9885438D02*
X12499190Y-9785438D01*
X12523000Y-9785438D01*
X12537286Y-9790200D01*
X12546809Y-9799724D01*
X12551571Y-9809248D01*
X12556333Y-9828295D01*
X12556333Y-9842581D01*
X12551571Y-9861629D01*
X12546809Y-9871152D01*
X12537286Y-9880676D01*
X12523000Y-9885438D01*
X12499190Y-9885438D01*
X12651571Y-9885438D02*
X12594428Y-9885438D01*
X12623000Y-9885438D02*
X12623000Y-9785438D01*
X12613476Y-9799724D01*
X12603952Y-9809248D01*
X12594428Y-9814010D01*
G04 #@! TO.C,D2*
X14531190Y-9885438D02*
X14531190Y-9785438D01*
X14555000Y-9785438D01*
X14569286Y-9790200D01*
X14578809Y-9799724D01*
X14583571Y-9809248D01*
X14588333Y-9828295D01*
X14588333Y-9842581D01*
X14583571Y-9861629D01*
X14578809Y-9871152D01*
X14569286Y-9880676D01*
X14555000Y-9885438D01*
X14531190Y-9885438D01*
X14626428Y-9794962D02*
X14631190Y-9790200D01*
X14640714Y-9785438D01*
X14664524Y-9785438D01*
X14674048Y-9790200D01*
X14678809Y-9794962D01*
X14683571Y-9804486D01*
X14683571Y-9814010D01*
X14678809Y-9828295D01*
X14621667Y-9885438D01*
X14683571Y-9885438D01*
G04 #@! TO.C,R1*
X13572333Y-10340638D02*
X13539000Y-10293019D01*
X13515190Y-10340638D02*
X13515190Y-10240638D01*
X13553286Y-10240638D01*
X13562809Y-10245400D01*
X13567571Y-10250162D01*
X13572333Y-10259686D01*
X13572333Y-10273971D01*
X13567571Y-10283495D01*
X13562809Y-10288257D01*
X13553286Y-10293019D01*
X13515190Y-10293019D01*
X13667571Y-10340638D02*
X13610428Y-10340638D01*
X13639000Y-10340638D02*
X13639000Y-10240638D01*
X13629476Y-10254924D01*
X13619952Y-10264448D01*
X13610428Y-10269210D01*
G04 #@! TO.C,R2*
X13572333Y-10234938D02*
X13539000Y-10187319D01*
X13515190Y-10234938D02*
X13515190Y-10134938D01*
X13553286Y-10134938D01*
X13562809Y-10139700D01*
X13567571Y-10144462D01*
X13572333Y-10153986D01*
X13572333Y-10168271D01*
X13567571Y-10177795D01*
X13562809Y-10182557D01*
X13553286Y-10187319D01*
X13515190Y-10187319D01*
X13610428Y-10144462D02*
X13615190Y-10139700D01*
X13624714Y-10134938D01*
X13648524Y-10134938D01*
X13658048Y-10139700D01*
X13662809Y-10144462D01*
X13667571Y-10153986D01*
X13667571Y-10163510D01*
X13662809Y-10177795D01*
X13605667Y-10234938D01*
X13667571Y-10234938D01*
G04 #@! TO.C,SW1*
X12089976Y-12129833D02*
X12094738Y-12115548D01*
X12094738Y-12091738D01*
X12089976Y-12082214D01*
X12085214Y-12077452D01*
X12075690Y-12072690D01*
X12066167Y-12072690D01*
X12056643Y-12077452D01*
X12051881Y-12082214D01*
X12047119Y-12091738D01*
X12042357Y-12110786D01*
X12037595Y-12120309D01*
X12032833Y-12125071D01*
X12023309Y-12129833D01*
X12013786Y-12129833D01*
X12004262Y-12125071D01*
X11999500Y-12120309D01*
X11994738Y-12110786D01*
X11994738Y-12086976D01*
X11999500Y-12072690D01*
X11994738Y-12039357D02*
X12094738Y-12015548D01*
X12023309Y-11996500D01*
X12094738Y-11977452D01*
X11994738Y-11953643D01*
X12094738Y-11863167D02*
X12094738Y-11920309D01*
X12094738Y-11891738D02*
X11994738Y-11891738D01*
X12009024Y-11901262D01*
X12018548Y-11910786D01*
X12023309Y-11920309D01*
G04 #@! TO.C,U1*
X16433809Y-10156038D02*
X16433809Y-10236990D01*
X16438571Y-10246514D01*
X16443333Y-10251276D01*
X16452857Y-10256038D01*
X16471905Y-10256038D01*
X16481428Y-10251276D01*
X16486190Y-10246514D01*
X16490952Y-10236990D01*
X16490952Y-10156038D01*
X16590952Y-10256038D02*
X16533809Y-10256038D01*
X16562381Y-10256038D02*
X16562381Y-10156038D01*
X16552857Y-10170324D01*
X16543333Y-10179848D01*
X16533809Y-10184610D01*
X16269524Y-12264238D02*
X16269524Y-12345190D01*
X16274286Y-12354714D01*
X16279048Y-12359476D01*
X16288571Y-12364238D01*
X16307619Y-12364238D01*
X16317143Y-12359476D01*
X16321905Y-12354714D01*
X16326667Y-12345190D01*
X16326667Y-12264238D01*
X16369524Y-12359476D02*
X16383809Y-12364238D01*
X16407619Y-12364238D01*
X16417143Y-12359476D01*
X16421905Y-12354714D01*
X16426667Y-12345190D01*
X16426667Y-12335667D01*
X16421905Y-12326143D01*
X16417143Y-12321381D01*
X16407619Y-12316619D01*
X16388571Y-12311857D01*
X16379048Y-12307095D01*
X16374286Y-12302333D01*
X16369524Y-12292809D01*
X16369524Y-12283286D01*
X16374286Y-12273762D01*
X16379048Y-12269000D01*
X16388571Y-12264238D01*
X16412381Y-12264238D01*
X16426667Y-12269000D01*
X16502857Y-12311857D02*
X16517143Y-12316619D01*
X16521905Y-12321381D01*
X16526667Y-12330905D01*
X16526667Y-12345190D01*
X16521905Y-12354714D01*
X16517143Y-12359476D01*
X16507619Y-12364238D01*
X16469524Y-12364238D01*
X16469524Y-12264238D01*
X16502857Y-12264238D01*
X16512381Y-12269000D01*
X16517143Y-12273762D01*
X16521905Y-12283286D01*
X16521905Y-12292809D01*
X16517143Y-12302333D01*
X16512381Y-12307095D01*
X16502857Y-12311857D01*
X16469524Y-12311857D01*
X16545714Y-12373762D02*
X16621905Y-12373762D01*
X16645714Y-12364238D02*
X16645714Y-12264238D01*
X16693333Y-12364238D02*
X16693333Y-12264238D01*
X16750476Y-12364238D01*
X16750476Y-12264238D01*
X17325190Y-8427238D02*
X17325190Y-8327238D01*
X17349000Y-8327238D01*
X17363286Y-8332000D01*
X17372810Y-8341524D01*
X17377571Y-8351048D01*
X17382333Y-8370095D01*
X17382333Y-8384381D01*
X17377571Y-8403429D01*
X17372810Y-8412952D01*
X17363286Y-8422476D01*
X17349000Y-8427238D01*
X17325190Y-8427238D01*
X17444238Y-8327238D02*
X17453762Y-8327238D01*
X17463286Y-8332000D01*
X17468048Y-8336762D01*
X17472810Y-8346286D01*
X17477571Y-8365333D01*
X17477571Y-8389143D01*
X17472810Y-8408190D01*
X17468048Y-8417714D01*
X17463286Y-8422476D01*
X17453762Y-8427238D01*
X17444238Y-8427238D01*
X17434714Y-8422476D01*
X17429952Y-8417714D01*
X17425190Y-8408190D01*
X17420429Y-8389143D01*
X17420429Y-8365333D01*
X17425190Y-8346286D01*
X17429952Y-8336762D01*
X17434714Y-8332000D01*
X17444238Y-8327238D01*
X17325190Y-8681238D02*
X17325190Y-8581238D01*
X17349000Y-8581238D01*
X17363286Y-8586000D01*
X17372810Y-8595524D01*
X17377571Y-8605048D01*
X17382333Y-8624095D01*
X17382333Y-8638381D01*
X17377571Y-8657429D01*
X17372810Y-8666952D01*
X17363286Y-8676476D01*
X17349000Y-8681238D01*
X17325190Y-8681238D01*
X17477571Y-8681238D02*
X17420429Y-8681238D01*
X17449000Y-8681238D02*
X17449000Y-8581238D01*
X17439476Y-8595524D01*
X17429952Y-8605048D01*
X17420429Y-8609810D01*
X17325190Y-8935238D02*
X17325190Y-8835238D01*
X17349000Y-8835238D01*
X17363286Y-8840000D01*
X17372810Y-8849524D01*
X17377571Y-8859048D01*
X17382333Y-8878095D01*
X17382333Y-8892381D01*
X17377571Y-8911429D01*
X17372810Y-8920952D01*
X17363286Y-8930476D01*
X17349000Y-8935238D01*
X17325190Y-8935238D01*
X17420429Y-8844762D02*
X17425190Y-8840000D01*
X17434714Y-8835238D01*
X17458524Y-8835238D01*
X17468048Y-8840000D01*
X17472810Y-8844762D01*
X17477571Y-8854286D01*
X17477571Y-8863810D01*
X17472810Y-8878095D01*
X17415667Y-8935238D01*
X17477571Y-8935238D01*
X17325190Y-9189238D02*
X17325190Y-9089238D01*
X17349000Y-9089238D01*
X17363286Y-9094000D01*
X17372810Y-9103524D01*
X17377571Y-9113048D01*
X17382333Y-9132095D01*
X17382333Y-9146381D01*
X17377571Y-9165429D01*
X17372810Y-9174952D01*
X17363286Y-9184476D01*
X17349000Y-9189238D01*
X17325190Y-9189238D01*
X17415667Y-9089238D02*
X17477571Y-9089238D01*
X17444238Y-9127333D01*
X17458524Y-9127333D01*
X17468048Y-9132095D01*
X17472810Y-9136857D01*
X17477571Y-9146381D01*
X17477571Y-9170190D01*
X17472810Y-9179714D01*
X17468048Y-9184476D01*
X17458524Y-9189238D01*
X17429952Y-9189238D01*
X17420429Y-9184476D01*
X17415667Y-9179714D01*
X17325190Y-9443238D02*
X17325190Y-9343238D01*
X17349000Y-9343238D01*
X17363286Y-9348000D01*
X17372810Y-9357524D01*
X17377571Y-9367048D01*
X17382333Y-9386095D01*
X17382333Y-9400381D01*
X17377571Y-9419429D01*
X17372810Y-9428952D01*
X17363286Y-9438476D01*
X17349000Y-9443238D01*
X17325190Y-9443238D01*
X17468048Y-9376571D02*
X17468048Y-9443238D01*
X17444238Y-9338476D02*
X17420429Y-9409905D01*
X17482333Y-9409905D01*
X17325190Y-10205238D02*
X17325190Y-10105238D01*
X17349000Y-10105238D01*
X17363286Y-10110000D01*
X17372810Y-10119524D01*
X17377571Y-10129048D01*
X17382333Y-10148095D01*
X17382333Y-10162381D01*
X17377571Y-10181429D01*
X17372810Y-10190952D01*
X17363286Y-10200476D01*
X17349000Y-10205238D01*
X17325190Y-10205238D01*
X17472810Y-10105238D02*
X17425190Y-10105238D01*
X17420429Y-10152857D01*
X17425190Y-10148095D01*
X17434714Y-10143333D01*
X17458524Y-10143333D01*
X17468048Y-10148095D01*
X17472810Y-10152857D01*
X17477571Y-10162381D01*
X17477571Y-10186190D01*
X17472810Y-10195714D01*
X17468048Y-10200476D01*
X17458524Y-10205238D01*
X17434714Y-10205238D01*
X17425190Y-10200476D01*
X17420429Y-10195714D01*
X17382333Y-11221238D02*
X17349000Y-11173619D01*
X17325190Y-11221238D02*
X17325190Y-11121238D01*
X17363286Y-11121238D01*
X17372810Y-11126000D01*
X17377571Y-11130762D01*
X17382333Y-11140286D01*
X17382333Y-11154571D01*
X17377571Y-11164095D01*
X17372810Y-11168857D01*
X17363286Y-11173619D01*
X17325190Y-11173619D01*
X17415667Y-11121238D02*
X17482333Y-11221238D01*
X17482333Y-11121238D02*
X17415667Y-11221238D01*
X17325190Y-10459238D02*
X17325190Y-10359238D01*
X17349000Y-10359238D01*
X17363286Y-10364000D01*
X17372810Y-10373524D01*
X17377571Y-10383048D01*
X17382333Y-10402095D01*
X17382333Y-10416381D01*
X17377571Y-10435429D01*
X17372810Y-10444952D01*
X17363286Y-10454476D01*
X17349000Y-10459238D01*
X17325190Y-10459238D01*
X17468048Y-10359238D02*
X17449000Y-10359238D01*
X17439476Y-10364000D01*
X17434714Y-10368762D01*
X17425190Y-10383048D01*
X17420429Y-10402095D01*
X17420429Y-10440190D01*
X17425190Y-10449714D01*
X17429952Y-10454476D01*
X17439476Y-10459238D01*
X17458524Y-10459238D01*
X17468048Y-10454476D01*
X17472810Y-10449714D01*
X17477571Y-10440190D01*
X17477571Y-10416381D01*
X17472810Y-10406857D01*
X17468048Y-10402095D01*
X17458524Y-10397333D01*
X17439476Y-10397333D01*
X17429952Y-10402095D01*
X17425190Y-10406857D01*
X17420429Y-10416381D01*
X17325190Y-10713238D02*
X17325190Y-10613238D01*
X17349000Y-10613238D01*
X17363286Y-10618000D01*
X17372810Y-10627524D01*
X17377571Y-10637048D01*
X17382333Y-10656095D01*
X17382333Y-10670381D01*
X17377571Y-10689429D01*
X17372810Y-10698952D01*
X17363286Y-10708476D01*
X17349000Y-10713238D01*
X17325190Y-10713238D01*
X17415667Y-10613238D02*
X17482333Y-10613238D01*
X17439476Y-10713238D01*
X17325190Y-10967238D02*
X17325190Y-10867238D01*
X17349000Y-10867238D01*
X17363286Y-10872000D01*
X17372810Y-10881524D01*
X17377571Y-10891048D01*
X17382333Y-10910095D01*
X17382333Y-10924381D01*
X17377571Y-10943429D01*
X17372810Y-10952952D01*
X17363286Y-10962476D01*
X17349000Y-10967238D01*
X17325190Y-10967238D01*
X17439476Y-10910095D02*
X17429952Y-10905333D01*
X17425190Y-10900571D01*
X17420429Y-10891048D01*
X17420429Y-10886286D01*
X17425190Y-10876762D01*
X17429952Y-10872000D01*
X17439476Y-10867238D01*
X17458524Y-10867238D01*
X17468048Y-10872000D01*
X17472810Y-10876762D01*
X17477571Y-10886286D01*
X17477571Y-10891048D01*
X17472810Y-10900571D01*
X17468048Y-10905333D01*
X17458524Y-10910095D01*
X17439476Y-10910095D01*
X17429952Y-10914857D01*
X17425190Y-10919619D01*
X17420429Y-10929143D01*
X17420429Y-10948190D01*
X17425190Y-10957714D01*
X17429952Y-10962476D01*
X17439476Y-10967238D01*
X17458524Y-10967238D01*
X17468048Y-10962476D01*
X17472810Y-10957714D01*
X17477571Y-10948190D01*
X17477571Y-10929143D01*
X17472810Y-10919619D01*
X17468048Y-10914857D01*
X17458524Y-10910095D01*
X17322810Y-11375238D02*
X17379952Y-11375238D01*
X17351381Y-11475238D02*
X17351381Y-11375238D01*
X17403762Y-11375238D02*
X17470429Y-11475238D01*
X17470429Y-11375238D02*
X17403762Y-11475238D01*
X15511476Y-11883238D02*
X15544809Y-11983238D01*
X15578143Y-11883238D01*
X15611476Y-11983238D02*
X15611476Y-11883238D01*
X15659095Y-11983238D02*
X15659095Y-11883238D01*
X15716238Y-11983238D01*
X15716238Y-11883238D01*
X15544809Y-11634000D02*
X15535286Y-11629238D01*
X15521000Y-11629238D01*
X15506714Y-11634000D01*
X15497190Y-11643524D01*
X15492428Y-11653048D01*
X15487667Y-11672095D01*
X15487667Y-11686381D01*
X15492428Y-11705428D01*
X15497190Y-11714952D01*
X15506714Y-11724476D01*
X15521000Y-11729238D01*
X15530524Y-11729238D01*
X15544809Y-11724476D01*
X15549571Y-11719714D01*
X15549571Y-11686381D01*
X15530524Y-11686381D01*
X15592428Y-11729238D02*
X15592428Y-11629238D01*
X15649571Y-11729238D01*
X15649571Y-11629238D01*
X15697190Y-11729238D02*
X15697190Y-11629238D01*
X15721000Y-11629238D01*
X15735286Y-11634000D01*
X15744809Y-11643524D01*
X15749571Y-11653048D01*
X15754333Y-11672095D01*
X15754333Y-11686381D01*
X15749571Y-11705428D01*
X15744809Y-11714952D01*
X15735286Y-11724476D01*
X15721000Y-11729238D01*
X15697190Y-11729238D01*
X15566238Y-11475238D02*
X15532905Y-11427619D01*
X15509095Y-11475238D02*
X15509095Y-11375238D01*
X15547190Y-11375238D01*
X15556714Y-11380000D01*
X15561476Y-11384762D01*
X15566238Y-11394286D01*
X15566238Y-11408571D01*
X15561476Y-11418095D01*
X15556714Y-11422857D01*
X15547190Y-11427619D01*
X15509095Y-11427619D01*
X15604333Y-11470476D02*
X15618619Y-11475238D01*
X15642428Y-11475238D01*
X15651952Y-11470476D01*
X15656714Y-11465714D01*
X15661476Y-11456190D01*
X15661476Y-11446667D01*
X15656714Y-11437143D01*
X15651952Y-11432381D01*
X15642428Y-11427619D01*
X15623381Y-11422857D01*
X15613857Y-11418095D01*
X15609095Y-11413333D01*
X15604333Y-11403809D01*
X15604333Y-11394286D01*
X15609095Y-11384762D01*
X15613857Y-11380000D01*
X15623381Y-11375238D01*
X15647190Y-11375238D01*
X15661476Y-11380000D01*
X15690048Y-11375238D02*
X15747190Y-11375238D01*
X15718619Y-11475238D02*
X15718619Y-11375238D01*
X15547190Y-11168857D02*
X15580524Y-11168857D01*
X15594809Y-11221238D02*
X15547190Y-11221238D01*
X15547190Y-11121238D01*
X15594809Y-11121238D01*
X15637667Y-11221238D02*
X15637667Y-11121238D01*
X15694809Y-11221238D01*
X15694809Y-11121238D01*
X17275190Y-11883238D02*
X17337095Y-11883238D01*
X17303762Y-11921333D01*
X17318048Y-11921333D01*
X17327571Y-11926095D01*
X17332333Y-11930857D01*
X17337095Y-11940381D01*
X17337095Y-11964190D01*
X17332333Y-11973714D01*
X17327571Y-11978476D01*
X17318048Y-11983238D01*
X17289476Y-11983238D01*
X17279952Y-11978476D01*
X17275190Y-11973714D01*
X17365667Y-11883238D02*
X17399000Y-11983238D01*
X17432333Y-11883238D01*
X17456143Y-11883238D02*
X17518048Y-11883238D01*
X17484714Y-11921333D01*
X17499000Y-11921333D01*
X17508524Y-11926095D01*
X17513286Y-11930857D01*
X17518048Y-11940381D01*
X17518048Y-11964190D01*
X17513286Y-11973714D01*
X17508524Y-11978476D01*
X17499000Y-11983238D01*
X17470429Y-11983238D01*
X17460905Y-11978476D01*
X17456143Y-11973714D01*
X17275190Y-9597238D02*
X17337095Y-9597238D01*
X17303762Y-9635333D01*
X17318048Y-9635333D01*
X17327571Y-9640095D01*
X17332333Y-9644857D01*
X17337095Y-9654381D01*
X17337095Y-9678190D01*
X17332333Y-9687714D01*
X17327571Y-9692476D01*
X17318048Y-9697238D01*
X17289476Y-9697238D01*
X17279952Y-9692476D01*
X17275190Y-9687714D01*
X17365667Y-9597238D02*
X17399000Y-9697238D01*
X17432333Y-9597238D01*
X17456143Y-9597238D02*
X17518048Y-9597238D01*
X17484714Y-9635333D01*
X17499000Y-9635333D01*
X17508524Y-9640095D01*
X17513286Y-9644857D01*
X17518048Y-9654381D01*
X17518048Y-9678190D01*
X17513286Y-9687714D01*
X17508524Y-9692476D01*
X17499000Y-9697238D01*
X17470429Y-9697238D01*
X17460905Y-9692476D01*
X17456143Y-9687714D01*
X15497190Y-10867238D02*
X15559095Y-10867238D01*
X15525762Y-10905333D01*
X15540048Y-10905333D01*
X15549571Y-10910095D01*
X15554333Y-10914857D01*
X15559095Y-10924381D01*
X15559095Y-10948190D01*
X15554333Y-10957714D01*
X15549571Y-10962476D01*
X15540048Y-10967238D01*
X15511476Y-10967238D01*
X15501952Y-10962476D01*
X15497190Y-10957714D01*
X15587667Y-10867238D02*
X15621000Y-10967238D01*
X15654333Y-10867238D01*
X15678143Y-10867238D02*
X15740048Y-10867238D01*
X15706714Y-10905333D01*
X15721000Y-10905333D01*
X15730524Y-10910095D01*
X15735286Y-10914857D01*
X15740048Y-10924381D01*
X15740048Y-10948190D01*
X15735286Y-10957714D01*
X15730524Y-10962476D01*
X15721000Y-10967238D01*
X15692428Y-10967238D01*
X15682905Y-10962476D01*
X15678143Y-10957714D01*
X17322810Y-9856000D02*
X17313286Y-9851238D01*
X17299000Y-9851238D01*
X17284714Y-9856000D01*
X17275190Y-9865524D01*
X17270429Y-9875048D01*
X17265667Y-9894095D01*
X17265667Y-9908381D01*
X17270429Y-9927429D01*
X17275190Y-9936952D01*
X17284714Y-9946476D01*
X17299000Y-9951238D01*
X17308524Y-9951238D01*
X17322810Y-9946476D01*
X17327571Y-9941714D01*
X17327571Y-9908381D01*
X17308524Y-9908381D01*
X17370429Y-9951238D02*
X17370429Y-9851238D01*
X17427571Y-9951238D01*
X17427571Y-9851238D01*
X17475190Y-9951238D02*
X17475190Y-9851238D01*
X17499000Y-9851238D01*
X17513286Y-9856000D01*
X17522810Y-9865524D01*
X17527571Y-9875048D01*
X17532333Y-9894095D01*
X17532333Y-9908381D01*
X17527571Y-9927429D01*
X17522810Y-9936952D01*
X17513286Y-9946476D01*
X17499000Y-9951238D01*
X17475190Y-9951238D01*
X17322810Y-11634000D02*
X17313286Y-11629238D01*
X17299000Y-11629238D01*
X17284714Y-11634000D01*
X17275190Y-11643524D01*
X17270429Y-11653048D01*
X17265667Y-11672095D01*
X17265667Y-11686381D01*
X17270429Y-11705428D01*
X17275190Y-11714952D01*
X17284714Y-11724476D01*
X17299000Y-11729238D01*
X17308524Y-11729238D01*
X17322810Y-11724476D01*
X17327571Y-11719714D01*
X17327571Y-11686381D01*
X17308524Y-11686381D01*
X17370429Y-11729238D02*
X17370429Y-11629238D01*
X17427571Y-11729238D01*
X17427571Y-11629238D01*
X17475190Y-11729238D02*
X17475190Y-11629238D01*
X17499000Y-11629238D01*
X17513286Y-11634000D01*
X17522810Y-11643524D01*
X17527571Y-11653048D01*
X17532333Y-11672095D01*
X17532333Y-11686381D01*
X17527571Y-11705428D01*
X17522810Y-11714952D01*
X17513286Y-11724476D01*
X17499000Y-11729238D01*
X17475190Y-11729238D01*
X15544809Y-10618000D02*
X15535286Y-10613238D01*
X15521000Y-10613238D01*
X15506714Y-10618000D01*
X15497190Y-10627524D01*
X15492428Y-10637048D01*
X15487667Y-10656095D01*
X15487667Y-10670381D01*
X15492428Y-10689429D01*
X15497190Y-10698952D01*
X15506714Y-10708476D01*
X15521000Y-10713238D01*
X15530524Y-10713238D01*
X15544809Y-10708476D01*
X15549571Y-10703714D01*
X15549571Y-10670381D01*
X15530524Y-10670381D01*
X15592428Y-10713238D02*
X15592428Y-10613238D01*
X15649571Y-10713238D01*
X15649571Y-10613238D01*
X15697190Y-10713238D02*
X15697190Y-10613238D01*
X15721000Y-10613238D01*
X15735286Y-10618000D01*
X15744809Y-10627524D01*
X15749571Y-10637048D01*
X15754333Y-10656095D01*
X15754333Y-10670381D01*
X15749571Y-10689429D01*
X15744809Y-10698952D01*
X15735286Y-10708476D01*
X15721000Y-10713238D01*
X15697190Y-10713238D01*
X15561476Y-10449714D02*
X15556714Y-10454476D01*
X15542428Y-10459238D01*
X15532905Y-10459238D01*
X15518619Y-10454476D01*
X15509095Y-10444952D01*
X15504333Y-10435429D01*
X15499571Y-10416381D01*
X15499571Y-10402095D01*
X15504333Y-10383048D01*
X15509095Y-10373524D01*
X15518619Y-10364000D01*
X15532905Y-10359238D01*
X15542428Y-10359238D01*
X15556714Y-10364000D01*
X15561476Y-10368762D01*
X15651952Y-10459238D02*
X15604333Y-10459238D01*
X15604333Y-10359238D01*
X15685286Y-10459238D02*
X15685286Y-10359238D01*
X15742428Y-10459238D02*
X15699571Y-10402095D01*
X15742428Y-10359238D02*
X15685286Y-10416381D01*
X15490048Y-10200476D02*
X15504333Y-10205238D01*
X15528143Y-10205238D01*
X15537667Y-10200476D01*
X15542428Y-10195714D01*
X15547190Y-10186190D01*
X15547190Y-10176667D01*
X15542428Y-10167143D01*
X15537667Y-10162381D01*
X15528143Y-10157619D01*
X15509095Y-10152857D01*
X15499571Y-10148095D01*
X15494809Y-10143333D01*
X15490048Y-10133810D01*
X15490048Y-10124286D01*
X15494809Y-10114762D01*
X15499571Y-10110000D01*
X15509095Y-10105238D01*
X15532905Y-10105238D01*
X15547190Y-10110000D01*
X15590048Y-10205238D02*
X15590048Y-10105238D01*
X15613857Y-10105238D01*
X15628143Y-10110000D01*
X15637667Y-10119524D01*
X15642428Y-10129048D01*
X15647190Y-10148095D01*
X15647190Y-10162381D01*
X15642428Y-10181429D01*
X15637667Y-10190952D01*
X15628143Y-10200476D01*
X15613857Y-10205238D01*
X15590048Y-10205238D01*
X15709095Y-10105238D02*
X15728143Y-10105238D01*
X15737667Y-10110000D01*
X15747190Y-10119524D01*
X15751952Y-10138571D01*
X15751952Y-10171905D01*
X15747190Y-10190952D01*
X15737667Y-10200476D01*
X15728143Y-10205238D01*
X15709095Y-10205238D01*
X15699571Y-10200476D01*
X15690048Y-10190952D01*
X15685286Y-10171905D01*
X15685286Y-10138571D01*
X15690048Y-10119524D01*
X15699571Y-10110000D01*
X15709095Y-10105238D01*
X15544809Y-9941714D02*
X15540048Y-9946476D01*
X15525762Y-9951238D01*
X15516238Y-9951238D01*
X15501952Y-9946476D01*
X15492428Y-9936952D01*
X15487667Y-9927429D01*
X15482905Y-9908381D01*
X15482905Y-9894095D01*
X15487667Y-9875048D01*
X15492428Y-9865524D01*
X15501952Y-9856000D01*
X15516238Y-9851238D01*
X15525762Y-9851238D01*
X15540048Y-9856000D01*
X15544809Y-9860762D01*
X15587667Y-9951238D02*
X15587667Y-9851238D01*
X15621000Y-9922667D01*
X15654333Y-9851238D01*
X15654333Y-9951238D01*
X15701952Y-9951238D02*
X15701952Y-9851238D01*
X15725762Y-9851238D01*
X15740048Y-9856000D01*
X15749571Y-9865524D01*
X15754333Y-9875048D01*
X15759095Y-9894095D01*
X15759095Y-9908381D01*
X15754333Y-9927429D01*
X15749571Y-9936952D01*
X15740048Y-9946476D01*
X15725762Y-9951238D01*
X15701952Y-9951238D01*
X15494809Y-9692476D02*
X15509095Y-9697238D01*
X15532905Y-9697238D01*
X15542428Y-9692476D01*
X15547190Y-9687714D01*
X15551952Y-9678190D01*
X15551952Y-9668667D01*
X15547190Y-9659143D01*
X15542428Y-9654381D01*
X15532905Y-9649619D01*
X15513857Y-9644857D01*
X15504333Y-9640095D01*
X15499571Y-9635333D01*
X15494809Y-9625810D01*
X15494809Y-9616286D01*
X15499571Y-9606762D01*
X15504333Y-9602000D01*
X15513857Y-9597238D01*
X15537667Y-9597238D01*
X15551952Y-9602000D01*
X15594809Y-9697238D02*
X15594809Y-9597238D01*
X15618619Y-9597238D01*
X15632905Y-9602000D01*
X15642428Y-9611524D01*
X15647190Y-9621048D01*
X15651952Y-9640095D01*
X15651952Y-9654381D01*
X15647190Y-9673429D01*
X15642428Y-9682952D01*
X15632905Y-9692476D01*
X15618619Y-9697238D01*
X15594809Y-9697238D01*
X15747190Y-9697238D02*
X15690048Y-9697238D01*
X15718619Y-9697238D02*
X15718619Y-9597238D01*
X15709095Y-9611524D01*
X15699571Y-9621048D01*
X15690048Y-9625810D01*
X15494809Y-9438476D02*
X15509095Y-9443238D01*
X15532905Y-9443238D01*
X15542428Y-9438476D01*
X15547190Y-9433714D01*
X15551952Y-9424190D01*
X15551952Y-9414667D01*
X15547190Y-9405143D01*
X15542428Y-9400381D01*
X15532905Y-9395619D01*
X15513857Y-9390857D01*
X15504333Y-9386095D01*
X15499571Y-9381333D01*
X15494809Y-9371810D01*
X15494809Y-9362286D01*
X15499571Y-9352762D01*
X15504333Y-9348000D01*
X15513857Y-9343238D01*
X15537667Y-9343238D01*
X15551952Y-9348000D01*
X15594809Y-9443238D02*
X15594809Y-9343238D01*
X15618619Y-9343238D01*
X15632905Y-9348000D01*
X15642428Y-9357524D01*
X15647190Y-9367048D01*
X15651952Y-9386095D01*
X15651952Y-9400381D01*
X15647190Y-9419429D01*
X15642428Y-9428952D01*
X15632905Y-9438476D01*
X15618619Y-9443238D01*
X15594809Y-9443238D01*
X15690048Y-9352762D02*
X15694809Y-9348000D01*
X15704333Y-9343238D01*
X15728143Y-9343238D01*
X15737667Y-9348000D01*
X15742428Y-9352762D01*
X15747190Y-9362286D01*
X15747190Y-9371810D01*
X15742428Y-9386095D01*
X15685286Y-9443238D01*
X15747190Y-9443238D01*
X15561476Y-8935238D02*
X15528143Y-8887619D01*
X15504333Y-8935238D02*
X15504333Y-8835238D01*
X15542428Y-8835238D01*
X15551952Y-8840000D01*
X15556714Y-8844762D01*
X15561476Y-8854286D01*
X15561476Y-8868571D01*
X15556714Y-8878095D01*
X15551952Y-8882857D01*
X15542428Y-8887619D01*
X15504333Y-8887619D01*
X15599571Y-8930476D02*
X15613857Y-8935238D01*
X15637667Y-8935238D01*
X15647190Y-8930476D01*
X15651952Y-8925714D01*
X15656714Y-8916190D01*
X15656714Y-8906667D01*
X15651952Y-8897143D01*
X15647190Y-8892381D01*
X15637667Y-8887619D01*
X15618619Y-8882857D01*
X15609095Y-8878095D01*
X15604333Y-8873333D01*
X15599571Y-8863810D01*
X15599571Y-8854286D01*
X15604333Y-8844762D01*
X15609095Y-8840000D01*
X15618619Y-8835238D01*
X15642428Y-8835238D01*
X15656714Y-8840000D01*
X15685286Y-8835238D02*
X15718619Y-8935238D01*
X15751952Y-8835238D01*
X15494809Y-9184476D02*
X15509095Y-9189238D01*
X15532905Y-9189238D01*
X15542428Y-9184476D01*
X15547190Y-9179714D01*
X15551952Y-9170190D01*
X15551952Y-9160667D01*
X15547190Y-9151143D01*
X15542428Y-9146381D01*
X15532905Y-9141619D01*
X15513857Y-9136857D01*
X15504333Y-9132095D01*
X15499571Y-9127333D01*
X15494809Y-9117810D01*
X15494809Y-9108286D01*
X15499571Y-9098762D01*
X15504333Y-9094000D01*
X15513857Y-9089238D01*
X15537667Y-9089238D01*
X15551952Y-9094000D01*
X15594809Y-9189238D02*
X15594809Y-9089238D01*
X15618619Y-9089238D01*
X15632905Y-9094000D01*
X15642428Y-9103524D01*
X15647190Y-9113048D01*
X15651952Y-9132095D01*
X15651952Y-9146381D01*
X15647190Y-9165429D01*
X15642428Y-9174952D01*
X15632905Y-9184476D01*
X15618619Y-9189238D01*
X15594809Y-9189238D01*
X15685286Y-9089238D02*
X15747190Y-9089238D01*
X15713857Y-9127333D01*
X15728143Y-9127333D01*
X15737667Y-9132095D01*
X15742428Y-9136857D01*
X15747190Y-9146381D01*
X15747190Y-9170190D01*
X15742428Y-9179714D01*
X15737667Y-9184476D01*
X15728143Y-9189238D01*
X15699571Y-9189238D01*
X15690048Y-9184476D01*
X15685286Y-9179714D01*
X15561476Y-8681238D02*
X15528143Y-8633619D01*
X15504333Y-8681238D02*
X15504333Y-8581238D01*
X15542428Y-8581238D01*
X15551952Y-8586000D01*
X15556714Y-8590762D01*
X15561476Y-8600286D01*
X15561476Y-8614571D01*
X15556714Y-8624095D01*
X15551952Y-8628857D01*
X15542428Y-8633619D01*
X15504333Y-8633619D01*
X15599571Y-8676476D02*
X15613857Y-8681238D01*
X15637667Y-8681238D01*
X15647190Y-8676476D01*
X15651952Y-8671714D01*
X15656714Y-8662190D01*
X15656714Y-8652667D01*
X15651952Y-8643143D01*
X15647190Y-8638381D01*
X15637667Y-8633619D01*
X15618619Y-8628857D01*
X15609095Y-8624095D01*
X15604333Y-8619333D01*
X15599571Y-8609810D01*
X15599571Y-8600286D01*
X15604333Y-8590762D01*
X15609095Y-8586000D01*
X15618619Y-8581238D01*
X15642428Y-8581238D01*
X15656714Y-8586000D01*
X15685286Y-8581238D02*
X15718619Y-8681238D01*
X15751952Y-8581238D01*
X15549571Y-8398667D02*
X15597190Y-8398667D01*
X15540048Y-8427238D02*
X15573381Y-8327238D01*
X15606714Y-8427238D01*
X15659095Y-8327238D02*
X15668619Y-8327238D01*
X15678143Y-8332000D01*
X15682905Y-8336762D01*
X15687667Y-8346286D01*
X15692428Y-8365333D01*
X15692428Y-8389143D01*
X15687667Y-8408190D01*
X15682905Y-8417714D01*
X15678143Y-8422476D01*
X15668619Y-8427238D01*
X15659095Y-8427238D01*
X15649571Y-8422476D01*
X15644809Y-8417714D01*
X15640048Y-8408190D01*
X15635286Y-8389143D01*
X15635286Y-8365333D01*
X15640048Y-8346286D01*
X15644809Y-8336762D01*
X15649571Y-8332000D01*
X15659095Y-8327238D01*
G04 #@! TO.C,C1*
X11728833Y-9896914D02*
X11724071Y-9901676D01*
X11709786Y-9906438D01*
X11700262Y-9906438D01*
X11685976Y-9901676D01*
X11676452Y-9892152D01*
X11671690Y-9882629D01*
X11666928Y-9863581D01*
X11666928Y-9849295D01*
X11671690Y-9830248D01*
X11676452Y-9820724D01*
X11685976Y-9811200D01*
X11700262Y-9806438D01*
X11709786Y-9806438D01*
X11724071Y-9811200D01*
X11728833Y-9815962D01*
X11824071Y-9906438D02*
X11766928Y-9906438D01*
X11795500Y-9906438D02*
X11795500Y-9806438D01*
X11785976Y-9820724D01*
X11776452Y-9830248D01*
X11766928Y-9835010D01*
G04 #@! TO.C,C2*
X11728833Y-10582714D02*
X11724071Y-10587476D01*
X11709786Y-10592238D01*
X11700262Y-10592238D01*
X11685976Y-10587476D01*
X11676452Y-10577952D01*
X11671690Y-10568429D01*
X11666928Y-10549381D01*
X11666928Y-10535095D01*
X11671690Y-10516048D01*
X11676452Y-10506524D01*
X11685976Y-10497000D01*
X11700262Y-10492238D01*
X11709786Y-10492238D01*
X11724071Y-10497000D01*
X11728833Y-10501762D01*
X11766928Y-10501762D02*
X11771690Y-10497000D01*
X11781214Y-10492238D01*
X11805024Y-10492238D01*
X11814548Y-10497000D01*
X11819309Y-10501762D01*
X11824071Y-10511286D01*
X11824071Y-10520810D01*
X11819309Y-10535095D01*
X11762167Y-10592238D01*
X11824071Y-10592238D01*
G04 #@! TO.C,U2*
X13525509Y-11210138D02*
X13525509Y-11291090D01*
X13530271Y-11300614D01*
X13535033Y-11305376D01*
X13544557Y-11310138D01*
X13563605Y-11310138D01*
X13573128Y-11305376D01*
X13577890Y-11300614D01*
X13582652Y-11291090D01*
X13582652Y-11210138D01*
X13625509Y-11219662D02*
X13630271Y-11214900D01*
X13639795Y-11210138D01*
X13663605Y-11210138D01*
X13673128Y-11214900D01*
X13677890Y-11219662D01*
X13682652Y-11229186D01*
X13682652Y-11238709D01*
X13677890Y-11252995D01*
X13620748Y-11310138D01*
X13682652Y-11310138D01*
G04 #@! TD*
M02*
