G04 #@! TF.GenerationSoftware,KiCad,Pcbnew,5.0.2-bee76a0~70~ubuntu18.04.1*
G04 #@! TF.CreationDate,2019-03-11T12:10:11+07:00*
G04 #@! TF.ProjectId,TestNodeMcu,54657374-4e6f-4646-954d-63752e6b6963,rev?*
G04 #@! TF.SameCoordinates,Original*
G04 #@! TF.FileFunction,Copper,L2,Bot*
G04 #@! TF.FilePolarity,Positive*
%FSLAX45Y45*%
G04 Gerber Fmt 4.5, Leading zero omitted, Abs format (unit mm)*
G04 Created by KiCad (PCBNEW 5.0.2-bee76a0~70~ubuntu18.04.1) date Thứ hai, 11 Tháng 3 Năm 2019 12:10:11 +07*
%MOMM*%
%LPD*%
G01*
G04 APERTURE LIST*
G04 #@! TA.AperFunction,ComponentPad*
%ADD10R,1.524000X1.524000*%
G04 #@! TD*
G04 #@! TA.AperFunction,ComponentPad*
%ADD11C,1.524000*%
G04 #@! TD*
G04 #@! TA.AperFunction,ComponentPad*
%ADD12R,1.800000X1.800000*%
G04 #@! TD*
G04 #@! TA.AperFunction,ComponentPad*
%ADD13C,1.800000*%
G04 #@! TD*
G04 #@! TA.AperFunction,ComponentPad*
%ADD14C,1.600000*%
G04 #@! TD*
G04 #@! TA.AperFunction,ComponentPad*
%ADD15O,1.600000X1.600000*%
G04 #@! TD*
G04 #@! TA.AperFunction,ComponentPad*
%ADD16C,1.900000*%
G04 #@! TD*
G04 #@! TA.AperFunction,ComponentPad*
%ADD17R,1.900000X1.900000*%
G04 #@! TD*
G04 #@! TA.AperFunction,ComponentPad*
%ADD18R,1.600000X1.600000*%
G04 #@! TD*
G04 #@! TA.AperFunction,Conductor*
%ADD19C,0.508000*%
G04 #@! TD*
G04 #@! TA.AperFunction,Conductor*
%ADD20C,0.254000*%
G04 #@! TD*
G04 APERTURE END LIST*
D10*
G04 #@! TO.P,BT1,1*
G04 #@! TO.N,/Vin*
X14986000Y-8636000D03*
D11*
G04 #@! TO.P,BT1,2*
G04 #@! TO.N,/GND*
X14986000Y-8890000D03*
G04 #@! TD*
D12*
G04 #@! TO.P,D1,1*
G04 #@! TO.N,/GND*
X12446000Y-10236200D03*
D13*
G04 #@! TO.P,D1,2*
G04 #@! TO.N,Net-(D1-Pad2)*
X12700000Y-10236200D03*
G04 #@! TD*
G04 #@! TO.P,D2,2*
G04 #@! TO.N,Net-(D2-Pad2)*
X14732000Y-10236200D03*
D12*
G04 #@! TO.P,D2,1*
G04 #@! TO.N,/GND*
X14478000Y-10236200D03*
G04 #@! TD*
D14*
G04 #@! TO.P,R1,1*
G04 #@! TO.N,/Vin*
X13970000Y-10058400D03*
D15*
G04 #@! TO.P,R1,2*
G04 #@! TO.N,Net-(D1-Pad2)*
X13208000Y-10058400D03*
G04 #@! TD*
G04 #@! TO.P,R2,2*
G04 #@! TO.N,Net-(D2-Pad2)*
X13970000Y-10426700D03*
D14*
G04 #@! TO.P,R2,1*
G04 #@! TO.N,/3V3*
X13208000Y-10426700D03*
G04 #@! TD*
D16*
G04 #@! TO.P,SW1,3*
G04 #@! TO.N,Net-(SW1-Pad3)*
X11747500Y-12247500D03*
G04 #@! TO.P,SW1,2*
G04 #@! TO.N,/Vin*
X11747500Y-11997500D03*
D17*
G04 #@! TO.P,SW1,1*
G04 #@! TO.N,/3V3*
X11747500Y-11747500D03*
G04 #@! TD*
D11*
G04 #@! TO.P,U1,30*
G04 #@! TO.N,Net-(U1-Pad30)*
X17653000Y-8382000D03*
G04 #@! TO.P,U1,29*
G04 #@! TO.N,Net-(U1-Pad29)*
X17653000Y-8636000D03*
G04 #@! TO.P,U1,28*
G04 #@! TO.N,Net-(U1-Pad28)*
X17653000Y-8890000D03*
G04 #@! TO.P,U1,27*
G04 #@! TO.N,Net-(U1-Pad27)*
X17653000Y-9144000D03*
G04 #@! TO.P,U1,26*
G04 #@! TO.N,Net-(U1-Pad26)*
X17653000Y-9398000D03*
G04 #@! TO.P,U1,25*
G04 #@! TO.N,/3V3*
X17653000Y-9652000D03*
D10*
G04 #@! TO.P,U1,24*
G04 #@! TO.N,/GND*
X17653000Y-9906000D03*
D11*
G04 #@! TO.P,U1,23*
G04 #@! TO.N,Net-(U1-Pad23)*
X17653000Y-10160000D03*
G04 #@! TO.P,U1,22*
G04 #@! TO.N,Net-(U1-Pad22)*
X17653000Y-10414000D03*
G04 #@! TO.P,U1,21*
G04 #@! TO.N,Net-(U1-Pad21)*
X17653000Y-10668000D03*
G04 #@! TO.P,U1,20*
G04 #@! TO.N,Net-(U1-Pad20)*
X17653000Y-10922000D03*
G04 #@! TO.P,U1,19*
G04 #@! TO.N,Net-(U1-Pad19)*
X17653000Y-11176000D03*
G04 #@! TO.P,U1,18*
G04 #@! TO.N,Net-(U1-Pad18)*
X17653000Y-11430000D03*
D10*
G04 #@! TO.P,U1,17*
G04 #@! TO.N,/GND*
X17653000Y-11684000D03*
D11*
G04 #@! TO.P,U1,16*
G04 #@! TO.N,/3V3*
X17653000Y-11938000D03*
G04 #@! TO.P,U1,15*
G04 #@! TO.N,Net-(U1-Pad15)*
X15367000Y-11938000D03*
D10*
G04 #@! TO.P,U1,14*
G04 #@! TO.N,/GND*
X15367000Y-11684000D03*
D11*
G04 #@! TO.P,U1,13*
G04 #@! TO.N,Net-(U1-Pad13)*
X15367000Y-11430000D03*
G04 #@! TO.P,U1,12*
G04 #@! TO.N,Net-(U1-Pad12)*
X15367000Y-11176000D03*
G04 #@! TO.P,U1,11*
G04 #@! TO.N,/3V3*
X15367000Y-10922000D03*
D10*
G04 #@! TO.P,U1,10*
G04 #@! TO.N,/GND*
X15367000Y-10668000D03*
D11*
G04 #@! TO.P,U1,9*
G04 #@! TO.N,Net-(U1-Pad9)*
X15367000Y-10414000D03*
G04 #@! TO.P,U1,8*
G04 #@! TO.N,Net-(U1-Pad8)*
X15367000Y-10160000D03*
G04 #@! TO.P,U1,7*
G04 #@! TO.N,Net-(U1-Pad7)*
X15367000Y-9906000D03*
G04 #@! TO.P,U1,6*
G04 #@! TO.N,Net-(U1-Pad6)*
X15367000Y-9652000D03*
G04 #@! TO.P,U1,5*
G04 #@! TO.N,Net-(U1-Pad5)*
X15367000Y-9398000D03*
G04 #@! TO.P,U1,4*
G04 #@! TO.N,Net-(U1-Pad4)*
X15367000Y-9144000D03*
G04 #@! TO.P,U1,3*
G04 #@! TO.N,Net-(U1-Pad3)*
X15367000Y-8890000D03*
G04 #@! TO.P,U1,2*
G04 #@! TO.N,Net-(U1-Pad2)*
X15367000Y-8636000D03*
G04 #@! TO.P,U1,1*
G04 #@! TO.N,Net-(U1-Pad1)*
X15367000Y-8382000D03*
G04 #@! TD*
D18*
G04 #@! TO.P,C1,1*
G04 #@! TO.N,/Vin*
X11620500Y-10236200D03*
D14*
G04 #@! TO.P,C1,2*
G04 #@! TO.N,/GND*
X11870500Y-10236200D03*
G04 #@! TD*
G04 #@! TO.P,C2,2*
G04 #@! TO.N,/GND*
X11870500Y-10922000D03*
D18*
G04 #@! TO.P,C2,1*
G04 #@! TO.N,/3V3*
X11620500Y-10922000D03*
G04 #@! TD*
D10*
G04 #@! TO.P,U2,10*
G04 #@! TO.N,Net-(U2-Pad10)*
X14795500Y-10858500D03*
D11*
G04 #@! TO.P,U2,9*
G04 #@! TO.N,/3V3*
X14795500Y-11112500D03*
G04 #@! TO.P,U2,8*
G04 #@! TO.N,/GND*
X14795500Y-11366500D03*
G04 #@! TO.P,U2,7*
G04 #@! TO.N,Net-(U2-Pad7)*
X14795500Y-11620500D03*
G04 #@! TO.P,U2,6*
G04 #@! TO.N,/3V3*
X14795500Y-11874500D03*
G04 #@! TO.P,U2,5*
G04 #@! TO.N,Net-(U2-Pad5)*
X12382500Y-11874500D03*
G04 #@! TO.P,U2,4*
G04 #@! TO.N,Net-(U2-Pad4)*
X12382500Y-11620500D03*
G04 #@! TO.P,U2,3*
G04 #@! TO.N,Net-(U2-Pad3)*
X12382500Y-11366500D03*
G04 #@! TO.P,U2,2*
G04 #@! TO.N,Net-(U1-Pad28)*
X12382500Y-11112500D03*
D10*
G04 #@! TO.P,U2,1*
G04 #@! TO.N,Net-(U1-Pad29)*
X12382500Y-10858500D03*
G04 #@! TD*
D19*
G04 #@! TO.N,/GND*
X14478000Y-9144000D02*
X14478000Y-10236200D01*
X14986000Y-8890000D02*
X14732000Y-8890000D01*
X14732000Y-8890000D02*
X14478000Y-9144000D01*
X14986000Y-8890000D02*
X15049500Y-8953500D01*
X15049500Y-8953500D02*
X15049500Y-10350500D01*
X15240000Y-10541000D02*
X15367000Y-10668000D01*
X15049500Y-10350500D02*
X15240000Y-10541000D01*
X11870500Y-10236200D02*
X12446000Y-10236200D01*
X11870500Y-10349337D02*
X11870500Y-10922000D01*
X11870500Y-10236200D02*
X11870500Y-10349337D01*
X15049500Y-11366500D02*
X15367000Y-11684000D01*
X14795500Y-11366500D02*
X15049500Y-11366500D01*
X15494000Y-11236960D02*
X15494000Y-10795000D01*
X15427960Y-11303000D02*
X15494000Y-11236960D01*
X15049500Y-11366500D02*
X15113000Y-11303000D01*
X15113000Y-11303000D02*
X15427960Y-11303000D01*
X15494000Y-10795000D02*
X15367000Y-10668000D01*
G04 #@! TO.N,/Vin*
X14351000Y-8636000D02*
X14986000Y-8636000D01*
X13970000Y-10058400D02*
X13970000Y-9017000D01*
X13970000Y-9017000D02*
X14351000Y-8636000D01*
X11938000Y-9017000D02*
X13970000Y-9017000D01*
X11620500Y-10236200D02*
X11620500Y-9334500D01*
X11620500Y-9334500D02*
X11938000Y-9017000D01*
X11716060Y-11997500D02*
X11747500Y-11997500D01*
X11601700Y-11883140D02*
X11716060Y-11997500D01*
X11601700Y-11611860D02*
X11601700Y-11883140D01*
X11671299Y-11542261D02*
X11601700Y-11611860D01*
X11671299Y-11080563D02*
X11671299Y-11542261D01*
X11643536Y-11052800D02*
X11671299Y-11080563D01*
X11499860Y-11052800D02*
X11643536Y-11052800D01*
X11480800Y-11033740D02*
X11489700Y-11042640D01*
X11480800Y-10807700D02*
X11480800Y-11033740D01*
X11620500Y-10236200D02*
X11620500Y-10668000D01*
X11620500Y-10668000D02*
X11480800Y-10807700D01*
G04 #@! TO.N,/3V3*
X13208000Y-10426700D02*
X13893800Y-11112500D01*
X14795500Y-11874500D02*
X14033500Y-11112500D01*
X13893800Y-11112500D02*
X14033500Y-11112500D01*
X14033500Y-11112500D02*
X14795500Y-11112500D01*
X11747500Y-11049000D02*
X11747500Y-11747500D01*
X11620500Y-10922000D02*
X11747500Y-11049000D01*
X11747500Y-11061700D02*
X11747500Y-11747500D01*
X11925300Y-11061700D02*
X11747500Y-11061700D01*
X12128500Y-10858500D02*
X11925300Y-11061700D01*
X12128500Y-10604500D02*
X12128500Y-10858500D01*
X13208000Y-10426700D02*
X12306300Y-10426700D01*
X12306300Y-10426700D02*
X12128500Y-10604500D01*
X14986000Y-10922000D02*
X14795500Y-11112500D01*
X15367000Y-10922000D02*
X14986000Y-10922000D01*
D20*
G04 #@! TO.N,Net-(D1-Pad2)*
X13030200Y-10236200D02*
X13208000Y-10058400D01*
X12700000Y-10236200D02*
X13030200Y-10236200D01*
G04 #@! TO.N,Net-(D2-Pad2)*
X14541500Y-10426700D02*
X14732000Y-10236200D01*
X13970000Y-10426700D02*
X14541500Y-10426700D01*
G04 #@! TO.N,Net-(U1-Pad28)*
X17576800Y-8966200D02*
X17653000Y-8890000D01*
X17538700Y-9004300D02*
X17576800Y-8966200D01*
X12496800Y-11226800D02*
X12496800Y-11976100D01*
X12382500Y-11112500D02*
X12496800Y-11226800D01*
X12496800Y-11976100D02*
X12573000Y-12052300D01*
X12573000Y-12052300D02*
X15421864Y-12052300D01*
X15421864Y-12052300D02*
X17538700Y-9935464D01*
X17538700Y-9935464D02*
X17538700Y-9004300D01*
G04 #@! TO.N,Net-(U1-Pad29)*
X17759680Y-10020300D02*
X17767300Y-10012680D01*
X12382500Y-10858500D02*
X12268200Y-10972800D01*
X17729200Y-8712200D02*
X17653000Y-8636000D01*
X12547601Y-12103101D02*
X15481299Y-12103101D01*
X17767300Y-10012680D02*
X17767300Y-8750300D01*
X12327636Y-11988800D02*
X12433300Y-11988800D01*
X15481299Y-12103101D02*
X17564100Y-10020300D01*
X17564100Y-10020300D02*
X17759680Y-10020300D01*
X17767300Y-8750300D02*
X17729200Y-8712200D01*
X12433300Y-11988800D02*
X12547601Y-12103101D01*
X12268200Y-10972800D02*
X12268200Y-11929364D01*
X12268200Y-11929364D02*
X12327636Y-11988800D01*
G04 #@! TD*
G04 #@! TO.N,/GND*
G36*
X17836000Y-8715961D02*
X17822237Y-8695363D01*
X17815875Y-8691112D01*
X17791485Y-8666722D01*
X17792700Y-8663788D01*
X17792700Y-8608212D01*
X17771432Y-8556866D01*
X17732134Y-8517568D01*
X17711449Y-8509000D01*
X17732134Y-8500432D01*
X17771432Y-8461134D01*
X17792700Y-8409788D01*
X17792700Y-8354212D01*
X17771432Y-8302866D01*
X17732134Y-8263568D01*
X17680788Y-8242300D01*
X17625212Y-8242300D01*
X17573866Y-8263568D01*
X17534568Y-8302866D01*
X17513300Y-8354212D01*
X17513300Y-8409788D01*
X17534568Y-8461134D01*
X17573866Y-8500432D01*
X17594551Y-8509000D01*
X17573866Y-8517568D01*
X17534568Y-8556866D01*
X17513300Y-8608212D01*
X17513300Y-8663788D01*
X17534568Y-8715134D01*
X17573866Y-8754432D01*
X17594551Y-8763000D01*
X17573866Y-8771568D01*
X17534568Y-8810866D01*
X17513300Y-8862212D01*
X17513300Y-8917788D01*
X17514515Y-8920722D01*
X17490125Y-8945112D01*
X17483763Y-8949363D01*
X17479512Y-8955725D01*
X17479512Y-8955725D01*
X17466921Y-8974568D01*
X17461007Y-9004300D01*
X17462500Y-9011805D01*
X17462500Y-9903901D01*
X15491906Y-11874495D01*
X15485432Y-11858866D01*
X15450266Y-11823700D01*
X15455831Y-11823700D01*
X15479170Y-11814033D01*
X15497033Y-11796170D01*
X15506700Y-11772831D01*
X15506700Y-11712575D01*
X15490825Y-11696700D01*
X15379700Y-11696700D01*
X15379700Y-11698700D01*
X15354300Y-11698700D01*
X15354300Y-11696700D01*
X15243175Y-11696700D01*
X15227300Y-11712575D01*
X15227300Y-11772831D01*
X15236967Y-11796170D01*
X15254830Y-11814033D01*
X15278169Y-11823700D01*
X15283734Y-11823700D01*
X15248568Y-11858866D01*
X15227300Y-11910212D01*
X15227300Y-11965788D01*
X15231571Y-11976100D01*
X14891466Y-11976100D01*
X14913932Y-11953634D01*
X14935200Y-11902288D01*
X14935200Y-11846712D01*
X14913932Y-11795366D01*
X14874634Y-11756068D01*
X14853949Y-11747500D01*
X14874634Y-11738932D01*
X14913932Y-11699634D01*
X14935200Y-11648288D01*
X14935200Y-11592712D01*
X14913932Y-11541366D01*
X14874634Y-11502068D01*
X14855535Y-11494157D01*
X14868614Y-11488740D01*
X14875561Y-11464521D01*
X14795500Y-11384460D01*
X14715439Y-11464521D01*
X14722386Y-11488740D01*
X14736439Y-11493753D01*
X14716366Y-11502068D01*
X14677068Y-11541366D01*
X14655800Y-11592712D01*
X14655800Y-11609076D01*
X14392454Y-11345730D01*
X14654586Y-11345730D01*
X14657364Y-11401237D01*
X14673260Y-11439614D01*
X14697479Y-11446561D01*
X14777539Y-11366500D01*
X14813460Y-11366500D01*
X14893521Y-11446561D01*
X14917740Y-11439614D01*
X14936414Y-11387270D01*
X14933636Y-11331763D01*
X14917740Y-11293386D01*
X14893521Y-11286439D01*
X14813460Y-11366500D01*
X14777539Y-11366500D01*
X14697479Y-11286439D01*
X14673260Y-11293386D01*
X14654586Y-11345730D01*
X14392454Y-11345730D01*
X14248123Y-11201400D01*
X14686834Y-11201400D01*
X14716366Y-11230932D01*
X14735465Y-11238843D01*
X14722386Y-11244260D01*
X14715439Y-11268479D01*
X14795500Y-11348539D01*
X14875561Y-11268479D01*
X14868614Y-11244260D01*
X14854561Y-11239246D01*
X14874634Y-11230932D01*
X14913932Y-11191634D01*
X14935200Y-11140288D01*
X14935200Y-11098524D01*
X15022824Y-11010900D01*
X15258334Y-11010900D01*
X15287866Y-11040432D01*
X15308551Y-11049000D01*
X15287866Y-11057568D01*
X15248568Y-11096866D01*
X15227300Y-11148212D01*
X15227300Y-11203788D01*
X15248568Y-11255134D01*
X15287866Y-11294432D01*
X15308551Y-11303000D01*
X15287866Y-11311568D01*
X15248568Y-11350866D01*
X15227300Y-11402212D01*
X15227300Y-11457788D01*
X15248568Y-11509134D01*
X15283734Y-11544300D01*
X15278169Y-11544300D01*
X15254830Y-11553967D01*
X15236967Y-11571830D01*
X15227300Y-11595169D01*
X15227300Y-11655425D01*
X15243175Y-11671300D01*
X15354300Y-11671300D01*
X15354300Y-11669300D01*
X15379700Y-11669300D01*
X15379700Y-11671300D01*
X15490825Y-11671300D01*
X15506700Y-11655425D01*
X15506700Y-11595169D01*
X15497033Y-11571830D01*
X15479170Y-11553967D01*
X15455831Y-11544300D01*
X15450266Y-11544300D01*
X15485432Y-11509134D01*
X15506700Y-11457788D01*
X15506700Y-11402212D01*
X15485432Y-11350866D01*
X15446134Y-11311568D01*
X15425449Y-11303000D01*
X15446134Y-11294432D01*
X15485432Y-11255134D01*
X15506700Y-11203788D01*
X15506700Y-11148212D01*
X15485432Y-11096866D01*
X15446134Y-11057568D01*
X15425449Y-11049000D01*
X15446134Y-11040432D01*
X15485432Y-11001134D01*
X15506700Y-10949788D01*
X15506700Y-10894212D01*
X15485432Y-10842866D01*
X15450266Y-10807700D01*
X15455831Y-10807700D01*
X15479170Y-10798033D01*
X15497033Y-10780170D01*
X15506700Y-10756831D01*
X15506700Y-10696575D01*
X15490825Y-10680700D01*
X15379700Y-10680700D01*
X15379700Y-10682700D01*
X15354300Y-10682700D01*
X15354300Y-10680700D01*
X15243175Y-10680700D01*
X15227300Y-10696575D01*
X15227300Y-10756831D01*
X15236967Y-10780170D01*
X15254830Y-10798033D01*
X15278169Y-10807700D01*
X15283734Y-10807700D01*
X15258334Y-10833100D01*
X14994755Y-10833100D01*
X14986000Y-10831358D01*
X14977244Y-10833100D01*
X14977244Y-10833100D01*
X14951313Y-10838258D01*
X14936444Y-10848193D01*
X14936444Y-10782300D01*
X14931516Y-10757524D01*
X14917481Y-10736519D01*
X14896476Y-10722484D01*
X14871700Y-10717556D01*
X14719300Y-10717556D01*
X14694523Y-10722484D01*
X14673519Y-10736519D01*
X14659484Y-10757524D01*
X14654556Y-10782300D01*
X14654556Y-10934700D01*
X14659484Y-10959477D01*
X14673519Y-10980481D01*
X14694523Y-10994516D01*
X14712369Y-10998065D01*
X14686834Y-11023600D01*
X14042255Y-11023600D01*
X14033500Y-11021858D01*
X14024744Y-11023600D01*
X13930624Y-11023600D01*
X13351500Y-10444477D01*
X13351500Y-10426700D01*
X13823689Y-10426700D01*
X13834826Y-10482691D01*
X13866542Y-10530158D01*
X13914009Y-10561874D01*
X13955867Y-10570200D01*
X13984133Y-10570200D01*
X14025991Y-10561874D01*
X14073458Y-10530158D01*
X14091671Y-10502900D01*
X14533996Y-10502900D01*
X14541500Y-10504393D01*
X14549004Y-10502900D01*
X14549005Y-10502900D01*
X14571232Y-10498479D01*
X14596437Y-10481637D01*
X14600688Y-10475275D01*
X14690716Y-10385247D01*
X14701467Y-10389700D01*
X14762533Y-10389700D01*
X14818951Y-10366331D01*
X14862131Y-10323151D01*
X14885500Y-10266733D01*
X14885500Y-10205667D01*
X14862131Y-10149249D01*
X14818951Y-10106069D01*
X14762533Y-10082700D01*
X14701467Y-10082700D01*
X14645049Y-10106069D01*
X14627414Y-10123704D01*
X14621833Y-10110230D01*
X14603970Y-10092367D01*
X14580631Y-10082700D01*
X14506575Y-10082700D01*
X14490700Y-10098575D01*
X14490700Y-10223500D01*
X14492700Y-10223500D01*
X14492700Y-10248900D01*
X14490700Y-10248900D01*
X14490700Y-10250900D01*
X14465300Y-10250900D01*
X14465300Y-10248900D01*
X14340375Y-10248900D01*
X14324500Y-10264775D01*
X14324500Y-10338831D01*
X14329333Y-10350500D01*
X14091671Y-10350500D01*
X14073458Y-10323242D01*
X14025991Y-10291526D01*
X13984133Y-10283200D01*
X13955867Y-10283200D01*
X13914009Y-10291526D01*
X13866542Y-10323242D01*
X13834826Y-10370709D01*
X13823689Y-10426700D01*
X13351500Y-10426700D01*
X13351500Y-10398156D01*
X13329653Y-10345414D01*
X13289286Y-10305047D01*
X13236544Y-10283200D01*
X13179456Y-10283200D01*
X13126714Y-10305047D01*
X13093960Y-10337800D01*
X12815482Y-10337800D01*
X12830131Y-10323151D01*
X12834584Y-10312400D01*
X13022696Y-10312400D01*
X13030200Y-10313893D01*
X13037704Y-10312400D01*
X13037705Y-10312400D01*
X13059932Y-10307979D01*
X13085137Y-10291137D01*
X13089388Y-10284775D01*
X13175847Y-10198316D01*
X13193867Y-10201900D01*
X13222133Y-10201900D01*
X13263991Y-10193574D01*
X13311458Y-10161858D01*
X13343174Y-10114391D01*
X13354311Y-10058400D01*
X13343174Y-10002409D01*
X13311458Y-9954942D01*
X13263991Y-9923226D01*
X13222133Y-9914900D01*
X13193867Y-9914900D01*
X13152009Y-9923226D01*
X13104542Y-9954942D01*
X13072826Y-10002409D01*
X13061689Y-10058400D01*
X13068084Y-10090553D01*
X12998637Y-10160000D01*
X12834584Y-10160000D01*
X12830131Y-10149249D01*
X12786951Y-10106069D01*
X12730533Y-10082700D01*
X12669467Y-10082700D01*
X12613049Y-10106069D01*
X12595414Y-10123704D01*
X12589833Y-10110230D01*
X12571970Y-10092367D01*
X12548631Y-10082700D01*
X12474575Y-10082700D01*
X12458700Y-10098575D01*
X12458700Y-10223500D01*
X12460700Y-10223500D01*
X12460700Y-10248900D01*
X12458700Y-10248900D01*
X12458700Y-10250900D01*
X12433300Y-10250900D01*
X12433300Y-10248900D01*
X12308375Y-10248900D01*
X12292500Y-10264775D01*
X12292500Y-10338803D01*
X12271613Y-10342958D01*
X12242207Y-10362607D01*
X12237247Y-10370029D01*
X12071830Y-10535447D01*
X12064407Y-10540407D01*
X12044758Y-10569813D01*
X12042897Y-10579169D01*
X12037858Y-10604500D01*
X12039600Y-10613256D01*
X12039600Y-10821676D01*
X12001390Y-10859886D01*
X11995886Y-10846600D01*
X11971274Y-10839186D01*
X11888460Y-10922000D01*
X11889875Y-10923414D01*
X11871914Y-10941375D01*
X11870500Y-10939961D01*
X11869086Y-10941375D01*
X11851125Y-10923414D01*
X11852539Y-10922000D01*
X11769725Y-10839186D01*
X11764969Y-10840619D01*
X11761112Y-10821226D01*
X11787686Y-10821226D01*
X11870500Y-10904040D01*
X11953314Y-10821226D01*
X11945900Y-10796614D01*
X11892178Y-10777304D01*
X11835155Y-10780022D01*
X11795099Y-10796614D01*
X11787686Y-10821226D01*
X11761112Y-10821226D01*
X11760316Y-10817224D01*
X11746281Y-10796219D01*
X11725276Y-10782184D01*
X11700500Y-10777256D01*
X11636968Y-10777256D01*
X11677171Y-10737053D01*
X11684593Y-10732093D01*
X11704242Y-10702687D01*
X11709400Y-10676756D01*
X11709400Y-10676755D01*
X11711141Y-10668000D01*
X11709400Y-10659245D01*
X11709400Y-10379174D01*
X11725276Y-10376016D01*
X11746281Y-10361981D01*
X11760316Y-10340977D01*
X11761112Y-10336975D01*
X11787686Y-10336975D01*
X11795099Y-10361586D01*
X11848822Y-10380897D01*
X11905845Y-10378178D01*
X11945900Y-10361586D01*
X11953314Y-10336975D01*
X11870500Y-10254161D01*
X11787686Y-10336975D01*
X11761112Y-10336975D01*
X11764969Y-10317581D01*
X11769725Y-10319014D01*
X11852539Y-10236200D01*
X11888460Y-10236200D01*
X11971274Y-10319014D01*
X11995886Y-10311601D01*
X12015196Y-10257878D01*
X12012478Y-10200855D01*
X11995886Y-10160800D01*
X11971274Y-10153386D01*
X11888460Y-10236200D01*
X11852539Y-10236200D01*
X11769725Y-10153386D01*
X11764969Y-10154819D01*
X11761112Y-10135426D01*
X11787686Y-10135426D01*
X11870500Y-10218240D01*
X11953314Y-10135426D01*
X11952755Y-10133569D01*
X12292500Y-10133569D01*
X12292500Y-10207625D01*
X12308375Y-10223500D01*
X12433300Y-10223500D01*
X12433300Y-10098575D01*
X12417425Y-10082700D01*
X12343369Y-10082700D01*
X12320030Y-10092367D01*
X12302167Y-10110230D01*
X12292500Y-10133569D01*
X11952755Y-10133569D01*
X11945900Y-10110814D01*
X11892178Y-10091504D01*
X11835155Y-10094222D01*
X11795099Y-10110814D01*
X11787686Y-10135426D01*
X11761112Y-10135426D01*
X11760316Y-10131424D01*
X11746281Y-10110419D01*
X11725276Y-10096384D01*
X11709400Y-10093226D01*
X11709400Y-9371324D01*
X11974824Y-9105900D01*
X13881100Y-9105900D01*
X13881100Y-9944360D01*
X13848347Y-9977114D01*
X13826500Y-10029856D01*
X13826500Y-10086944D01*
X13848347Y-10139686D01*
X13888714Y-10180053D01*
X13941456Y-10201900D01*
X13998544Y-10201900D01*
X14051286Y-10180053D01*
X14091653Y-10139686D01*
X14094187Y-10133569D01*
X14324500Y-10133569D01*
X14324500Y-10207625D01*
X14340375Y-10223500D01*
X14465300Y-10223500D01*
X14465300Y-10098575D01*
X14449425Y-10082700D01*
X14375369Y-10082700D01*
X14352030Y-10092367D01*
X14334167Y-10110230D01*
X14324500Y-10133569D01*
X14094187Y-10133569D01*
X14113500Y-10086944D01*
X14113500Y-10029856D01*
X14091653Y-9977114D01*
X14058900Y-9944360D01*
X14058900Y-9053824D01*
X14124702Y-8988021D01*
X14905939Y-8988021D01*
X14912886Y-9012240D01*
X14965230Y-9030914D01*
X15020737Y-9028136D01*
X15059114Y-9012240D01*
X15066061Y-8988021D01*
X14986000Y-8907961D01*
X14905939Y-8988021D01*
X14124702Y-8988021D01*
X14243493Y-8869230D01*
X14845086Y-8869230D01*
X14847864Y-8924737D01*
X14863760Y-8963114D01*
X14887979Y-8970061D01*
X14968039Y-8890000D01*
X15003960Y-8890000D01*
X15084021Y-8970061D01*
X15108240Y-8963114D01*
X15126914Y-8910770D01*
X15124136Y-8855263D01*
X15108240Y-8816886D01*
X15084021Y-8809939D01*
X15003960Y-8890000D01*
X14968039Y-8890000D01*
X14887979Y-8809939D01*
X14863760Y-8816886D01*
X14845086Y-8869230D01*
X14243493Y-8869230D01*
X14387824Y-8724900D01*
X14847582Y-8724900D01*
X14849984Y-8736977D01*
X14864019Y-8757981D01*
X14885023Y-8772016D01*
X14909800Y-8776944D01*
X14910252Y-8776944D01*
X14905939Y-8791979D01*
X14986000Y-8872040D01*
X15066061Y-8791979D01*
X15061748Y-8776944D01*
X15062200Y-8776944D01*
X15086976Y-8772016D01*
X15107981Y-8757981D01*
X15122016Y-8736977D01*
X15126944Y-8712200D01*
X15126944Y-8559800D01*
X15122016Y-8535024D01*
X15107981Y-8514019D01*
X15086976Y-8499984D01*
X15062200Y-8495056D01*
X14909800Y-8495056D01*
X14885023Y-8499984D01*
X14864019Y-8514019D01*
X14849984Y-8535024D01*
X14847582Y-8547100D01*
X14359756Y-8547100D01*
X14351000Y-8545358D01*
X14316313Y-8552258D01*
X14305026Y-8559800D01*
X14286907Y-8571907D01*
X14281947Y-8579329D01*
X13933176Y-8928100D01*
X11946755Y-8928100D01*
X11938000Y-8926358D01*
X11929244Y-8928100D01*
X11903313Y-8933258D01*
X11873907Y-8952907D01*
X11868947Y-8960329D01*
X11563829Y-9265447D01*
X11556407Y-9270407D01*
X11551447Y-9277829D01*
X11551447Y-9277829D01*
X11536758Y-9299813D01*
X11529858Y-9334500D01*
X11531600Y-9343256D01*
X11531600Y-10093226D01*
X11515723Y-10096384D01*
X11494719Y-10110419D01*
X11480684Y-10131424D01*
X11475756Y-10156200D01*
X11475756Y-10316200D01*
X11480684Y-10340977D01*
X11494719Y-10361981D01*
X11515723Y-10376016D01*
X11531600Y-10379174D01*
X11531600Y-10631176D01*
X11424130Y-10738647D01*
X11416707Y-10743607D01*
X11397058Y-10773013D01*
X11392081Y-10798033D01*
X11390158Y-10807700D01*
X11391900Y-10816456D01*
X11391900Y-11024984D01*
X11390158Y-11033740D01*
X11397058Y-11068427D01*
X11407939Y-11084712D01*
X11416707Y-11097834D01*
X11424129Y-11102793D01*
X11430807Y-11109471D01*
X11435767Y-11116893D01*
X11465173Y-11136542D01*
X11491104Y-11141700D01*
X11582399Y-11141700D01*
X11582399Y-11505437D01*
X11545029Y-11542807D01*
X11537607Y-11547767D01*
X11517958Y-11577173D01*
X11512800Y-11603104D01*
X11511058Y-11611860D01*
X11512800Y-11620615D01*
X11512800Y-11874384D01*
X11511058Y-11883140D01*
X11517958Y-11917827D01*
X11525667Y-11929364D01*
X11537607Y-11947233D01*
X11545029Y-11952193D01*
X11589000Y-11996164D01*
X11589000Y-12029028D01*
X11613130Y-12087283D01*
X11648347Y-12122500D01*
X11613130Y-12157717D01*
X11589000Y-12215972D01*
X11589000Y-12279028D01*
X11613130Y-12337283D01*
X11657717Y-12381870D01*
X11715972Y-12406000D01*
X11779028Y-12406000D01*
X11837283Y-12381870D01*
X11881870Y-12337283D01*
X11906000Y-12279028D01*
X11906000Y-12215972D01*
X11881870Y-12157717D01*
X11846653Y-12122500D01*
X11881870Y-12087283D01*
X11906000Y-12029028D01*
X11906000Y-11965972D01*
X11881870Y-11907717D01*
X11872787Y-11898634D01*
X11888281Y-11888281D01*
X11902316Y-11867276D01*
X11907244Y-11842500D01*
X11907244Y-11652500D01*
X11902316Y-11627723D01*
X11888281Y-11606719D01*
X11867276Y-11592684D01*
X11842500Y-11587756D01*
X11836400Y-11587756D01*
X11836400Y-11150600D01*
X11916544Y-11150600D01*
X11925300Y-11152342D01*
X11934055Y-11150600D01*
X11934056Y-11150600D01*
X11959987Y-11145442D01*
X11989393Y-11125793D01*
X11994353Y-11118370D01*
X12185171Y-10927553D01*
X12192593Y-10922593D01*
X12212242Y-10893187D01*
X12217400Y-10867256D01*
X12217400Y-10867256D01*
X12219142Y-10858500D01*
X12217400Y-10849745D01*
X12217400Y-10641324D01*
X12343124Y-10515600D01*
X13093960Y-10515600D01*
X13126714Y-10548353D01*
X13179456Y-10570200D01*
X13225776Y-10570200D01*
X13824747Y-11169171D01*
X13829707Y-11176593D01*
X13837129Y-11181553D01*
X13859113Y-11196242D01*
X13893800Y-11203142D01*
X13902556Y-11201400D01*
X13996676Y-11201400D01*
X14655800Y-11860524D01*
X14655800Y-11902288D01*
X14677068Y-11953634D01*
X14699534Y-11976100D01*
X12604563Y-11976100D01*
X12573000Y-11944537D01*
X12573000Y-11234305D01*
X12574493Y-11226800D01*
X12569787Y-11203142D01*
X12568579Y-11197068D01*
X12551737Y-11171863D01*
X12545375Y-11167612D01*
X12520985Y-11143222D01*
X12522200Y-11140288D01*
X12522200Y-11084712D01*
X12500932Y-11033366D01*
X12465631Y-10998065D01*
X12483476Y-10994516D01*
X12504481Y-10980481D01*
X12518516Y-10959477D01*
X12523444Y-10934700D01*
X12523444Y-10782300D01*
X12518516Y-10757524D01*
X12504481Y-10736519D01*
X12483476Y-10722484D01*
X12458700Y-10717556D01*
X12306300Y-10717556D01*
X12281523Y-10722484D01*
X12260519Y-10736519D01*
X12246484Y-10757524D01*
X12241556Y-10782300D01*
X12241556Y-10891681D01*
X12219625Y-10913612D01*
X12213263Y-10917863D01*
X12196421Y-10943069D01*
X12192000Y-10965295D01*
X12192000Y-10965296D01*
X12190507Y-10972800D01*
X12192000Y-10980304D01*
X12192000Y-11921859D01*
X12190507Y-11929364D01*
X12196421Y-11959096D01*
X12201624Y-11966882D01*
X12213263Y-11984301D01*
X12219625Y-11988552D01*
X12268448Y-12037375D01*
X12272699Y-12043737D01*
X12297904Y-12060579D01*
X12320131Y-12065000D01*
X12320132Y-12065000D01*
X12327636Y-12066493D01*
X12335140Y-12065000D01*
X12401737Y-12065000D01*
X12488413Y-12151676D01*
X12492664Y-12158038D01*
X12499026Y-12162289D01*
X12517869Y-12174880D01*
X12517869Y-12174880D01*
X12517869Y-12174880D01*
X12540096Y-12179301D01*
X12540097Y-12179301D01*
X12547601Y-12180794D01*
X12555105Y-12179301D01*
X15473795Y-12179301D01*
X15481299Y-12180794D01*
X15488803Y-12179301D01*
X15488804Y-12179301D01*
X15511031Y-12174880D01*
X15536236Y-12158038D01*
X15540487Y-12151676D01*
X15979588Y-11712575D01*
X17513300Y-11712575D01*
X17513300Y-11772831D01*
X17522967Y-11796170D01*
X17540830Y-11814033D01*
X17564169Y-11823700D01*
X17569734Y-11823700D01*
X17534568Y-11858866D01*
X17513300Y-11910212D01*
X17513300Y-11965788D01*
X17534568Y-12017134D01*
X17573866Y-12056432D01*
X17625212Y-12077700D01*
X17680788Y-12077700D01*
X17732134Y-12056432D01*
X17771432Y-12017134D01*
X17792700Y-11965788D01*
X17792700Y-11910212D01*
X17771432Y-11858866D01*
X17736266Y-11823700D01*
X17741831Y-11823700D01*
X17765170Y-11814033D01*
X17783033Y-11796170D01*
X17792700Y-11772831D01*
X17792700Y-11712575D01*
X17776825Y-11696700D01*
X17665700Y-11696700D01*
X17665700Y-11698700D01*
X17640300Y-11698700D01*
X17640300Y-11696700D01*
X17529175Y-11696700D01*
X17513300Y-11712575D01*
X15979588Y-11712575D01*
X17513300Y-10178863D01*
X17513300Y-10187788D01*
X17534568Y-10239134D01*
X17573866Y-10278432D01*
X17594551Y-10287000D01*
X17573866Y-10295568D01*
X17534568Y-10334866D01*
X17513300Y-10386212D01*
X17513300Y-10441788D01*
X17534568Y-10493134D01*
X17573866Y-10532432D01*
X17594551Y-10541000D01*
X17573866Y-10549568D01*
X17534568Y-10588866D01*
X17513300Y-10640212D01*
X17513300Y-10695788D01*
X17534568Y-10747134D01*
X17573866Y-10786432D01*
X17594551Y-10795000D01*
X17573866Y-10803568D01*
X17534568Y-10842866D01*
X17513300Y-10894212D01*
X17513300Y-10949788D01*
X17534568Y-11001134D01*
X17573866Y-11040432D01*
X17594551Y-11049000D01*
X17573866Y-11057568D01*
X17534568Y-11096866D01*
X17513300Y-11148212D01*
X17513300Y-11203788D01*
X17534568Y-11255134D01*
X17573866Y-11294432D01*
X17594551Y-11303000D01*
X17573866Y-11311568D01*
X17534568Y-11350866D01*
X17513300Y-11402212D01*
X17513300Y-11457788D01*
X17534568Y-11509134D01*
X17569734Y-11544300D01*
X17564169Y-11544300D01*
X17540830Y-11553967D01*
X17522967Y-11571830D01*
X17513300Y-11595169D01*
X17513300Y-11655425D01*
X17529175Y-11671300D01*
X17640300Y-11671300D01*
X17640300Y-11669300D01*
X17665700Y-11669300D01*
X17665700Y-11671300D01*
X17776825Y-11671300D01*
X17792700Y-11655425D01*
X17792700Y-11595169D01*
X17783033Y-11571830D01*
X17765170Y-11553967D01*
X17741831Y-11544300D01*
X17736266Y-11544300D01*
X17771432Y-11509134D01*
X17792700Y-11457788D01*
X17792700Y-11402212D01*
X17771432Y-11350866D01*
X17732134Y-11311568D01*
X17711449Y-11303000D01*
X17732134Y-11294432D01*
X17771432Y-11255134D01*
X17792700Y-11203788D01*
X17792700Y-11148212D01*
X17771432Y-11096866D01*
X17732134Y-11057568D01*
X17711449Y-11049000D01*
X17732134Y-11040432D01*
X17771432Y-11001134D01*
X17792700Y-10949788D01*
X17792700Y-10894212D01*
X17771432Y-10842866D01*
X17732134Y-10803568D01*
X17711449Y-10795000D01*
X17732134Y-10786432D01*
X17771432Y-10747134D01*
X17792700Y-10695788D01*
X17792700Y-10640212D01*
X17771432Y-10588866D01*
X17732134Y-10549568D01*
X17711449Y-10541000D01*
X17732134Y-10532432D01*
X17771432Y-10493134D01*
X17792700Y-10441788D01*
X17792700Y-10386212D01*
X17771432Y-10334866D01*
X17732134Y-10295568D01*
X17711449Y-10287000D01*
X17732134Y-10278432D01*
X17771432Y-10239134D01*
X17792700Y-10187788D01*
X17792700Y-10132212D01*
X17777092Y-10094530D01*
X17789412Y-10092079D01*
X17814617Y-10075237D01*
X17817669Y-10070669D01*
X17822237Y-10067617D01*
X17836000Y-10047020D01*
X17836000Y-12629000D01*
X11374000Y-12629000D01*
X11374000Y-8354212D01*
X15227300Y-8354212D01*
X15227300Y-8409788D01*
X15248568Y-8461134D01*
X15287866Y-8500432D01*
X15308551Y-8509000D01*
X15287866Y-8517568D01*
X15248568Y-8556866D01*
X15227300Y-8608212D01*
X15227300Y-8663788D01*
X15248568Y-8715134D01*
X15287866Y-8754432D01*
X15308551Y-8763000D01*
X15287866Y-8771568D01*
X15248568Y-8810866D01*
X15227300Y-8862212D01*
X15227300Y-8917788D01*
X15248568Y-8969134D01*
X15287866Y-9008432D01*
X15308551Y-9017000D01*
X15287866Y-9025568D01*
X15248568Y-9064866D01*
X15227300Y-9116212D01*
X15227300Y-9171788D01*
X15248568Y-9223134D01*
X15287866Y-9262432D01*
X15308551Y-9271000D01*
X15287866Y-9279568D01*
X15248568Y-9318866D01*
X15227300Y-9370212D01*
X15227300Y-9425788D01*
X15248568Y-9477134D01*
X15287866Y-9516432D01*
X15308551Y-9525000D01*
X15287866Y-9533568D01*
X15248568Y-9572866D01*
X15227300Y-9624212D01*
X15227300Y-9679788D01*
X15248568Y-9731134D01*
X15287866Y-9770432D01*
X15308551Y-9779000D01*
X15287866Y-9787568D01*
X15248568Y-9826866D01*
X15227300Y-9878212D01*
X15227300Y-9933788D01*
X15248568Y-9985134D01*
X15287866Y-10024432D01*
X15308551Y-10033000D01*
X15287866Y-10041568D01*
X15248568Y-10080866D01*
X15227300Y-10132212D01*
X15227300Y-10187788D01*
X15248568Y-10239134D01*
X15287866Y-10278432D01*
X15308551Y-10287000D01*
X15287866Y-10295568D01*
X15248568Y-10334866D01*
X15227300Y-10386212D01*
X15227300Y-10441788D01*
X15248568Y-10493134D01*
X15283734Y-10528300D01*
X15278169Y-10528300D01*
X15254830Y-10537967D01*
X15236967Y-10555830D01*
X15227300Y-10579169D01*
X15227300Y-10639425D01*
X15243175Y-10655300D01*
X15354300Y-10655300D01*
X15354300Y-10653300D01*
X15379700Y-10653300D01*
X15379700Y-10655300D01*
X15490825Y-10655300D01*
X15506700Y-10639425D01*
X15506700Y-10579169D01*
X15497033Y-10555830D01*
X15479170Y-10537967D01*
X15455831Y-10528300D01*
X15450266Y-10528300D01*
X15485432Y-10493134D01*
X15506700Y-10441788D01*
X15506700Y-10386212D01*
X15485432Y-10334866D01*
X15446134Y-10295568D01*
X15425449Y-10287000D01*
X15446134Y-10278432D01*
X15485432Y-10239134D01*
X15506700Y-10187788D01*
X15506700Y-10132212D01*
X15485432Y-10080866D01*
X15446134Y-10041568D01*
X15425449Y-10033000D01*
X15446134Y-10024432D01*
X15485432Y-9985134D01*
X15506700Y-9933788D01*
X15506700Y-9878212D01*
X15485432Y-9826866D01*
X15446134Y-9787568D01*
X15425449Y-9779000D01*
X15446134Y-9770432D01*
X15485432Y-9731134D01*
X15506700Y-9679788D01*
X15506700Y-9624212D01*
X15485432Y-9572866D01*
X15446134Y-9533568D01*
X15425449Y-9525000D01*
X15446134Y-9516432D01*
X15485432Y-9477134D01*
X15506700Y-9425788D01*
X15506700Y-9370212D01*
X15485432Y-9318866D01*
X15446134Y-9279568D01*
X15425449Y-9271000D01*
X15446134Y-9262432D01*
X15485432Y-9223134D01*
X15506700Y-9171788D01*
X15506700Y-9116212D01*
X15485432Y-9064866D01*
X15446134Y-9025568D01*
X15425449Y-9017000D01*
X15446134Y-9008432D01*
X15485432Y-8969134D01*
X15506700Y-8917788D01*
X15506700Y-8862212D01*
X15485432Y-8810866D01*
X15446134Y-8771568D01*
X15425449Y-8763000D01*
X15446134Y-8754432D01*
X15485432Y-8715134D01*
X15506700Y-8663788D01*
X15506700Y-8608212D01*
X15485432Y-8556866D01*
X15446134Y-8517568D01*
X15425449Y-8509000D01*
X15446134Y-8500432D01*
X15485432Y-8461134D01*
X15506700Y-8409788D01*
X15506700Y-8354212D01*
X15485432Y-8302866D01*
X15446134Y-8263568D01*
X15394788Y-8242300D01*
X15339212Y-8242300D01*
X15287866Y-8263568D01*
X15248568Y-8302866D01*
X15227300Y-8354212D01*
X11374000Y-8354212D01*
X11374000Y-7691000D01*
X17836000Y-7691000D01*
X17836000Y-8715961D01*
X17836000Y-8715961D01*
G37*
X17836000Y-8715961D02*
X17822237Y-8695363D01*
X17815875Y-8691112D01*
X17791485Y-8666722D01*
X17792700Y-8663788D01*
X17792700Y-8608212D01*
X17771432Y-8556866D01*
X17732134Y-8517568D01*
X17711449Y-8509000D01*
X17732134Y-8500432D01*
X17771432Y-8461134D01*
X17792700Y-8409788D01*
X17792700Y-8354212D01*
X17771432Y-8302866D01*
X17732134Y-8263568D01*
X17680788Y-8242300D01*
X17625212Y-8242300D01*
X17573866Y-8263568D01*
X17534568Y-8302866D01*
X17513300Y-8354212D01*
X17513300Y-8409788D01*
X17534568Y-8461134D01*
X17573866Y-8500432D01*
X17594551Y-8509000D01*
X17573866Y-8517568D01*
X17534568Y-8556866D01*
X17513300Y-8608212D01*
X17513300Y-8663788D01*
X17534568Y-8715134D01*
X17573866Y-8754432D01*
X17594551Y-8763000D01*
X17573866Y-8771568D01*
X17534568Y-8810866D01*
X17513300Y-8862212D01*
X17513300Y-8917788D01*
X17514515Y-8920722D01*
X17490125Y-8945112D01*
X17483763Y-8949363D01*
X17479512Y-8955725D01*
X17479512Y-8955725D01*
X17466921Y-8974568D01*
X17461007Y-9004300D01*
X17462500Y-9011805D01*
X17462500Y-9903901D01*
X15491906Y-11874495D01*
X15485432Y-11858866D01*
X15450266Y-11823700D01*
X15455831Y-11823700D01*
X15479170Y-11814033D01*
X15497033Y-11796170D01*
X15506700Y-11772831D01*
X15506700Y-11712575D01*
X15490825Y-11696700D01*
X15379700Y-11696700D01*
X15379700Y-11698700D01*
X15354300Y-11698700D01*
X15354300Y-11696700D01*
X15243175Y-11696700D01*
X15227300Y-11712575D01*
X15227300Y-11772831D01*
X15236967Y-11796170D01*
X15254830Y-11814033D01*
X15278169Y-11823700D01*
X15283734Y-11823700D01*
X15248568Y-11858866D01*
X15227300Y-11910212D01*
X15227300Y-11965788D01*
X15231571Y-11976100D01*
X14891466Y-11976100D01*
X14913932Y-11953634D01*
X14935200Y-11902288D01*
X14935200Y-11846712D01*
X14913932Y-11795366D01*
X14874634Y-11756068D01*
X14853949Y-11747500D01*
X14874634Y-11738932D01*
X14913932Y-11699634D01*
X14935200Y-11648288D01*
X14935200Y-11592712D01*
X14913932Y-11541366D01*
X14874634Y-11502068D01*
X14855535Y-11494157D01*
X14868614Y-11488740D01*
X14875561Y-11464521D01*
X14795500Y-11384460D01*
X14715439Y-11464521D01*
X14722386Y-11488740D01*
X14736439Y-11493753D01*
X14716366Y-11502068D01*
X14677068Y-11541366D01*
X14655800Y-11592712D01*
X14655800Y-11609076D01*
X14392454Y-11345730D01*
X14654586Y-11345730D01*
X14657364Y-11401237D01*
X14673260Y-11439614D01*
X14697479Y-11446561D01*
X14777539Y-11366500D01*
X14813460Y-11366500D01*
X14893521Y-11446561D01*
X14917740Y-11439614D01*
X14936414Y-11387270D01*
X14933636Y-11331763D01*
X14917740Y-11293386D01*
X14893521Y-11286439D01*
X14813460Y-11366500D01*
X14777539Y-11366500D01*
X14697479Y-11286439D01*
X14673260Y-11293386D01*
X14654586Y-11345730D01*
X14392454Y-11345730D01*
X14248123Y-11201400D01*
X14686834Y-11201400D01*
X14716366Y-11230932D01*
X14735465Y-11238843D01*
X14722386Y-11244260D01*
X14715439Y-11268479D01*
X14795500Y-11348539D01*
X14875561Y-11268479D01*
X14868614Y-11244260D01*
X14854561Y-11239246D01*
X14874634Y-11230932D01*
X14913932Y-11191634D01*
X14935200Y-11140288D01*
X14935200Y-11098524D01*
X15022824Y-11010900D01*
X15258334Y-11010900D01*
X15287866Y-11040432D01*
X15308551Y-11049000D01*
X15287866Y-11057568D01*
X15248568Y-11096866D01*
X15227300Y-11148212D01*
X15227300Y-11203788D01*
X15248568Y-11255134D01*
X15287866Y-11294432D01*
X15308551Y-11303000D01*
X15287866Y-11311568D01*
X15248568Y-11350866D01*
X15227300Y-11402212D01*
X15227300Y-11457788D01*
X15248568Y-11509134D01*
X15283734Y-11544300D01*
X15278169Y-11544300D01*
X15254830Y-11553967D01*
X15236967Y-11571830D01*
X15227300Y-11595169D01*
X15227300Y-11655425D01*
X15243175Y-11671300D01*
X15354300Y-11671300D01*
X15354300Y-11669300D01*
X15379700Y-11669300D01*
X15379700Y-11671300D01*
X15490825Y-11671300D01*
X15506700Y-11655425D01*
X15506700Y-11595169D01*
X15497033Y-11571830D01*
X15479170Y-11553967D01*
X15455831Y-11544300D01*
X15450266Y-11544300D01*
X15485432Y-11509134D01*
X15506700Y-11457788D01*
X15506700Y-11402212D01*
X15485432Y-11350866D01*
X15446134Y-11311568D01*
X15425449Y-11303000D01*
X15446134Y-11294432D01*
X15485432Y-11255134D01*
X15506700Y-11203788D01*
X15506700Y-11148212D01*
X15485432Y-11096866D01*
X15446134Y-11057568D01*
X15425449Y-11049000D01*
X15446134Y-11040432D01*
X15485432Y-11001134D01*
X15506700Y-10949788D01*
X15506700Y-10894212D01*
X15485432Y-10842866D01*
X15450266Y-10807700D01*
X15455831Y-10807700D01*
X15479170Y-10798033D01*
X15497033Y-10780170D01*
X15506700Y-10756831D01*
X15506700Y-10696575D01*
X15490825Y-10680700D01*
X15379700Y-10680700D01*
X15379700Y-10682700D01*
X15354300Y-10682700D01*
X15354300Y-10680700D01*
X15243175Y-10680700D01*
X15227300Y-10696575D01*
X15227300Y-10756831D01*
X15236967Y-10780170D01*
X15254830Y-10798033D01*
X15278169Y-10807700D01*
X15283734Y-10807700D01*
X15258334Y-10833100D01*
X14994755Y-10833100D01*
X14986000Y-10831358D01*
X14977244Y-10833100D01*
X14977244Y-10833100D01*
X14951313Y-10838258D01*
X14936444Y-10848193D01*
X14936444Y-10782300D01*
X14931516Y-10757524D01*
X14917481Y-10736519D01*
X14896476Y-10722484D01*
X14871700Y-10717556D01*
X14719300Y-10717556D01*
X14694523Y-10722484D01*
X14673519Y-10736519D01*
X14659484Y-10757524D01*
X14654556Y-10782300D01*
X14654556Y-10934700D01*
X14659484Y-10959477D01*
X14673519Y-10980481D01*
X14694523Y-10994516D01*
X14712369Y-10998065D01*
X14686834Y-11023600D01*
X14042255Y-11023600D01*
X14033500Y-11021858D01*
X14024744Y-11023600D01*
X13930624Y-11023600D01*
X13351500Y-10444477D01*
X13351500Y-10426700D01*
X13823689Y-10426700D01*
X13834826Y-10482691D01*
X13866542Y-10530158D01*
X13914009Y-10561874D01*
X13955867Y-10570200D01*
X13984133Y-10570200D01*
X14025991Y-10561874D01*
X14073458Y-10530158D01*
X14091671Y-10502900D01*
X14533996Y-10502900D01*
X14541500Y-10504393D01*
X14549004Y-10502900D01*
X14549005Y-10502900D01*
X14571232Y-10498479D01*
X14596437Y-10481637D01*
X14600688Y-10475275D01*
X14690716Y-10385247D01*
X14701467Y-10389700D01*
X14762533Y-10389700D01*
X14818951Y-10366331D01*
X14862131Y-10323151D01*
X14885500Y-10266733D01*
X14885500Y-10205667D01*
X14862131Y-10149249D01*
X14818951Y-10106069D01*
X14762533Y-10082700D01*
X14701467Y-10082700D01*
X14645049Y-10106069D01*
X14627414Y-10123704D01*
X14621833Y-10110230D01*
X14603970Y-10092367D01*
X14580631Y-10082700D01*
X14506575Y-10082700D01*
X14490700Y-10098575D01*
X14490700Y-10223500D01*
X14492700Y-10223500D01*
X14492700Y-10248900D01*
X14490700Y-10248900D01*
X14490700Y-10250900D01*
X14465300Y-10250900D01*
X14465300Y-10248900D01*
X14340375Y-10248900D01*
X14324500Y-10264775D01*
X14324500Y-10338831D01*
X14329333Y-10350500D01*
X14091671Y-10350500D01*
X14073458Y-10323242D01*
X14025991Y-10291526D01*
X13984133Y-10283200D01*
X13955867Y-10283200D01*
X13914009Y-10291526D01*
X13866542Y-10323242D01*
X13834826Y-10370709D01*
X13823689Y-10426700D01*
X13351500Y-10426700D01*
X13351500Y-10398156D01*
X13329653Y-10345414D01*
X13289286Y-10305047D01*
X13236544Y-10283200D01*
X13179456Y-10283200D01*
X13126714Y-10305047D01*
X13093960Y-10337800D01*
X12815482Y-10337800D01*
X12830131Y-10323151D01*
X12834584Y-10312400D01*
X13022696Y-10312400D01*
X13030200Y-10313893D01*
X13037704Y-10312400D01*
X13037705Y-10312400D01*
X13059932Y-10307979D01*
X13085137Y-10291137D01*
X13089388Y-10284775D01*
X13175847Y-10198316D01*
X13193867Y-10201900D01*
X13222133Y-10201900D01*
X13263991Y-10193574D01*
X13311458Y-10161858D01*
X13343174Y-10114391D01*
X13354311Y-10058400D01*
X13343174Y-10002409D01*
X13311458Y-9954942D01*
X13263991Y-9923226D01*
X13222133Y-9914900D01*
X13193867Y-9914900D01*
X13152009Y-9923226D01*
X13104542Y-9954942D01*
X13072826Y-10002409D01*
X13061689Y-10058400D01*
X13068084Y-10090553D01*
X12998637Y-10160000D01*
X12834584Y-10160000D01*
X12830131Y-10149249D01*
X12786951Y-10106069D01*
X12730533Y-10082700D01*
X12669467Y-10082700D01*
X12613049Y-10106069D01*
X12595414Y-10123704D01*
X12589833Y-10110230D01*
X12571970Y-10092367D01*
X12548631Y-10082700D01*
X12474575Y-10082700D01*
X12458700Y-10098575D01*
X12458700Y-10223500D01*
X12460700Y-10223500D01*
X12460700Y-10248900D01*
X12458700Y-10248900D01*
X12458700Y-10250900D01*
X12433300Y-10250900D01*
X12433300Y-10248900D01*
X12308375Y-10248900D01*
X12292500Y-10264775D01*
X12292500Y-10338803D01*
X12271613Y-10342958D01*
X12242207Y-10362607D01*
X12237247Y-10370029D01*
X12071830Y-10535447D01*
X12064407Y-10540407D01*
X12044758Y-10569813D01*
X12042897Y-10579169D01*
X12037858Y-10604500D01*
X12039600Y-10613256D01*
X12039600Y-10821676D01*
X12001390Y-10859886D01*
X11995886Y-10846600D01*
X11971274Y-10839186D01*
X11888460Y-10922000D01*
X11889875Y-10923414D01*
X11871914Y-10941375D01*
X11870500Y-10939961D01*
X11869086Y-10941375D01*
X11851125Y-10923414D01*
X11852539Y-10922000D01*
X11769725Y-10839186D01*
X11764969Y-10840619D01*
X11761112Y-10821226D01*
X11787686Y-10821226D01*
X11870500Y-10904040D01*
X11953314Y-10821226D01*
X11945900Y-10796614D01*
X11892178Y-10777304D01*
X11835155Y-10780022D01*
X11795099Y-10796614D01*
X11787686Y-10821226D01*
X11761112Y-10821226D01*
X11760316Y-10817224D01*
X11746281Y-10796219D01*
X11725276Y-10782184D01*
X11700500Y-10777256D01*
X11636968Y-10777256D01*
X11677171Y-10737053D01*
X11684593Y-10732093D01*
X11704242Y-10702687D01*
X11709400Y-10676756D01*
X11709400Y-10676755D01*
X11711141Y-10668000D01*
X11709400Y-10659245D01*
X11709400Y-10379174D01*
X11725276Y-10376016D01*
X11746281Y-10361981D01*
X11760316Y-10340977D01*
X11761112Y-10336975D01*
X11787686Y-10336975D01*
X11795099Y-10361586D01*
X11848822Y-10380897D01*
X11905845Y-10378178D01*
X11945900Y-10361586D01*
X11953314Y-10336975D01*
X11870500Y-10254161D01*
X11787686Y-10336975D01*
X11761112Y-10336975D01*
X11764969Y-10317581D01*
X11769725Y-10319014D01*
X11852539Y-10236200D01*
X11888460Y-10236200D01*
X11971274Y-10319014D01*
X11995886Y-10311601D01*
X12015196Y-10257878D01*
X12012478Y-10200855D01*
X11995886Y-10160800D01*
X11971274Y-10153386D01*
X11888460Y-10236200D01*
X11852539Y-10236200D01*
X11769725Y-10153386D01*
X11764969Y-10154819D01*
X11761112Y-10135426D01*
X11787686Y-10135426D01*
X11870500Y-10218240D01*
X11953314Y-10135426D01*
X11952755Y-10133569D01*
X12292500Y-10133569D01*
X12292500Y-10207625D01*
X12308375Y-10223500D01*
X12433300Y-10223500D01*
X12433300Y-10098575D01*
X12417425Y-10082700D01*
X12343369Y-10082700D01*
X12320030Y-10092367D01*
X12302167Y-10110230D01*
X12292500Y-10133569D01*
X11952755Y-10133569D01*
X11945900Y-10110814D01*
X11892178Y-10091504D01*
X11835155Y-10094222D01*
X11795099Y-10110814D01*
X11787686Y-10135426D01*
X11761112Y-10135426D01*
X11760316Y-10131424D01*
X11746281Y-10110419D01*
X11725276Y-10096384D01*
X11709400Y-10093226D01*
X11709400Y-9371324D01*
X11974824Y-9105900D01*
X13881100Y-9105900D01*
X13881100Y-9944360D01*
X13848347Y-9977114D01*
X13826500Y-10029856D01*
X13826500Y-10086944D01*
X13848347Y-10139686D01*
X13888714Y-10180053D01*
X13941456Y-10201900D01*
X13998544Y-10201900D01*
X14051286Y-10180053D01*
X14091653Y-10139686D01*
X14094187Y-10133569D01*
X14324500Y-10133569D01*
X14324500Y-10207625D01*
X14340375Y-10223500D01*
X14465300Y-10223500D01*
X14465300Y-10098575D01*
X14449425Y-10082700D01*
X14375369Y-10082700D01*
X14352030Y-10092367D01*
X14334167Y-10110230D01*
X14324500Y-10133569D01*
X14094187Y-10133569D01*
X14113500Y-10086944D01*
X14113500Y-10029856D01*
X14091653Y-9977114D01*
X14058900Y-9944360D01*
X14058900Y-9053824D01*
X14124702Y-8988021D01*
X14905939Y-8988021D01*
X14912886Y-9012240D01*
X14965230Y-9030914D01*
X15020737Y-9028136D01*
X15059114Y-9012240D01*
X15066061Y-8988021D01*
X14986000Y-8907961D01*
X14905939Y-8988021D01*
X14124702Y-8988021D01*
X14243493Y-8869230D01*
X14845086Y-8869230D01*
X14847864Y-8924737D01*
X14863760Y-8963114D01*
X14887979Y-8970061D01*
X14968039Y-8890000D01*
X15003960Y-8890000D01*
X15084021Y-8970061D01*
X15108240Y-8963114D01*
X15126914Y-8910770D01*
X15124136Y-8855263D01*
X15108240Y-8816886D01*
X15084021Y-8809939D01*
X15003960Y-8890000D01*
X14968039Y-8890000D01*
X14887979Y-8809939D01*
X14863760Y-8816886D01*
X14845086Y-8869230D01*
X14243493Y-8869230D01*
X14387824Y-8724900D01*
X14847582Y-8724900D01*
X14849984Y-8736977D01*
X14864019Y-8757981D01*
X14885023Y-8772016D01*
X14909800Y-8776944D01*
X14910252Y-8776944D01*
X14905939Y-8791979D01*
X14986000Y-8872040D01*
X15066061Y-8791979D01*
X15061748Y-8776944D01*
X15062200Y-8776944D01*
X15086976Y-8772016D01*
X15107981Y-8757981D01*
X15122016Y-8736977D01*
X15126944Y-8712200D01*
X15126944Y-8559800D01*
X15122016Y-8535024D01*
X15107981Y-8514019D01*
X15086976Y-8499984D01*
X15062200Y-8495056D01*
X14909800Y-8495056D01*
X14885023Y-8499984D01*
X14864019Y-8514019D01*
X14849984Y-8535024D01*
X14847582Y-8547100D01*
X14359756Y-8547100D01*
X14351000Y-8545358D01*
X14316313Y-8552258D01*
X14305026Y-8559800D01*
X14286907Y-8571907D01*
X14281947Y-8579329D01*
X13933176Y-8928100D01*
X11946755Y-8928100D01*
X11938000Y-8926358D01*
X11929244Y-8928100D01*
X11903313Y-8933258D01*
X11873907Y-8952907D01*
X11868947Y-8960329D01*
X11563829Y-9265447D01*
X11556407Y-9270407D01*
X11551447Y-9277829D01*
X11551447Y-9277829D01*
X11536758Y-9299813D01*
X11529858Y-9334500D01*
X11531600Y-9343256D01*
X11531600Y-10093226D01*
X11515723Y-10096384D01*
X11494719Y-10110419D01*
X11480684Y-10131424D01*
X11475756Y-10156200D01*
X11475756Y-10316200D01*
X11480684Y-10340977D01*
X11494719Y-10361981D01*
X11515723Y-10376016D01*
X11531600Y-10379174D01*
X11531600Y-10631176D01*
X11424130Y-10738647D01*
X11416707Y-10743607D01*
X11397058Y-10773013D01*
X11392081Y-10798033D01*
X11390158Y-10807700D01*
X11391900Y-10816456D01*
X11391900Y-11024984D01*
X11390158Y-11033740D01*
X11397058Y-11068427D01*
X11407939Y-11084712D01*
X11416707Y-11097834D01*
X11424129Y-11102793D01*
X11430807Y-11109471D01*
X11435767Y-11116893D01*
X11465173Y-11136542D01*
X11491104Y-11141700D01*
X11582399Y-11141700D01*
X11582399Y-11505437D01*
X11545029Y-11542807D01*
X11537607Y-11547767D01*
X11517958Y-11577173D01*
X11512800Y-11603104D01*
X11511058Y-11611860D01*
X11512800Y-11620615D01*
X11512800Y-11874384D01*
X11511058Y-11883140D01*
X11517958Y-11917827D01*
X11525667Y-11929364D01*
X11537607Y-11947233D01*
X11545029Y-11952193D01*
X11589000Y-11996164D01*
X11589000Y-12029028D01*
X11613130Y-12087283D01*
X11648347Y-12122500D01*
X11613130Y-12157717D01*
X11589000Y-12215972D01*
X11589000Y-12279028D01*
X11613130Y-12337283D01*
X11657717Y-12381870D01*
X11715972Y-12406000D01*
X11779028Y-12406000D01*
X11837283Y-12381870D01*
X11881870Y-12337283D01*
X11906000Y-12279028D01*
X11906000Y-12215972D01*
X11881870Y-12157717D01*
X11846653Y-12122500D01*
X11881870Y-12087283D01*
X11906000Y-12029028D01*
X11906000Y-11965972D01*
X11881870Y-11907717D01*
X11872787Y-11898634D01*
X11888281Y-11888281D01*
X11902316Y-11867276D01*
X11907244Y-11842500D01*
X11907244Y-11652500D01*
X11902316Y-11627723D01*
X11888281Y-11606719D01*
X11867276Y-11592684D01*
X11842500Y-11587756D01*
X11836400Y-11587756D01*
X11836400Y-11150600D01*
X11916544Y-11150600D01*
X11925300Y-11152342D01*
X11934055Y-11150600D01*
X11934056Y-11150600D01*
X11959987Y-11145442D01*
X11989393Y-11125793D01*
X11994353Y-11118370D01*
X12185171Y-10927553D01*
X12192593Y-10922593D01*
X12212242Y-10893187D01*
X12217400Y-10867256D01*
X12217400Y-10867256D01*
X12219142Y-10858500D01*
X12217400Y-10849745D01*
X12217400Y-10641324D01*
X12343124Y-10515600D01*
X13093960Y-10515600D01*
X13126714Y-10548353D01*
X13179456Y-10570200D01*
X13225776Y-10570200D01*
X13824747Y-11169171D01*
X13829707Y-11176593D01*
X13837129Y-11181553D01*
X13859113Y-11196242D01*
X13893800Y-11203142D01*
X13902556Y-11201400D01*
X13996676Y-11201400D01*
X14655800Y-11860524D01*
X14655800Y-11902288D01*
X14677068Y-11953634D01*
X14699534Y-11976100D01*
X12604563Y-11976100D01*
X12573000Y-11944537D01*
X12573000Y-11234305D01*
X12574493Y-11226800D01*
X12569787Y-11203142D01*
X12568579Y-11197068D01*
X12551737Y-11171863D01*
X12545375Y-11167612D01*
X12520985Y-11143222D01*
X12522200Y-11140288D01*
X12522200Y-11084712D01*
X12500932Y-11033366D01*
X12465631Y-10998065D01*
X12483476Y-10994516D01*
X12504481Y-10980481D01*
X12518516Y-10959477D01*
X12523444Y-10934700D01*
X12523444Y-10782300D01*
X12518516Y-10757524D01*
X12504481Y-10736519D01*
X12483476Y-10722484D01*
X12458700Y-10717556D01*
X12306300Y-10717556D01*
X12281523Y-10722484D01*
X12260519Y-10736519D01*
X12246484Y-10757524D01*
X12241556Y-10782300D01*
X12241556Y-10891681D01*
X12219625Y-10913612D01*
X12213263Y-10917863D01*
X12196421Y-10943069D01*
X12192000Y-10965295D01*
X12192000Y-10965296D01*
X12190507Y-10972800D01*
X12192000Y-10980304D01*
X12192000Y-11921859D01*
X12190507Y-11929364D01*
X12196421Y-11959096D01*
X12201624Y-11966882D01*
X12213263Y-11984301D01*
X12219625Y-11988552D01*
X12268448Y-12037375D01*
X12272699Y-12043737D01*
X12297904Y-12060579D01*
X12320131Y-12065000D01*
X12320132Y-12065000D01*
X12327636Y-12066493D01*
X12335140Y-12065000D01*
X12401737Y-12065000D01*
X12488413Y-12151676D01*
X12492664Y-12158038D01*
X12499026Y-12162289D01*
X12517869Y-12174880D01*
X12517869Y-12174880D01*
X12517869Y-12174880D01*
X12540096Y-12179301D01*
X12540097Y-12179301D01*
X12547601Y-12180794D01*
X12555105Y-12179301D01*
X15473795Y-12179301D01*
X15481299Y-12180794D01*
X15488803Y-12179301D01*
X15488804Y-12179301D01*
X15511031Y-12174880D01*
X15536236Y-12158038D01*
X15540487Y-12151676D01*
X15979588Y-11712575D01*
X17513300Y-11712575D01*
X17513300Y-11772831D01*
X17522967Y-11796170D01*
X17540830Y-11814033D01*
X17564169Y-11823700D01*
X17569734Y-11823700D01*
X17534568Y-11858866D01*
X17513300Y-11910212D01*
X17513300Y-11965788D01*
X17534568Y-12017134D01*
X17573866Y-12056432D01*
X17625212Y-12077700D01*
X17680788Y-12077700D01*
X17732134Y-12056432D01*
X17771432Y-12017134D01*
X17792700Y-11965788D01*
X17792700Y-11910212D01*
X17771432Y-11858866D01*
X17736266Y-11823700D01*
X17741831Y-11823700D01*
X17765170Y-11814033D01*
X17783033Y-11796170D01*
X17792700Y-11772831D01*
X17792700Y-11712575D01*
X17776825Y-11696700D01*
X17665700Y-11696700D01*
X17665700Y-11698700D01*
X17640300Y-11698700D01*
X17640300Y-11696700D01*
X17529175Y-11696700D01*
X17513300Y-11712575D01*
X15979588Y-11712575D01*
X17513300Y-10178863D01*
X17513300Y-10187788D01*
X17534568Y-10239134D01*
X17573866Y-10278432D01*
X17594551Y-10287000D01*
X17573866Y-10295568D01*
X17534568Y-10334866D01*
X17513300Y-10386212D01*
X17513300Y-10441788D01*
X17534568Y-10493134D01*
X17573866Y-10532432D01*
X17594551Y-10541000D01*
X17573866Y-10549568D01*
X17534568Y-10588866D01*
X17513300Y-10640212D01*
X17513300Y-10695788D01*
X17534568Y-10747134D01*
X17573866Y-10786432D01*
X17594551Y-10795000D01*
X17573866Y-10803568D01*
X17534568Y-10842866D01*
X17513300Y-10894212D01*
X17513300Y-10949788D01*
X17534568Y-11001134D01*
X17573866Y-11040432D01*
X17594551Y-11049000D01*
X17573866Y-11057568D01*
X17534568Y-11096866D01*
X17513300Y-11148212D01*
X17513300Y-11203788D01*
X17534568Y-11255134D01*
X17573866Y-11294432D01*
X17594551Y-11303000D01*
X17573866Y-11311568D01*
X17534568Y-11350866D01*
X17513300Y-11402212D01*
X17513300Y-11457788D01*
X17534568Y-11509134D01*
X17569734Y-11544300D01*
X17564169Y-11544300D01*
X17540830Y-11553967D01*
X17522967Y-11571830D01*
X17513300Y-11595169D01*
X17513300Y-11655425D01*
X17529175Y-11671300D01*
X17640300Y-11671300D01*
X17640300Y-11669300D01*
X17665700Y-11669300D01*
X17665700Y-11671300D01*
X17776825Y-11671300D01*
X17792700Y-11655425D01*
X17792700Y-11595169D01*
X17783033Y-11571830D01*
X17765170Y-11553967D01*
X17741831Y-11544300D01*
X17736266Y-11544300D01*
X17771432Y-11509134D01*
X17792700Y-11457788D01*
X17792700Y-11402212D01*
X17771432Y-11350866D01*
X17732134Y-11311568D01*
X17711449Y-11303000D01*
X17732134Y-11294432D01*
X17771432Y-11255134D01*
X17792700Y-11203788D01*
X17792700Y-11148212D01*
X17771432Y-11096866D01*
X17732134Y-11057568D01*
X17711449Y-11049000D01*
X17732134Y-11040432D01*
X17771432Y-11001134D01*
X17792700Y-10949788D01*
X17792700Y-10894212D01*
X17771432Y-10842866D01*
X17732134Y-10803568D01*
X17711449Y-10795000D01*
X17732134Y-10786432D01*
X17771432Y-10747134D01*
X17792700Y-10695788D01*
X17792700Y-10640212D01*
X17771432Y-10588866D01*
X17732134Y-10549568D01*
X17711449Y-10541000D01*
X17732134Y-10532432D01*
X17771432Y-10493134D01*
X17792700Y-10441788D01*
X17792700Y-10386212D01*
X17771432Y-10334866D01*
X17732134Y-10295568D01*
X17711449Y-10287000D01*
X17732134Y-10278432D01*
X17771432Y-10239134D01*
X17792700Y-10187788D01*
X17792700Y-10132212D01*
X17777092Y-10094530D01*
X17789412Y-10092079D01*
X17814617Y-10075237D01*
X17817669Y-10070669D01*
X17822237Y-10067617D01*
X17836000Y-10047020D01*
X17836000Y-12629000D01*
X11374000Y-12629000D01*
X11374000Y-8354212D01*
X15227300Y-8354212D01*
X15227300Y-8409788D01*
X15248568Y-8461134D01*
X15287866Y-8500432D01*
X15308551Y-8509000D01*
X15287866Y-8517568D01*
X15248568Y-8556866D01*
X15227300Y-8608212D01*
X15227300Y-8663788D01*
X15248568Y-8715134D01*
X15287866Y-8754432D01*
X15308551Y-8763000D01*
X15287866Y-8771568D01*
X15248568Y-8810866D01*
X15227300Y-8862212D01*
X15227300Y-8917788D01*
X15248568Y-8969134D01*
X15287866Y-9008432D01*
X15308551Y-9017000D01*
X15287866Y-9025568D01*
X15248568Y-9064866D01*
X15227300Y-9116212D01*
X15227300Y-9171788D01*
X15248568Y-9223134D01*
X15287866Y-9262432D01*
X15308551Y-9271000D01*
X15287866Y-9279568D01*
X15248568Y-9318866D01*
X15227300Y-9370212D01*
X15227300Y-9425788D01*
X15248568Y-9477134D01*
X15287866Y-9516432D01*
X15308551Y-9525000D01*
X15287866Y-9533568D01*
X15248568Y-9572866D01*
X15227300Y-9624212D01*
X15227300Y-9679788D01*
X15248568Y-9731134D01*
X15287866Y-9770432D01*
X15308551Y-9779000D01*
X15287866Y-9787568D01*
X15248568Y-9826866D01*
X15227300Y-9878212D01*
X15227300Y-9933788D01*
X15248568Y-9985134D01*
X15287866Y-10024432D01*
X15308551Y-10033000D01*
X15287866Y-10041568D01*
X15248568Y-10080866D01*
X15227300Y-10132212D01*
X15227300Y-10187788D01*
X15248568Y-10239134D01*
X15287866Y-10278432D01*
X15308551Y-10287000D01*
X15287866Y-10295568D01*
X15248568Y-10334866D01*
X15227300Y-10386212D01*
X15227300Y-10441788D01*
X15248568Y-10493134D01*
X15283734Y-10528300D01*
X15278169Y-10528300D01*
X15254830Y-10537967D01*
X15236967Y-10555830D01*
X15227300Y-10579169D01*
X15227300Y-10639425D01*
X15243175Y-10655300D01*
X15354300Y-10655300D01*
X15354300Y-10653300D01*
X15379700Y-10653300D01*
X15379700Y-10655300D01*
X15490825Y-10655300D01*
X15506700Y-10639425D01*
X15506700Y-10579169D01*
X15497033Y-10555830D01*
X15479170Y-10537967D01*
X15455831Y-10528300D01*
X15450266Y-10528300D01*
X15485432Y-10493134D01*
X15506700Y-10441788D01*
X15506700Y-10386212D01*
X15485432Y-10334866D01*
X15446134Y-10295568D01*
X15425449Y-10287000D01*
X15446134Y-10278432D01*
X15485432Y-10239134D01*
X15506700Y-10187788D01*
X15506700Y-10132212D01*
X15485432Y-10080866D01*
X15446134Y-10041568D01*
X15425449Y-10033000D01*
X15446134Y-10024432D01*
X15485432Y-9985134D01*
X15506700Y-9933788D01*
X15506700Y-9878212D01*
X15485432Y-9826866D01*
X15446134Y-9787568D01*
X15425449Y-9779000D01*
X15446134Y-9770432D01*
X15485432Y-9731134D01*
X15506700Y-9679788D01*
X15506700Y-9624212D01*
X15485432Y-9572866D01*
X15446134Y-9533568D01*
X15425449Y-9525000D01*
X15446134Y-9516432D01*
X15485432Y-9477134D01*
X15506700Y-9425788D01*
X15506700Y-9370212D01*
X15485432Y-9318866D01*
X15446134Y-9279568D01*
X15425449Y-9271000D01*
X15446134Y-9262432D01*
X15485432Y-9223134D01*
X15506700Y-9171788D01*
X15506700Y-9116212D01*
X15485432Y-9064866D01*
X15446134Y-9025568D01*
X15425449Y-9017000D01*
X15446134Y-9008432D01*
X15485432Y-8969134D01*
X15506700Y-8917788D01*
X15506700Y-8862212D01*
X15485432Y-8810866D01*
X15446134Y-8771568D01*
X15425449Y-8763000D01*
X15446134Y-8754432D01*
X15485432Y-8715134D01*
X15506700Y-8663788D01*
X15506700Y-8608212D01*
X15485432Y-8556866D01*
X15446134Y-8517568D01*
X15425449Y-8509000D01*
X15446134Y-8500432D01*
X15485432Y-8461134D01*
X15506700Y-8409788D01*
X15506700Y-8354212D01*
X15485432Y-8302866D01*
X15446134Y-8263568D01*
X15394788Y-8242300D01*
X15339212Y-8242300D01*
X15287866Y-8263568D01*
X15248568Y-8302866D01*
X15227300Y-8354212D01*
X11374000Y-8354212D01*
X11374000Y-7691000D01*
X17836000Y-7691000D01*
X17836000Y-8715961D01*
G36*
X17665700Y-9893300D02*
X17667700Y-9893300D01*
X17667700Y-9918700D01*
X17665700Y-9918700D01*
X17665700Y-9920700D01*
X17640300Y-9920700D01*
X17640300Y-9918700D01*
X17638300Y-9918700D01*
X17638300Y-9893300D01*
X17640300Y-9893300D01*
X17640300Y-9891300D01*
X17665700Y-9891300D01*
X17665700Y-9893300D01*
X17665700Y-9893300D01*
G37*
X17665700Y-9893300D02*
X17667700Y-9893300D01*
X17667700Y-9918700D01*
X17665700Y-9918700D01*
X17665700Y-9920700D01*
X17640300Y-9920700D01*
X17640300Y-9918700D01*
X17638300Y-9918700D01*
X17638300Y-9893300D01*
X17640300Y-9893300D01*
X17640300Y-9891300D01*
X17665700Y-9891300D01*
X17665700Y-9893300D01*
G04 #@! TD*
M02*
