G04 #@! TF.GenerationSoftware,KiCad,Pcbnew,5.0.2-bee76a0~70~ubuntu18.04.1*
G04 #@! TF.CreationDate,2019-03-11T12:10:11+07:00*
G04 #@! TF.ProjectId,TestNodeMcu,54657374-4e6f-4646-954d-63752e6b6963,rev?*
G04 #@! TF.SameCoordinates,Original*
G04 #@! TF.FileFunction,Soldermask,Top*
G04 #@! TF.FilePolarity,Negative*
%FSLAX45Y45*%
G04 Gerber Fmt 4.5, Leading zero omitted, Abs format (unit mm)*
G04 Created by KiCad (PCBNEW 5.0.2-bee76a0~70~ubuntu18.04.1) date Thứ hai, 11 Tháng 3 Năm 2019 12:10:11 +07*
%MOMM*%
%LPD*%
G01*
G04 APERTURE LIST*
%ADD10C,0.100000*%
G04 APERTURE END LIST*
D10*
G36*
X11776698Y-12151247D02*
X11794915Y-12158792D01*
X11811310Y-12169747D01*
X11825252Y-12183690D01*
X11836207Y-12200085D01*
X11843753Y-12218302D01*
X11847600Y-12237641D01*
X11847600Y-12257359D01*
X11843753Y-12276698D01*
X11836207Y-12294915D01*
X11825252Y-12311310D01*
X11811310Y-12325252D01*
X11794915Y-12336207D01*
X11776698Y-12343753D01*
X11757359Y-12347600D01*
X11737641Y-12347600D01*
X11718302Y-12343753D01*
X11700085Y-12336207D01*
X11683690Y-12325252D01*
X11669747Y-12311310D01*
X11658792Y-12294915D01*
X11651247Y-12276698D01*
X11647400Y-12257359D01*
X11647400Y-12237641D01*
X11651247Y-12218302D01*
X11658792Y-12200085D01*
X11669747Y-12183690D01*
X11683690Y-12169747D01*
X11700085Y-12158792D01*
X11718302Y-12151247D01*
X11737641Y-12147400D01*
X11757359Y-12147400D01*
X11776698Y-12151247D01*
X11776698Y-12151247D01*
G37*
G36*
X11776698Y-11901247D02*
X11794915Y-11908792D01*
X11811310Y-11919747D01*
X11825252Y-11933690D01*
X11836207Y-11950085D01*
X11843753Y-11968302D01*
X11847600Y-11987641D01*
X11847600Y-12007359D01*
X11843753Y-12026698D01*
X11836207Y-12044915D01*
X11825252Y-12061310D01*
X11811310Y-12075252D01*
X11794915Y-12086207D01*
X11776698Y-12093753D01*
X11757359Y-12097600D01*
X11737641Y-12097600D01*
X11718302Y-12093753D01*
X11700085Y-12086207D01*
X11683690Y-12075252D01*
X11669747Y-12061310D01*
X11658792Y-12044915D01*
X11651247Y-12026698D01*
X11647400Y-12007359D01*
X11647400Y-11987641D01*
X11651247Y-11968302D01*
X11658792Y-11950085D01*
X11669747Y-11933690D01*
X11683690Y-11919747D01*
X11700085Y-11908792D01*
X11718302Y-11901247D01*
X11737641Y-11897400D01*
X11757359Y-11897400D01*
X11776698Y-11901247D01*
X11776698Y-11901247D01*
G37*
G36*
X15390714Y-11859824D02*
X15405510Y-11865953D01*
X15418826Y-11874850D01*
X15430150Y-11886174D01*
X15439047Y-11899490D01*
X15445176Y-11914286D01*
X15448300Y-11929992D01*
X15448300Y-11946007D01*
X15445176Y-11961714D01*
X15442447Y-11968302D01*
X15439047Y-11976510D01*
X15431610Y-11987641D01*
X15430150Y-11989826D01*
X15418826Y-12001150D01*
X15405510Y-12010047D01*
X15390714Y-12016176D01*
X15375007Y-12019300D01*
X15358992Y-12019300D01*
X15343286Y-12016176D01*
X15328490Y-12010047D01*
X15315174Y-12001150D01*
X15303850Y-11989826D01*
X15302390Y-11987641D01*
X15294953Y-11976510D01*
X15291553Y-11968302D01*
X15288824Y-11961714D01*
X15285700Y-11946007D01*
X15285700Y-11929992D01*
X15288824Y-11914286D01*
X15294953Y-11899490D01*
X15303850Y-11886174D01*
X15315174Y-11874850D01*
X15328490Y-11865953D01*
X15343286Y-11859824D01*
X15358992Y-11856700D01*
X15375007Y-11856700D01*
X15390714Y-11859824D01*
X15390714Y-11859824D01*
G37*
G36*
X17676714Y-11859824D02*
X17691510Y-11865953D01*
X17704826Y-11874850D01*
X17716150Y-11886174D01*
X17725047Y-11899490D01*
X17731176Y-11914286D01*
X17734300Y-11929992D01*
X17734300Y-11946007D01*
X17731176Y-11961714D01*
X17728447Y-11968302D01*
X17725047Y-11976510D01*
X17717610Y-11987641D01*
X17716150Y-11989826D01*
X17704826Y-12001150D01*
X17691510Y-12010047D01*
X17676714Y-12016176D01*
X17661008Y-12019300D01*
X17644993Y-12019300D01*
X17629286Y-12016176D01*
X17614490Y-12010047D01*
X17601174Y-12001150D01*
X17589850Y-11989826D01*
X17588390Y-11987641D01*
X17580953Y-11976510D01*
X17577553Y-11968302D01*
X17574824Y-11961714D01*
X17571700Y-11946007D01*
X17571700Y-11929992D01*
X17574824Y-11914286D01*
X17580953Y-11899490D01*
X17589850Y-11886174D01*
X17601174Y-11874850D01*
X17614490Y-11865953D01*
X17629286Y-11859824D01*
X17644993Y-11856700D01*
X17661008Y-11856700D01*
X17676714Y-11859824D01*
X17676714Y-11859824D01*
G37*
G36*
X12406214Y-11796324D02*
X12421010Y-11802453D01*
X12434326Y-11811350D01*
X12445650Y-11822674D01*
X12454547Y-11835990D01*
X12460676Y-11850786D01*
X12463800Y-11866492D01*
X12463800Y-11882507D01*
X12460676Y-11898214D01*
X12454547Y-11913010D01*
X12445650Y-11926326D01*
X12434326Y-11937650D01*
X12421010Y-11946547D01*
X12406214Y-11952676D01*
X12390507Y-11955800D01*
X12374492Y-11955800D01*
X12358786Y-11952676D01*
X12343990Y-11946547D01*
X12330674Y-11937650D01*
X12319350Y-11926326D01*
X12310453Y-11913010D01*
X12304324Y-11898214D01*
X12301200Y-11882507D01*
X12301200Y-11866492D01*
X12304324Y-11850786D01*
X12310453Y-11835990D01*
X12319350Y-11822674D01*
X12330674Y-11811350D01*
X12343990Y-11802453D01*
X12358786Y-11796324D01*
X12374492Y-11793200D01*
X12390507Y-11793200D01*
X12406214Y-11796324D01*
X12406214Y-11796324D01*
G37*
G36*
X14819214Y-11796324D02*
X14834010Y-11802453D01*
X14847326Y-11811350D01*
X14858650Y-11822674D01*
X14867547Y-11835990D01*
X14873676Y-11850786D01*
X14876800Y-11866492D01*
X14876800Y-11882507D01*
X14873676Y-11898214D01*
X14867547Y-11913010D01*
X14858650Y-11926326D01*
X14847326Y-11937650D01*
X14834010Y-11946547D01*
X14819214Y-11952676D01*
X14803507Y-11955800D01*
X14787492Y-11955800D01*
X14771786Y-11952676D01*
X14756990Y-11946547D01*
X14743674Y-11937650D01*
X14732350Y-11926326D01*
X14723453Y-11913010D01*
X14717324Y-11898214D01*
X14714200Y-11882507D01*
X14714200Y-11866492D01*
X14717324Y-11850786D01*
X14723453Y-11835990D01*
X14732350Y-11822674D01*
X14743674Y-11811350D01*
X14756990Y-11802453D01*
X14771786Y-11796324D01*
X14787492Y-11793200D01*
X14803507Y-11793200D01*
X14819214Y-11796324D01*
X14819214Y-11796324D01*
G37*
G36*
X11847600Y-11847600D02*
X11647400Y-11847600D01*
X11647400Y-11647400D01*
X11847600Y-11647400D01*
X11847600Y-11847600D01*
X11847600Y-11847600D01*
G37*
G36*
X17734300Y-11765300D02*
X17571700Y-11765300D01*
X17571700Y-11602700D01*
X17734300Y-11602700D01*
X17734300Y-11765300D01*
X17734300Y-11765300D01*
G37*
G36*
X15448300Y-11765300D02*
X15285700Y-11765300D01*
X15285700Y-11602700D01*
X15448300Y-11602700D01*
X15448300Y-11765300D01*
X15448300Y-11765300D01*
G37*
G36*
X12406214Y-11542324D02*
X12421010Y-11548453D01*
X12434326Y-11557350D01*
X12445650Y-11568674D01*
X12454547Y-11581990D01*
X12460676Y-11596786D01*
X12463800Y-11612492D01*
X12463800Y-11628507D01*
X12460676Y-11644214D01*
X12454547Y-11659010D01*
X12445650Y-11672326D01*
X12434326Y-11683650D01*
X12421010Y-11692547D01*
X12406214Y-11698676D01*
X12390507Y-11701800D01*
X12374492Y-11701800D01*
X12358786Y-11698676D01*
X12343990Y-11692547D01*
X12330674Y-11683650D01*
X12319350Y-11672326D01*
X12310453Y-11659010D01*
X12304324Y-11644214D01*
X12301200Y-11628507D01*
X12301200Y-11612492D01*
X12304324Y-11596786D01*
X12310453Y-11581990D01*
X12319350Y-11568674D01*
X12330674Y-11557350D01*
X12343990Y-11548453D01*
X12358786Y-11542324D01*
X12374492Y-11539200D01*
X12390507Y-11539200D01*
X12406214Y-11542324D01*
X12406214Y-11542324D01*
G37*
G36*
X14819214Y-11542324D02*
X14834010Y-11548453D01*
X14847326Y-11557350D01*
X14858650Y-11568674D01*
X14867547Y-11581990D01*
X14873676Y-11596786D01*
X14876800Y-11612492D01*
X14876800Y-11628507D01*
X14873676Y-11644214D01*
X14867547Y-11659010D01*
X14858650Y-11672326D01*
X14847326Y-11683650D01*
X14834010Y-11692547D01*
X14819214Y-11698676D01*
X14803507Y-11701800D01*
X14787492Y-11701800D01*
X14771786Y-11698676D01*
X14756990Y-11692547D01*
X14743674Y-11683650D01*
X14732350Y-11672326D01*
X14723453Y-11659010D01*
X14717324Y-11644214D01*
X14714200Y-11628507D01*
X14714200Y-11612492D01*
X14717324Y-11596786D01*
X14723453Y-11581990D01*
X14732350Y-11568674D01*
X14743674Y-11557350D01*
X14756990Y-11548453D01*
X14771786Y-11542324D01*
X14787492Y-11539200D01*
X14803507Y-11539200D01*
X14819214Y-11542324D01*
X14819214Y-11542324D01*
G37*
G36*
X17676714Y-11351824D02*
X17691510Y-11357953D01*
X17704826Y-11366850D01*
X17716150Y-11378174D01*
X17725047Y-11391490D01*
X17731176Y-11406286D01*
X17734300Y-11421992D01*
X17734300Y-11438007D01*
X17731176Y-11453714D01*
X17725047Y-11468510D01*
X17716150Y-11481826D01*
X17704826Y-11493150D01*
X17691510Y-11502047D01*
X17676714Y-11508176D01*
X17661008Y-11511300D01*
X17644993Y-11511300D01*
X17629286Y-11508176D01*
X17614490Y-11502047D01*
X17601174Y-11493150D01*
X17589850Y-11481826D01*
X17580953Y-11468510D01*
X17574824Y-11453714D01*
X17571700Y-11438007D01*
X17571700Y-11421992D01*
X17574824Y-11406286D01*
X17580953Y-11391490D01*
X17589850Y-11378174D01*
X17601174Y-11366850D01*
X17614490Y-11357953D01*
X17629286Y-11351824D01*
X17644993Y-11348700D01*
X17661008Y-11348700D01*
X17676714Y-11351824D01*
X17676714Y-11351824D01*
G37*
G36*
X15390714Y-11351824D02*
X15405510Y-11357953D01*
X15418826Y-11366850D01*
X15430150Y-11378174D01*
X15439047Y-11391490D01*
X15445176Y-11406286D01*
X15448300Y-11421992D01*
X15448300Y-11438007D01*
X15445176Y-11453714D01*
X15439047Y-11468510D01*
X15430150Y-11481826D01*
X15418826Y-11493150D01*
X15405510Y-11502047D01*
X15390714Y-11508176D01*
X15375007Y-11511300D01*
X15358992Y-11511300D01*
X15343286Y-11508176D01*
X15328490Y-11502047D01*
X15315174Y-11493150D01*
X15303850Y-11481826D01*
X15294953Y-11468510D01*
X15288824Y-11453714D01*
X15285700Y-11438007D01*
X15285700Y-11421992D01*
X15288824Y-11406286D01*
X15294953Y-11391490D01*
X15303850Y-11378174D01*
X15315174Y-11366850D01*
X15328490Y-11357953D01*
X15343286Y-11351824D01*
X15358992Y-11348700D01*
X15375007Y-11348700D01*
X15390714Y-11351824D01*
X15390714Y-11351824D01*
G37*
G36*
X12406214Y-11288324D02*
X12421010Y-11294453D01*
X12434326Y-11303350D01*
X12445650Y-11314674D01*
X12454547Y-11327990D01*
X12460676Y-11342786D01*
X12463800Y-11358492D01*
X12463800Y-11374507D01*
X12460676Y-11390214D01*
X12454547Y-11405010D01*
X12445650Y-11418326D01*
X12434326Y-11429650D01*
X12421010Y-11438547D01*
X12406214Y-11444676D01*
X12390507Y-11447800D01*
X12374492Y-11447800D01*
X12358786Y-11444676D01*
X12343990Y-11438547D01*
X12330674Y-11429650D01*
X12319350Y-11418326D01*
X12310453Y-11405010D01*
X12304324Y-11390214D01*
X12301200Y-11374507D01*
X12301200Y-11358492D01*
X12304324Y-11342786D01*
X12310453Y-11327990D01*
X12319350Y-11314674D01*
X12330674Y-11303350D01*
X12343990Y-11294453D01*
X12358786Y-11288324D01*
X12374492Y-11285200D01*
X12390507Y-11285200D01*
X12406214Y-11288324D01*
X12406214Y-11288324D01*
G37*
G36*
X14819214Y-11288324D02*
X14834010Y-11294453D01*
X14847326Y-11303350D01*
X14858650Y-11314674D01*
X14867547Y-11327990D01*
X14873676Y-11342786D01*
X14876800Y-11358492D01*
X14876800Y-11374507D01*
X14873676Y-11390214D01*
X14867547Y-11405010D01*
X14858650Y-11418326D01*
X14847326Y-11429650D01*
X14834010Y-11438547D01*
X14819214Y-11444676D01*
X14803507Y-11447800D01*
X14787492Y-11447800D01*
X14771786Y-11444676D01*
X14756990Y-11438547D01*
X14743674Y-11429650D01*
X14732350Y-11418326D01*
X14723453Y-11405010D01*
X14717324Y-11390214D01*
X14714200Y-11374507D01*
X14714200Y-11358492D01*
X14717324Y-11342786D01*
X14723453Y-11327990D01*
X14732350Y-11314674D01*
X14743674Y-11303350D01*
X14756990Y-11294453D01*
X14771786Y-11288324D01*
X14787492Y-11285200D01*
X14803507Y-11285200D01*
X14819214Y-11288324D01*
X14819214Y-11288324D01*
G37*
G36*
X17676714Y-11097824D02*
X17691510Y-11103953D01*
X17704826Y-11112850D01*
X17716150Y-11124174D01*
X17725047Y-11137490D01*
X17731176Y-11152286D01*
X17734300Y-11167993D01*
X17734300Y-11184008D01*
X17731176Y-11199714D01*
X17725047Y-11214510D01*
X17716150Y-11227826D01*
X17704826Y-11239150D01*
X17691510Y-11248047D01*
X17676714Y-11254176D01*
X17661008Y-11257300D01*
X17644993Y-11257300D01*
X17629286Y-11254176D01*
X17614490Y-11248047D01*
X17601174Y-11239150D01*
X17589850Y-11227826D01*
X17580953Y-11214510D01*
X17574824Y-11199714D01*
X17571700Y-11184008D01*
X17571700Y-11167993D01*
X17574824Y-11152286D01*
X17580953Y-11137490D01*
X17589850Y-11124174D01*
X17601174Y-11112850D01*
X17614490Y-11103953D01*
X17629286Y-11097824D01*
X17644993Y-11094700D01*
X17661008Y-11094700D01*
X17676714Y-11097824D01*
X17676714Y-11097824D01*
G37*
G36*
X15390714Y-11097824D02*
X15405510Y-11103953D01*
X15418826Y-11112850D01*
X15430150Y-11124174D01*
X15439047Y-11137490D01*
X15445176Y-11152286D01*
X15448300Y-11167993D01*
X15448300Y-11184008D01*
X15445176Y-11199714D01*
X15439047Y-11214510D01*
X15430150Y-11227826D01*
X15418826Y-11239150D01*
X15405510Y-11248047D01*
X15390714Y-11254176D01*
X15375007Y-11257300D01*
X15358992Y-11257300D01*
X15343286Y-11254176D01*
X15328490Y-11248047D01*
X15315174Y-11239150D01*
X15303850Y-11227826D01*
X15294953Y-11214510D01*
X15288824Y-11199714D01*
X15285700Y-11184008D01*
X15285700Y-11167993D01*
X15288824Y-11152286D01*
X15294953Y-11137490D01*
X15303850Y-11124174D01*
X15315174Y-11112850D01*
X15328490Y-11103953D01*
X15343286Y-11097824D01*
X15358992Y-11094700D01*
X15375007Y-11094700D01*
X15390714Y-11097824D01*
X15390714Y-11097824D01*
G37*
G36*
X14819214Y-11034324D02*
X14834010Y-11040453D01*
X14847326Y-11049350D01*
X14858650Y-11060674D01*
X14867547Y-11073990D01*
X14873676Y-11088786D01*
X14876800Y-11104493D01*
X14876800Y-11120508D01*
X14873676Y-11136214D01*
X14867547Y-11151010D01*
X14858650Y-11164326D01*
X14847326Y-11175650D01*
X14834010Y-11184547D01*
X14819214Y-11190676D01*
X14803507Y-11193800D01*
X14787492Y-11193800D01*
X14771786Y-11190676D01*
X14756990Y-11184547D01*
X14743674Y-11175650D01*
X14732350Y-11164326D01*
X14723453Y-11151010D01*
X14717324Y-11136214D01*
X14714200Y-11120508D01*
X14714200Y-11104493D01*
X14717324Y-11088786D01*
X14723453Y-11073990D01*
X14732350Y-11060674D01*
X14743674Y-11049350D01*
X14756990Y-11040453D01*
X14771786Y-11034324D01*
X14787492Y-11031200D01*
X14803507Y-11031200D01*
X14819214Y-11034324D01*
X14819214Y-11034324D01*
G37*
G36*
X12406214Y-11034324D02*
X12421010Y-11040453D01*
X12434326Y-11049350D01*
X12445650Y-11060674D01*
X12454547Y-11073990D01*
X12460676Y-11088786D01*
X12463800Y-11104493D01*
X12463800Y-11120508D01*
X12460676Y-11136214D01*
X12454547Y-11151010D01*
X12445650Y-11164326D01*
X12434326Y-11175650D01*
X12421010Y-11184547D01*
X12406214Y-11190676D01*
X12390507Y-11193800D01*
X12374492Y-11193800D01*
X12358786Y-11190676D01*
X12343990Y-11184547D01*
X12330674Y-11175650D01*
X12319350Y-11164326D01*
X12310453Y-11151010D01*
X12304324Y-11136214D01*
X12301200Y-11120508D01*
X12301200Y-11104493D01*
X12304324Y-11088786D01*
X12310453Y-11073990D01*
X12319350Y-11060674D01*
X12330674Y-11049350D01*
X12343990Y-11040453D01*
X12358786Y-11034324D01*
X12374492Y-11031200D01*
X12390507Y-11031200D01*
X12406214Y-11034324D01*
X12406214Y-11034324D01*
G37*
G36*
X11705600Y-11007100D02*
X11535400Y-11007100D01*
X11535400Y-10836900D01*
X11705600Y-10836900D01*
X11705600Y-11007100D01*
X11705600Y-11007100D01*
G37*
G36*
X11895323Y-10840170D02*
X11910810Y-10846585D01*
X11924748Y-10855899D01*
X11936601Y-10867752D01*
X11945915Y-10881690D01*
X11952330Y-10897177D01*
X11955600Y-10913618D01*
X11955600Y-10930382D01*
X11952330Y-10946823D01*
X11945915Y-10962310D01*
X11936601Y-10976248D01*
X11924748Y-10988102D01*
X11910810Y-10997415D01*
X11895323Y-11003830D01*
X11878882Y-11007100D01*
X11862118Y-11007100D01*
X11845677Y-11003830D01*
X11830190Y-10997415D01*
X11816252Y-10988102D01*
X11804398Y-10976248D01*
X11795085Y-10962310D01*
X11788670Y-10946823D01*
X11785400Y-10930382D01*
X11785400Y-10913618D01*
X11788670Y-10897177D01*
X11795085Y-10881690D01*
X11804398Y-10867752D01*
X11816252Y-10855899D01*
X11830190Y-10846585D01*
X11845677Y-10840170D01*
X11862118Y-10836900D01*
X11878882Y-10836900D01*
X11895323Y-10840170D01*
X11895323Y-10840170D01*
G37*
G36*
X17676714Y-10843824D02*
X17691510Y-10849953D01*
X17704826Y-10858850D01*
X17716150Y-10870174D01*
X17725047Y-10883490D01*
X17731176Y-10898286D01*
X17734300Y-10913993D01*
X17734300Y-10930008D01*
X17731176Y-10945714D01*
X17725047Y-10960510D01*
X17716150Y-10973826D01*
X17704826Y-10985150D01*
X17691510Y-10994047D01*
X17676714Y-11000176D01*
X17661008Y-11003300D01*
X17644993Y-11003300D01*
X17629286Y-11000176D01*
X17614490Y-10994047D01*
X17601174Y-10985150D01*
X17589850Y-10973826D01*
X17580953Y-10960510D01*
X17574824Y-10945714D01*
X17571700Y-10930008D01*
X17571700Y-10913993D01*
X17574824Y-10898286D01*
X17580953Y-10883490D01*
X17589850Y-10870174D01*
X17601174Y-10858850D01*
X17614490Y-10849953D01*
X17629286Y-10843824D01*
X17644993Y-10840700D01*
X17661008Y-10840700D01*
X17676714Y-10843824D01*
X17676714Y-10843824D01*
G37*
G36*
X15390714Y-10843824D02*
X15405510Y-10849953D01*
X15418826Y-10858850D01*
X15430150Y-10870174D01*
X15439047Y-10883490D01*
X15445176Y-10898286D01*
X15448300Y-10913993D01*
X15448300Y-10930008D01*
X15445176Y-10945714D01*
X15439047Y-10960510D01*
X15430150Y-10973826D01*
X15418826Y-10985150D01*
X15405510Y-10994047D01*
X15390714Y-11000176D01*
X15375007Y-11003300D01*
X15358992Y-11003300D01*
X15343286Y-11000176D01*
X15328490Y-10994047D01*
X15315174Y-10985150D01*
X15303850Y-10973826D01*
X15294953Y-10960510D01*
X15288824Y-10945714D01*
X15285700Y-10930008D01*
X15285700Y-10913993D01*
X15288824Y-10898286D01*
X15294953Y-10883490D01*
X15303850Y-10870174D01*
X15315174Y-10858850D01*
X15328490Y-10849953D01*
X15343286Y-10843824D01*
X15358992Y-10840700D01*
X15375007Y-10840700D01*
X15390714Y-10843824D01*
X15390714Y-10843824D01*
G37*
G36*
X14876800Y-10939800D02*
X14714200Y-10939800D01*
X14714200Y-10777200D01*
X14876800Y-10777200D01*
X14876800Y-10939800D01*
X14876800Y-10939800D01*
G37*
G36*
X12463800Y-10939800D02*
X12301200Y-10939800D01*
X12301200Y-10777200D01*
X12463800Y-10777200D01*
X12463800Y-10939800D01*
X12463800Y-10939800D01*
G37*
G36*
X17676714Y-10589824D02*
X17691510Y-10595953D01*
X17704826Y-10604850D01*
X17716150Y-10616174D01*
X17725047Y-10629490D01*
X17731176Y-10644286D01*
X17734300Y-10659993D01*
X17734300Y-10676008D01*
X17731176Y-10691714D01*
X17725047Y-10706510D01*
X17716150Y-10719826D01*
X17704826Y-10731150D01*
X17691510Y-10740047D01*
X17676714Y-10746176D01*
X17661008Y-10749300D01*
X17644993Y-10749300D01*
X17629286Y-10746176D01*
X17614490Y-10740047D01*
X17601174Y-10731150D01*
X17589850Y-10719826D01*
X17580953Y-10706510D01*
X17574824Y-10691714D01*
X17571700Y-10676008D01*
X17571700Y-10659993D01*
X17574824Y-10644286D01*
X17580953Y-10629490D01*
X17589850Y-10616174D01*
X17601174Y-10604850D01*
X17614490Y-10595953D01*
X17629286Y-10589824D01*
X17644993Y-10586700D01*
X17661008Y-10586700D01*
X17676714Y-10589824D01*
X17676714Y-10589824D01*
G37*
G36*
X15448300Y-10749300D02*
X15285700Y-10749300D01*
X15285700Y-10586700D01*
X15448300Y-10586700D01*
X15448300Y-10749300D01*
X15448300Y-10749300D01*
G37*
G36*
X13232823Y-10344870D02*
X13248310Y-10351285D01*
X13262248Y-10360599D01*
X13274101Y-10372452D01*
X13283415Y-10386390D01*
X13289830Y-10401877D01*
X13293100Y-10418318D01*
X13293100Y-10435082D01*
X13289830Y-10451523D01*
X13283415Y-10467010D01*
X13274101Y-10480948D01*
X13262248Y-10492802D01*
X13248310Y-10502115D01*
X13232823Y-10508530D01*
X13216382Y-10511800D01*
X13199618Y-10511800D01*
X13183177Y-10508530D01*
X13167690Y-10502115D01*
X13153752Y-10492802D01*
X13141898Y-10480948D01*
X13132585Y-10467010D01*
X13126170Y-10451523D01*
X13122900Y-10435082D01*
X13122900Y-10418318D01*
X13126170Y-10401877D01*
X13132585Y-10386390D01*
X13141898Y-10372452D01*
X13153752Y-10360599D01*
X13167690Y-10351285D01*
X13183177Y-10344870D01*
X13199618Y-10341600D01*
X13216382Y-10341600D01*
X13232823Y-10344870D01*
X13232823Y-10344870D01*
G37*
G36*
X13986682Y-10342831D02*
X13986682Y-10342831D01*
X13986682Y-10342831D01*
X14002724Y-10347698D01*
X14002724Y-10347698D01*
X14002724Y-10347698D01*
X14017508Y-10355600D01*
X14030466Y-10366234D01*
X14041100Y-10379192D01*
X14049002Y-10393976D01*
X14049002Y-10393976D01*
X14049002Y-10393976D01*
X14053869Y-10410018D01*
X14053869Y-10410018D01*
X14055512Y-10426700D01*
X14053869Y-10443382D01*
X14053869Y-10443382D01*
X14053869Y-10443383D01*
X14051399Y-10451523D01*
X14049002Y-10459424D01*
X14041100Y-10474208D01*
X14030466Y-10487166D01*
X14017508Y-10497801D01*
X14002724Y-10505702D01*
X14002724Y-10505702D01*
X14002724Y-10505703D01*
X13986682Y-10510569D01*
X13986682Y-10510569D01*
X13986682Y-10510569D01*
X13974180Y-10511800D01*
X13965820Y-10511800D01*
X13953318Y-10510569D01*
X13953318Y-10510569D01*
X13953317Y-10510569D01*
X13937276Y-10505703D01*
X13937276Y-10505702D01*
X13937276Y-10505702D01*
X13922492Y-10497801D01*
X13909534Y-10487166D01*
X13898899Y-10474208D01*
X13890998Y-10459424D01*
X13888601Y-10451523D01*
X13886131Y-10443383D01*
X13886131Y-10443382D01*
X13886131Y-10443382D01*
X13884488Y-10426700D01*
X13886131Y-10410018D01*
X13886131Y-10410018D01*
X13890997Y-10393976D01*
X13890998Y-10393976D01*
X13890998Y-10393976D01*
X13898899Y-10379192D01*
X13909534Y-10366234D01*
X13922492Y-10355600D01*
X13937276Y-10347698D01*
X13937276Y-10347698D01*
X13937276Y-10347698D01*
X13953317Y-10342831D01*
X13953318Y-10342831D01*
X13953318Y-10342831D01*
X13965820Y-10341600D01*
X13974180Y-10341600D01*
X13986682Y-10342831D01*
X13986682Y-10342831D01*
G37*
G36*
X17676714Y-10335824D02*
X17691510Y-10341953D01*
X17692825Y-10342831D01*
X17704826Y-10350850D01*
X17716150Y-10362174D01*
X17720568Y-10368787D01*
X17725047Y-10375490D01*
X17731176Y-10390286D01*
X17734300Y-10405993D01*
X17734300Y-10422008D01*
X17731176Y-10437714D01*
X17725047Y-10452510D01*
X17716150Y-10465826D01*
X17704826Y-10477150D01*
X17691510Y-10486047D01*
X17676714Y-10492176D01*
X17661008Y-10495300D01*
X17644993Y-10495300D01*
X17629286Y-10492176D01*
X17614490Y-10486047D01*
X17601174Y-10477150D01*
X17589850Y-10465826D01*
X17580953Y-10452510D01*
X17574824Y-10437714D01*
X17571700Y-10422008D01*
X17571700Y-10405993D01*
X17574824Y-10390286D01*
X17580953Y-10375490D01*
X17585432Y-10368787D01*
X17589850Y-10362174D01*
X17601174Y-10350850D01*
X17613175Y-10342831D01*
X17614490Y-10341953D01*
X17629286Y-10335824D01*
X17644993Y-10332700D01*
X17661008Y-10332700D01*
X17676714Y-10335824D01*
X17676714Y-10335824D01*
G37*
G36*
X15390714Y-10335824D02*
X15405510Y-10341953D01*
X15406825Y-10342831D01*
X15418826Y-10350850D01*
X15430150Y-10362174D01*
X15434568Y-10368787D01*
X15439047Y-10375490D01*
X15445176Y-10390286D01*
X15448300Y-10405993D01*
X15448300Y-10422008D01*
X15445176Y-10437714D01*
X15439047Y-10452510D01*
X15430150Y-10465826D01*
X15418826Y-10477150D01*
X15405510Y-10486047D01*
X15390714Y-10492176D01*
X15375007Y-10495300D01*
X15358992Y-10495300D01*
X15343286Y-10492176D01*
X15328490Y-10486047D01*
X15315174Y-10477150D01*
X15303850Y-10465826D01*
X15294953Y-10452510D01*
X15288824Y-10437714D01*
X15285700Y-10422008D01*
X15285700Y-10405993D01*
X15288824Y-10390286D01*
X15294953Y-10375490D01*
X15299432Y-10368787D01*
X15303850Y-10362174D01*
X15315174Y-10350850D01*
X15327175Y-10342831D01*
X15328490Y-10341953D01*
X15343286Y-10335824D01*
X15358992Y-10332700D01*
X15375007Y-10332700D01*
X15390714Y-10335824D01*
X15390714Y-10335824D01*
G37*
G36*
X12541100Y-10331300D02*
X12350900Y-10331300D01*
X12350900Y-10141100D01*
X12541100Y-10141100D01*
X12541100Y-10331300D01*
X12541100Y-10331300D01*
G37*
G36*
X12727740Y-10144755D02*
X12745047Y-10151923D01*
X12760623Y-10162331D01*
X12773869Y-10175577D01*
X12784277Y-10191153D01*
X12791445Y-10208460D01*
X12795100Y-10226833D01*
X12795100Y-10245567D01*
X12791445Y-10263940D01*
X12784277Y-10281247D01*
X12773869Y-10296823D01*
X12760623Y-10310069D01*
X12745047Y-10320477D01*
X12727740Y-10327645D01*
X12709367Y-10331300D01*
X12690633Y-10331300D01*
X12672260Y-10327645D01*
X12654953Y-10320477D01*
X12639377Y-10310069D01*
X12626131Y-10296823D01*
X12615723Y-10281247D01*
X12608555Y-10263940D01*
X12604900Y-10245567D01*
X12604900Y-10226833D01*
X12608555Y-10208460D01*
X12615723Y-10191153D01*
X12626131Y-10175577D01*
X12639377Y-10162331D01*
X12654953Y-10151923D01*
X12672260Y-10144755D01*
X12690633Y-10141100D01*
X12709367Y-10141100D01*
X12727740Y-10144755D01*
X12727740Y-10144755D01*
G37*
G36*
X14573100Y-10331300D02*
X14382900Y-10331300D01*
X14382900Y-10141100D01*
X14573100Y-10141100D01*
X14573100Y-10331300D01*
X14573100Y-10331300D01*
G37*
G36*
X14759740Y-10144755D02*
X14777047Y-10151923D01*
X14792623Y-10162331D01*
X14805869Y-10175577D01*
X14816277Y-10191153D01*
X14823445Y-10208460D01*
X14827100Y-10226833D01*
X14827100Y-10245567D01*
X14823445Y-10263940D01*
X14816277Y-10281247D01*
X14805869Y-10296823D01*
X14792623Y-10310069D01*
X14777047Y-10320477D01*
X14759740Y-10327645D01*
X14741367Y-10331300D01*
X14722633Y-10331300D01*
X14704260Y-10327645D01*
X14686953Y-10320477D01*
X14671377Y-10310069D01*
X14658131Y-10296823D01*
X14647723Y-10281247D01*
X14640555Y-10263940D01*
X14636900Y-10245567D01*
X14636900Y-10226833D01*
X14640555Y-10208460D01*
X14647723Y-10191153D01*
X14658131Y-10175577D01*
X14671377Y-10162331D01*
X14686953Y-10151923D01*
X14704260Y-10144755D01*
X14722633Y-10141100D01*
X14741367Y-10141100D01*
X14759740Y-10144755D01*
X14759740Y-10144755D01*
G37*
G36*
X11895323Y-10154370D02*
X11910810Y-10160785D01*
X11924748Y-10170099D01*
X11936601Y-10181952D01*
X11945915Y-10195890D01*
X11952330Y-10211377D01*
X11955600Y-10227818D01*
X11955600Y-10244582D01*
X11952330Y-10261023D01*
X11945915Y-10276510D01*
X11936601Y-10290448D01*
X11924748Y-10302302D01*
X11910810Y-10311615D01*
X11895323Y-10318030D01*
X11878882Y-10321300D01*
X11862118Y-10321300D01*
X11845677Y-10318030D01*
X11830190Y-10311615D01*
X11816252Y-10302302D01*
X11804398Y-10290448D01*
X11795085Y-10276510D01*
X11788670Y-10261023D01*
X11785400Y-10244582D01*
X11785400Y-10227818D01*
X11788670Y-10211377D01*
X11795085Y-10195890D01*
X11804398Y-10181952D01*
X11816252Y-10170099D01*
X11830190Y-10160785D01*
X11845677Y-10154370D01*
X11862118Y-10151100D01*
X11878882Y-10151100D01*
X11895323Y-10154370D01*
X11895323Y-10154370D01*
G37*
G36*
X11705600Y-10321300D02*
X11535400Y-10321300D01*
X11535400Y-10151100D01*
X11705600Y-10151100D01*
X11705600Y-10321300D01*
X11705600Y-10321300D01*
G37*
G36*
X17676714Y-10081824D02*
X17691510Y-10087953D01*
X17704826Y-10096850D01*
X17716150Y-10108174D01*
X17725047Y-10121490D01*
X17731176Y-10136286D01*
X17734300Y-10151993D01*
X17734300Y-10168008D01*
X17731176Y-10183714D01*
X17728094Y-10191153D01*
X17725047Y-10198510D01*
X17716450Y-10211377D01*
X17716150Y-10211826D01*
X17704826Y-10223150D01*
X17691510Y-10232047D01*
X17676714Y-10238176D01*
X17661008Y-10241300D01*
X17644993Y-10241300D01*
X17629286Y-10238176D01*
X17614490Y-10232047D01*
X17601174Y-10223150D01*
X17589850Y-10211826D01*
X17589551Y-10211377D01*
X17580953Y-10198510D01*
X17577906Y-10191153D01*
X17574824Y-10183714D01*
X17571700Y-10168008D01*
X17571700Y-10151993D01*
X17574824Y-10136286D01*
X17580953Y-10121490D01*
X17589850Y-10108174D01*
X17601174Y-10096850D01*
X17614490Y-10087953D01*
X17629286Y-10081824D01*
X17644993Y-10078700D01*
X17661008Y-10078700D01*
X17676714Y-10081824D01*
X17676714Y-10081824D01*
G37*
G36*
X15390714Y-10081824D02*
X15405510Y-10087953D01*
X15418826Y-10096850D01*
X15430150Y-10108174D01*
X15439047Y-10121490D01*
X15445176Y-10136286D01*
X15448300Y-10151993D01*
X15448300Y-10168008D01*
X15445176Y-10183714D01*
X15442094Y-10191153D01*
X15439047Y-10198510D01*
X15430450Y-10211377D01*
X15430150Y-10211826D01*
X15418826Y-10223150D01*
X15405510Y-10232047D01*
X15390714Y-10238176D01*
X15375007Y-10241300D01*
X15358992Y-10241300D01*
X15343286Y-10238176D01*
X15328490Y-10232047D01*
X15315174Y-10223150D01*
X15303850Y-10211826D01*
X15303550Y-10211377D01*
X15294953Y-10198510D01*
X15291906Y-10191153D01*
X15288824Y-10183714D01*
X15285700Y-10168008D01*
X15285700Y-10151993D01*
X15288824Y-10136286D01*
X15294953Y-10121490D01*
X15303850Y-10108174D01*
X15315174Y-10096850D01*
X15328490Y-10087953D01*
X15343286Y-10081824D01*
X15358992Y-10078700D01*
X15375007Y-10078700D01*
X15390714Y-10081824D01*
X15390714Y-10081824D01*
G37*
G36*
X13224682Y-9974531D02*
X13224682Y-9974531D01*
X13224682Y-9974531D01*
X13240724Y-9979398D01*
X13240724Y-9979398D01*
X13240724Y-9979398D01*
X13255508Y-9987300D01*
X13268466Y-9997934D01*
X13279100Y-10010892D01*
X13287002Y-10025676D01*
X13287002Y-10025676D01*
X13287002Y-10025676D01*
X13291869Y-10041718D01*
X13291869Y-10041718D01*
X13293512Y-10058400D01*
X13291869Y-10075082D01*
X13291869Y-10075082D01*
X13291869Y-10075083D01*
X13287964Y-10087953D01*
X13287002Y-10091124D01*
X13279100Y-10105908D01*
X13268466Y-10118866D01*
X13255508Y-10129501D01*
X13240724Y-10137402D01*
X13240724Y-10137402D01*
X13240724Y-10137403D01*
X13224682Y-10142269D01*
X13224682Y-10142269D01*
X13224682Y-10142269D01*
X13212180Y-10143500D01*
X13203820Y-10143500D01*
X13191318Y-10142269D01*
X13191318Y-10142269D01*
X13191317Y-10142269D01*
X13175276Y-10137403D01*
X13175276Y-10137402D01*
X13175276Y-10137402D01*
X13160492Y-10129501D01*
X13147534Y-10118866D01*
X13136899Y-10105908D01*
X13128998Y-10091124D01*
X13128036Y-10087953D01*
X13124131Y-10075083D01*
X13124131Y-10075082D01*
X13124131Y-10075082D01*
X13122488Y-10058400D01*
X13124131Y-10041718D01*
X13124131Y-10041718D01*
X13128997Y-10025676D01*
X13128998Y-10025676D01*
X13128998Y-10025676D01*
X13136899Y-10010892D01*
X13147534Y-9997934D01*
X13160492Y-9987300D01*
X13175276Y-9979398D01*
X13175276Y-9979398D01*
X13175276Y-9979398D01*
X13191317Y-9974531D01*
X13191318Y-9974531D01*
X13191318Y-9974531D01*
X13203820Y-9973300D01*
X13212180Y-9973300D01*
X13224682Y-9974531D01*
X13224682Y-9974531D01*
G37*
G36*
X13994823Y-9976570D02*
X14010310Y-9982985D01*
X14024248Y-9992299D01*
X14036101Y-10004152D01*
X14045415Y-10018090D01*
X14051830Y-10033577D01*
X14055100Y-10050018D01*
X14055100Y-10066782D01*
X14051830Y-10083223D01*
X14045415Y-10098710D01*
X14036101Y-10112648D01*
X14024248Y-10124502D01*
X14010310Y-10133815D01*
X13994823Y-10140230D01*
X13978382Y-10143500D01*
X13961618Y-10143500D01*
X13945177Y-10140230D01*
X13929690Y-10133815D01*
X13915752Y-10124502D01*
X13903898Y-10112648D01*
X13894585Y-10098710D01*
X13888170Y-10083223D01*
X13884900Y-10066782D01*
X13884900Y-10050018D01*
X13888170Y-10033577D01*
X13894585Y-10018090D01*
X13903898Y-10004152D01*
X13915752Y-9992299D01*
X13929690Y-9982985D01*
X13945177Y-9976570D01*
X13961618Y-9973300D01*
X13978382Y-9973300D01*
X13994823Y-9976570D01*
X13994823Y-9976570D01*
G37*
G36*
X15390714Y-9827824D02*
X15405510Y-9833953D01*
X15418826Y-9842850D01*
X15430150Y-9854174D01*
X15439047Y-9867490D01*
X15445176Y-9882286D01*
X15448300Y-9897993D01*
X15448300Y-9914008D01*
X15445176Y-9929714D01*
X15439047Y-9944510D01*
X15430150Y-9957826D01*
X15418826Y-9969150D01*
X15405510Y-9978047D01*
X15390714Y-9984176D01*
X15375007Y-9987300D01*
X15358992Y-9987300D01*
X15343286Y-9984176D01*
X15328490Y-9978047D01*
X15315174Y-9969150D01*
X15303850Y-9957826D01*
X15294953Y-9944510D01*
X15288824Y-9929714D01*
X15285700Y-9914008D01*
X15285700Y-9897993D01*
X15288824Y-9882286D01*
X15294953Y-9867490D01*
X15303850Y-9854174D01*
X15315174Y-9842850D01*
X15328490Y-9833953D01*
X15343286Y-9827824D01*
X15358992Y-9824700D01*
X15375007Y-9824700D01*
X15390714Y-9827824D01*
X15390714Y-9827824D01*
G37*
G36*
X17734300Y-9987300D02*
X17571700Y-9987300D01*
X17571700Y-9824700D01*
X17734300Y-9824700D01*
X17734300Y-9987300D01*
X17734300Y-9987300D01*
G37*
G36*
X15390714Y-9573824D02*
X15405510Y-9579953D01*
X15418826Y-9588850D01*
X15430150Y-9600174D01*
X15439047Y-9613490D01*
X15445176Y-9628286D01*
X15448300Y-9643993D01*
X15448300Y-9660008D01*
X15445176Y-9675714D01*
X15439047Y-9690510D01*
X15430150Y-9703826D01*
X15418826Y-9715150D01*
X15405510Y-9724047D01*
X15390714Y-9730176D01*
X15375007Y-9733300D01*
X15358992Y-9733300D01*
X15343286Y-9730176D01*
X15328490Y-9724047D01*
X15315174Y-9715150D01*
X15303850Y-9703826D01*
X15294953Y-9690510D01*
X15288824Y-9675714D01*
X15285700Y-9660008D01*
X15285700Y-9643993D01*
X15288824Y-9628286D01*
X15294953Y-9613490D01*
X15303850Y-9600174D01*
X15315174Y-9588850D01*
X15328490Y-9579953D01*
X15343286Y-9573824D01*
X15358992Y-9570700D01*
X15375007Y-9570700D01*
X15390714Y-9573824D01*
X15390714Y-9573824D01*
G37*
G36*
X17676714Y-9573824D02*
X17691510Y-9579953D01*
X17704826Y-9588850D01*
X17716150Y-9600174D01*
X17725047Y-9613490D01*
X17731176Y-9628286D01*
X17734300Y-9643993D01*
X17734300Y-9660008D01*
X17731176Y-9675714D01*
X17725047Y-9690510D01*
X17716150Y-9703826D01*
X17704826Y-9715150D01*
X17691510Y-9724047D01*
X17676714Y-9730176D01*
X17661008Y-9733300D01*
X17644993Y-9733300D01*
X17629286Y-9730176D01*
X17614490Y-9724047D01*
X17601174Y-9715150D01*
X17589850Y-9703826D01*
X17580953Y-9690510D01*
X17574824Y-9675714D01*
X17571700Y-9660008D01*
X17571700Y-9643993D01*
X17574824Y-9628286D01*
X17580953Y-9613490D01*
X17589850Y-9600174D01*
X17601174Y-9588850D01*
X17614490Y-9579953D01*
X17629286Y-9573824D01*
X17644993Y-9570700D01*
X17661008Y-9570700D01*
X17676714Y-9573824D01*
X17676714Y-9573824D01*
G37*
G36*
X17676714Y-9319824D02*
X17691510Y-9325953D01*
X17704826Y-9334850D01*
X17716150Y-9346174D01*
X17725047Y-9359490D01*
X17731176Y-9374286D01*
X17734300Y-9389993D01*
X17734300Y-9406008D01*
X17731176Y-9421714D01*
X17725047Y-9436510D01*
X17716150Y-9449826D01*
X17704826Y-9461150D01*
X17691510Y-9470047D01*
X17676714Y-9476176D01*
X17661008Y-9479300D01*
X17644993Y-9479300D01*
X17629286Y-9476176D01*
X17614490Y-9470047D01*
X17601174Y-9461150D01*
X17589850Y-9449826D01*
X17580953Y-9436510D01*
X17574824Y-9421714D01*
X17571700Y-9406008D01*
X17571700Y-9389993D01*
X17574824Y-9374286D01*
X17580953Y-9359490D01*
X17589850Y-9346174D01*
X17601174Y-9334850D01*
X17614490Y-9325953D01*
X17629286Y-9319824D01*
X17644993Y-9316700D01*
X17661008Y-9316700D01*
X17676714Y-9319824D01*
X17676714Y-9319824D01*
G37*
G36*
X15390714Y-9319824D02*
X15405510Y-9325953D01*
X15418826Y-9334850D01*
X15430150Y-9346174D01*
X15439047Y-9359490D01*
X15445176Y-9374286D01*
X15448300Y-9389993D01*
X15448300Y-9406008D01*
X15445176Y-9421714D01*
X15439047Y-9436510D01*
X15430150Y-9449826D01*
X15418826Y-9461150D01*
X15405510Y-9470047D01*
X15390714Y-9476176D01*
X15375007Y-9479300D01*
X15358992Y-9479300D01*
X15343286Y-9476176D01*
X15328490Y-9470047D01*
X15315174Y-9461150D01*
X15303850Y-9449826D01*
X15294953Y-9436510D01*
X15288824Y-9421714D01*
X15285700Y-9406008D01*
X15285700Y-9389993D01*
X15288824Y-9374286D01*
X15294953Y-9359490D01*
X15303850Y-9346174D01*
X15315174Y-9334850D01*
X15328490Y-9325953D01*
X15343286Y-9319824D01*
X15358992Y-9316700D01*
X15375007Y-9316700D01*
X15390714Y-9319824D01*
X15390714Y-9319824D01*
G37*
G36*
X17676714Y-9065824D02*
X17691510Y-9071953D01*
X17704826Y-9080850D01*
X17716150Y-9092174D01*
X17725047Y-9105490D01*
X17731176Y-9120286D01*
X17734300Y-9135993D01*
X17734300Y-9152008D01*
X17731176Y-9167714D01*
X17725047Y-9182510D01*
X17716150Y-9195826D01*
X17704826Y-9207150D01*
X17691510Y-9216047D01*
X17676714Y-9222176D01*
X17661008Y-9225300D01*
X17644993Y-9225300D01*
X17629286Y-9222176D01*
X17614490Y-9216047D01*
X17601174Y-9207150D01*
X17589850Y-9195826D01*
X17580953Y-9182510D01*
X17574824Y-9167714D01*
X17571700Y-9152008D01*
X17571700Y-9135993D01*
X17574824Y-9120286D01*
X17580953Y-9105490D01*
X17589850Y-9092174D01*
X17601174Y-9080850D01*
X17614490Y-9071953D01*
X17629286Y-9065824D01*
X17644993Y-9062700D01*
X17661008Y-9062700D01*
X17676714Y-9065824D01*
X17676714Y-9065824D01*
G37*
G36*
X15390714Y-9065824D02*
X15405510Y-9071953D01*
X15418826Y-9080850D01*
X15430150Y-9092174D01*
X15439047Y-9105490D01*
X15445176Y-9120286D01*
X15448300Y-9135993D01*
X15448300Y-9152008D01*
X15445176Y-9167714D01*
X15439047Y-9182510D01*
X15430150Y-9195826D01*
X15418826Y-9207150D01*
X15405510Y-9216047D01*
X15390714Y-9222176D01*
X15375007Y-9225300D01*
X15358992Y-9225300D01*
X15343286Y-9222176D01*
X15328490Y-9216047D01*
X15315174Y-9207150D01*
X15303850Y-9195826D01*
X15294953Y-9182510D01*
X15288824Y-9167714D01*
X15285700Y-9152008D01*
X15285700Y-9135993D01*
X15288824Y-9120286D01*
X15294953Y-9105490D01*
X15303850Y-9092174D01*
X15315174Y-9080850D01*
X15328490Y-9071953D01*
X15343286Y-9065824D01*
X15358992Y-9062700D01*
X15375007Y-9062700D01*
X15390714Y-9065824D01*
X15390714Y-9065824D01*
G37*
G36*
X17676714Y-8811824D02*
X17691510Y-8817953D01*
X17704826Y-8826850D01*
X17716150Y-8838174D01*
X17725047Y-8851490D01*
X17731176Y-8866286D01*
X17734300Y-8881993D01*
X17734300Y-8898008D01*
X17731176Y-8913714D01*
X17725047Y-8928510D01*
X17716150Y-8941826D01*
X17704826Y-8953150D01*
X17691510Y-8962047D01*
X17676714Y-8968176D01*
X17661008Y-8971300D01*
X17644993Y-8971300D01*
X17629286Y-8968176D01*
X17614490Y-8962047D01*
X17601174Y-8953150D01*
X17589850Y-8941826D01*
X17580953Y-8928510D01*
X17574824Y-8913714D01*
X17571700Y-8898008D01*
X17571700Y-8881993D01*
X17574824Y-8866286D01*
X17580953Y-8851490D01*
X17589850Y-8838174D01*
X17601174Y-8826850D01*
X17614490Y-8817953D01*
X17629286Y-8811824D01*
X17644993Y-8808700D01*
X17661008Y-8808700D01*
X17676714Y-8811824D01*
X17676714Y-8811824D01*
G37*
G36*
X15390714Y-8811824D02*
X15405510Y-8817953D01*
X15418826Y-8826850D01*
X15430150Y-8838174D01*
X15439047Y-8851490D01*
X15445176Y-8866286D01*
X15448300Y-8881993D01*
X15448300Y-8898008D01*
X15445176Y-8913714D01*
X15439047Y-8928510D01*
X15430150Y-8941826D01*
X15418826Y-8953150D01*
X15405510Y-8962047D01*
X15390714Y-8968176D01*
X15375007Y-8971300D01*
X15358992Y-8971300D01*
X15343286Y-8968176D01*
X15328490Y-8962047D01*
X15315174Y-8953150D01*
X15303850Y-8941826D01*
X15294953Y-8928510D01*
X15288824Y-8913714D01*
X15285700Y-8898008D01*
X15285700Y-8881993D01*
X15288824Y-8866286D01*
X15294953Y-8851490D01*
X15303850Y-8838174D01*
X15315174Y-8826850D01*
X15328490Y-8817953D01*
X15343286Y-8811824D01*
X15358992Y-8808700D01*
X15375007Y-8808700D01*
X15390714Y-8811824D01*
X15390714Y-8811824D01*
G37*
G36*
X15009714Y-8811824D02*
X15024510Y-8817953D01*
X15037826Y-8826850D01*
X15049150Y-8838174D01*
X15058047Y-8851490D01*
X15064176Y-8866286D01*
X15067300Y-8881993D01*
X15067300Y-8898008D01*
X15064176Y-8913714D01*
X15058047Y-8928510D01*
X15049150Y-8941826D01*
X15037826Y-8953150D01*
X15024510Y-8962047D01*
X15009714Y-8968176D01*
X14994007Y-8971300D01*
X14977992Y-8971300D01*
X14962286Y-8968176D01*
X14947490Y-8962047D01*
X14934174Y-8953150D01*
X14922850Y-8941826D01*
X14913953Y-8928510D01*
X14907824Y-8913714D01*
X14904700Y-8898008D01*
X14904700Y-8881993D01*
X14907824Y-8866286D01*
X14913953Y-8851490D01*
X14922850Y-8838174D01*
X14934174Y-8826850D01*
X14947490Y-8817953D01*
X14962286Y-8811824D01*
X14977992Y-8808700D01*
X14994007Y-8808700D01*
X15009714Y-8811824D01*
X15009714Y-8811824D01*
G37*
G36*
X15067300Y-8717300D02*
X14904700Y-8717300D01*
X14904700Y-8554700D01*
X15067300Y-8554700D01*
X15067300Y-8717300D01*
X15067300Y-8717300D01*
G37*
G36*
X15390714Y-8557824D02*
X15405510Y-8563953D01*
X15418826Y-8572850D01*
X15430150Y-8584174D01*
X15439047Y-8597490D01*
X15445176Y-8612286D01*
X15448300Y-8627993D01*
X15448300Y-8644008D01*
X15445176Y-8659714D01*
X15439047Y-8674510D01*
X15430150Y-8687826D01*
X15418826Y-8699150D01*
X15405510Y-8708047D01*
X15390714Y-8714176D01*
X15375007Y-8717300D01*
X15358992Y-8717300D01*
X15343286Y-8714176D01*
X15328490Y-8708047D01*
X15315174Y-8699150D01*
X15303850Y-8687826D01*
X15294953Y-8674510D01*
X15288824Y-8659714D01*
X15285700Y-8644008D01*
X15285700Y-8627993D01*
X15288824Y-8612286D01*
X15294953Y-8597490D01*
X15303850Y-8584174D01*
X15315174Y-8572850D01*
X15328490Y-8563953D01*
X15343286Y-8557824D01*
X15358992Y-8554700D01*
X15375007Y-8554700D01*
X15390714Y-8557824D01*
X15390714Y-8557824D01*
G37*
G36*
X17676714Y-8557824D02*
X17691510Y-8563953D01*
X17704826Y-8572850D01*
X17716150Y-8584174D01*
X17725047Y-8597490D01*
X17731176Y-8612286D01*
X17734300Y-8627993D01*
X17734300Y-8644008D01*
X17731176Y-8659714D01*
X17725047Y-8674510D01*
X17716150Y-8687826D01*
X17704826Y-8699150D01*
X17691510Y-8708047D01*
X17676714Y-8714176D01*
X17661008Y-8717300D01*
X17644993Y-8717300D01*
X17629286Y-8714176D01*
X17614490Y-8708047D01*
X17601174Y-8699150D01*
X17589850Y-8687826D01*
X17580953Y-8674510D01*
X17574824Y-8659714D01*
X17571700Y-8644008D01*
X17571700Y-8627993D01*
X17574824Y-8612286D01*
X17580953Y-8597490D01*
X17589850Y-8584174D01*
X17601174Y-8572850D01*
X17614490Y-8563953D01*
X17629286Y-8557824D01*
X17644993Y-8554700D01*
X17661008Y-8554700D01*
X17676714Y-8557824D01*
X17676714Y-8557824D01*
G37*
G36*
X17676714Y-8303824D02*
X17691510Y-8309953D01*
X17704826Y-8318850D01*
X17716150Y-8330174D01*
X17725047Y-8343490D01*
X17731176Y-8358286D01*
X17734300Y-8373992D01*
X17734300Y-8390008D01*
X17731176Y-8405714D01*
X17725047Y-8420510D01*
X17716150Y-8433826D01*
X17704826Y-8445150D01*
X17691510Y-8454047D01*
X17676714Y-8460176D01*
X17661008Y-8463300D01*
X17644993Y-8463300D01*
X17629286Y-8460176D01*
X17614490Y-8454047D01*
X17601174Y-8445150D01*
X17589850Y-8433826D01*
X17580953Y-8420510D01*
X17574824Y-8405714D01*
X17571700Y-8390008D01*
X17571700Y-8373992D01*
X17574824Y-8358286D01*
X17580953Y-8343490D01*
X17589850Y-8330174D01*
X17601174Y-8318850D01*
X17614490Y-8309953D01*
X17629286Y-8303824D01*
X17644993Y-8300700D01*
X17661008Y-8300700D01*
X17676714Y-8303824D01*
X17676714Y-8303824D01*
G37*
G36*
X15390714Y-8303824D02*
X15405510Y-8309953D01*
X15418826Y-8318850D01*
X15430150Y-8330174D01*
X15439047Y-8343490D01*
X15445176Y-8358286D01*
X15448300Y-8373992D01*
X15448300Y-8390008D01*
X15445176Y-8405714D01*
X15439047Y-8420510D01*
X15430150Y-8433826D01*
X15418826Y-8445150D01*
X15405510Y-8454047D01*
X15390714Y-8460176D01*
X15375007Y-8463300D01*
X15358992Y-8463300D01*
X15343286Y-8460176D01*
X15328490Y-8454047D01*
X15315174Y-8445150D01*
X15303850Y-8433826D01*
X15294953Y-8420510D01*
X15288824Y-8405714D01*
X15285700Y-8390008D01*
X15285700Y-8373992D01*
X15288824Y-8358286D01*
X15294953Y-8343490D01*
X15303850Y-8330174D01*
X15315174Y-8318850D01*
X15328490Y-8309953D01*
X15343286Y-8303824D01*
X15358992Y-8300700D01*
X15375007Y-8300700D01*
X15390714Y-8303824D01*
X15390714Y-8303824D01*
G37*
M02*
