M48
;DRILL file {KiCad 5.0.2-bee76a0~70~ubuntu18.04.1} date Thứ hai, 11 Tháng 3 Năm 2019 11:56:05 +07
;FORMAT={-:-/ absolute / metric / decimal}
FMAT,2
METRIC,TZ
T1C0.762
T2C0.800
T3C0.900
%
G90
G05
T1
X149.86Y-86.36
X149.86Y-88.9
X153.67Y-83.82
X153.67Y-86.36
X153.67Y-88.9
X153.67Y-91.44
X153.67Y-93.98
X153.67Y-96.52
X153.67Y-99.06
X153.67Y-101.6
X153.67Y-104.14
X153.67Y-106.68
X153.67Y-109.22
X153.67Y-111.76
X153.67Y-114.3
X153.67Y-116.84
X153.67Y-119.38
X176.53Y-83.82
X176.53Y-86.36
X176.53Y-88.9
X176.53Y-91.44
X176.53Y-93.98
X176.53Y-96.52
X176.53Y-99.06
X176.53Y-101.6
X176.53Y-104.14
X176.53Y-106.68
X176.53Y-109.22
X176.53Y-111.76
X176.53Y-114.3
X176.53Y-116.84
X176.53Y-119.38
X123.825Y-108.585
X123.825Y-111.125
X123.825Y-113.665
X123.825Y-116.205
X123.825Y-118.745
X147.955Y-108.585
X147.955Y-111.125
X147.955Y-113.665
X147.955Y-116.205
X147.955Y-118.745
T2
X132.08Y-104.267
X139.7Y-104.267
X116.205Y-102.362
X118.705Y-102.362
X132.08Y-100.584
X139.7Y-100.584
X116.205Y-109.22
X118.705Y-109.22
T3
X144.78Y-102.362
X147.32Y-102.362
X117.475Y-117.475
X117.475Y-119.975
X117.475Y-122.475
X124.46Y-102.362
X127.Y-102.362
T0
M30
